<?xml version="1.0" encoding="UTF-8" standalone="no"?>
<!DOCTYPE svg PUBLIC "-//W3C//DTD SVG 1.1//EN"
 "http://www.w3.org/Graphics/SVG/1.1/DTD/svg11.dtd">
<!-- Generated by graphviz version 2.38.0 (20140413.2041)
 -->
<!-- Title: snakemake_dag Pages: 1 -->
<svg width="3052pt" height="2129pt"
 viewBox="0.00 0.00 3052.00 2129.31" xmlns="http://www.w3.org/2000/svg" xmlns:xlink="http://www.w3.org/1999/xlink">
<g id="graph0" class="graph" transform="scale(1 1) rotate(0) translate(4 2125.31)">
<title>snakemake_dag</title>
<polygon fill="white" stroke="none" points="-4,4 -4,-2125.31 3048,-2125.31 3048,4 -4,4"/>
<!-- 0 -->
<g id="node1" class="node"><title>0</title>
<path fill="none" stroke="#97d856" stroke-width="2" d="M3032,-988C3032,-988 3002,-988 3002,-988 2996,-988 2990,-982 2990,-976 2990,-976 2990,-964 2990,-964 2990,-958 2996,-952 3002,-952 3002,-952 3032,-952 3032,-952 3038,-952 3044,-958 3044,-964 3044,-964 3044,-976 3044,-976 3044,-982 3038,-988 3032,-988"/>
<text text-anchor="middle" x="3017" y="-967.5" font-family="sans" font-size="10.00">all</text>
</g>
<!-- 1 -->
<g id="node2" class="node"><title>1</title>
<path fill="none" stroke="#ced856" stroke-width="2" d="M2931.5,-1015C2931.5,-1015 2901.5,-1015 2901.5,-1015 2895.5,-1015 2889.5,-1009 2889.5,-1003 2889.5,-1003 2889.5,-991 2889.5,-991 2889.5,-985 2895.5,-979 2901.5,-979 2901.5,-979 2931.5,-979 2931.5,-979 2937.5,-979 2943.5,-985 2943.5,-991 2943.5,-991 2943.5,-1003 2943.5,-1003 2943.5,-1009 2937.5,-1015 2931.5,-1015"/>
<text text-anchor="middle" x="2916.5" y="-994.5" font-family="sans" font-size="10.00">Index</text>
</g>
<!-- 1&#45;&gt;0 -->
<g id="edge1" class="edge"><title>1&#45;&gt;0</title>
<path fill="none" stroke="grey" stroke-width="2" d="M2943.64,-989.835C2954.77,-986.784 2967.94,-983.174 2979.97,-979.876"/>
<polygon fill="grey" stroke="grey" stroke-width="2" points="2981.02,-983.217 2989.74,-977.198 2979.17,-976.466 2981.02,-983.217"/>
</g>
<!-- 2 -->
<g id="node3" class="node"><title>2</title>
<path fill="none" stroke="#d87d56" stroke-width="2" stroke-dasharray="5,2" d="M2942,-961C2942,-961 2891,-961 2891,-961 2885,-961 2879,-955 2879,-949 2879,-949 2879,-937 2879,-937 2879,-931 2885,-925 2891,-925 2891,-925 2942,-925 2942,-925 2948,-925 2954,-931 2954,-937 2954,-937 2954,-949 2954,-949 2954,-955 2948,-961 2942,-961"/>
<text text-anchor="middle" x="2916.5" y="-946" font-family="sans" font-size="10.00">markdown</text>
<text text-anchor="middle" x="2916.5" y="-935" font-family="sans" font-size="10.00">file: readme</text>
</g>
<!-- 2&#45;&gt;0 -->
<g id="edge2" class="edge"><title>2&#45;&gt;0</title>
<path fill="none" stroke="grey" stroke-width="2" d="M2954.18,-953.054C2962.58,-955.356 2971.5,-957.802 2979.88,-960.098"/>
<polygon fill="grey" stroke="grey" stroke-width="2" points="2979.18,-963.536 2989.75,-962.804 2981.03,-956.785 2979.18,-963.536"/>
</g>
<!-- 3 -->
<g id="node4" class="node"><title>3</title>
<path fill="none" stroke="#56d8d0" stroke-width="2" stroke-dasharray="5,2" d="M1359.5,-182C1359.5,-182 1026.5,-182 1026.5,-182 1020.5,-182 1014.5,-176 1014.5,-170 1014.5,-170 1014.5,-158 1014.5,-158 1014.5,-152 1020.5,-146 1026.5,-146 1026.5,-146 1359.5,-146 1359.5,-146 1365.5,-146 1371.5,-152 1371.5,-158 1371.5,-158 1371.5,-170 1371.5,-170 1371.5,-176 1365.5,-182 1359.5,-182"/>
<text text-anchor="middle" x="1193" y="-161.5" font-family="sans" font-size="10.00">Scripts_MultiOmics_HPO_phenotype_Compare_HPOmatch_SemSim_R</text>
</g>
<!-- 3&#45;&gt;1 -->
<g id="edge3" class="edge"><title>3&#45;&gt;1</title>
<path fill="none" stroke="grey" stroke-width="2" d="M1371.6,-160.129C1786.98,-151.939 2790.89,-137.503 2843,-188 2905.46,-248.53 2838.07,-893.252 2879,-970 2879.95,-971.773 2881.07,-973.462 2882.31,-975.064"/>
<polygon fill="grey" stroke="grey" stroke-width="2" points="2879.95,-977.648 2889.44,-982.355 2884.95,-972.756 2879.95,-977.648"/>
</g>
<!-- 7 -->
<g id="node8" class="node"><title>7</title>
<path fill="none" stroke="#56c1d8" stroke-width="2" stroke-dasharray="5,2" d="M1815,-940C1815,-940 1575,-940 1575,-940 1569,-940 1563,-934 1563,-928 1563,-928 1563,-916 1563,-916 1563,-910 1569,-904 1575,-904 1575,-904 1815,-904 1815,-904 1821,-904 1827,-910 1827,-916 1827,-916 1827,-928 1827,-928 1827,-934 1821,-940 1815,-940"/>
<text text-anchor="middle" x="1695" y="-919.5" font-family="sans" font-size="10.00">Scripts_MultiOmics_Integration_integrate_omics_R</text>
</g>
<!-- 3&#45;&gt;7 -->
<g id="edge53" class="edge"><title>3&#45;&gt;7</title>
<path fill="none" stroke="grey" stroke-width="2" d="M1194.36,-182.084C1197.27,-275.311 1223.82,-704.613 1466,-895 1490.6,-914.339 1521.55,-924.356 1552.65,-928.95"/>
<polygon fill="grey" stroke="grey" stroke-width="2" points="1552.38,-932.444 1562.74,-930.256 1553.28,-925.502 1552.38,-932.444"/>
</g>
<!-- 4 -->
<g id="node5" class="node"><title>4</title>
<path fill="none" stroke="#bed856" stroke-width="2" stroke-dasharray="5,2" d="M816.5,-209C816.5,-209 573.5,-209 573.5,-209 567.5,-209 561.5,-203 561.5,-197 561.5,-197 561.5,-185 561.5,-185 561.5,-179 567.5,-173 573.5,-173 573.5,-173 816.5,-173 816.5,-173 822.5,-173 828.5,-179 828.5,-185 828.5,-185 828.5,-197 828.5,-197 828.5,-203 822.5,-209 816.5,-209"/>
<text text-anchor="middle" x="695" y="-188.5" font-family="sans" font-size="10.00">Scripts_MultiOmics_HPO_phenotype_HPO_match_R</text>
</g>
<!-- 4&#45;&gt;1 -->
<g id="edge4" class="edge"><title>4&#45;&gt;1</title>
<path fill="none" stroke="grey" stroke-width="2" d="M828.638,-191.962C1293.92,-195.486 2824.83,-208.408 2843,-226 2902.45,-283.577 2839.97,-897.019 2879,-970 2879.95,-971.772 2881.07,-973.46 2882.32,-975.061"/>
<polygon fill="grey" stroke="grey" stroke-width="2" points="2879.95,-977.647 2889.45,-982.35 2884.96,-972.753 2879.95,-977.647"/>
</g>
<!-- 4&#45;&gt;3 -->
<g id="edge49" class="edge"><title>4&#45;&gt;3</title>
<path fill="none" stroke="grey" stroke-width="2" d="M828.593,-183.782C882.441,-180.851 945.631,-177.411 1004.08,-174.229"/>
<polygon fill="grey" stroke="grey" stroke-width="2" points="1004.38,-177.718 1014.18,-173.68 1004,-170.729 1004.38,-177.718"/>
</g>
<!-- 5 -->
<g id="node6" class="node"><title>5</title>
<path fill="none" stroke="#d6d856" stroke-width="2" stroke-dasharray="5,2" d="M2317.5,-1024C2317.5,-1024 2041.5,-1024 2041.5,-1024 2035.5,-1024 2029.5,-1018 2029.5,-1012 2029.5,-1012 2029.5,-1000 2029.5,-1000 2029.5,-994 2035.5,-988 2041.5,-988 2041.5,-988 2317.5,-988 2317.5,-988 2323.5,-988 2329.5,-994 2329.5,-1000 2329.5,-1000 2329.5,-1012 2329.5,-1012 2329.5,-1018 2323.5,-1024 2317.5,-1024"/>
<text text-anchor="middle" x="2179.5" y="-1003.5" font-family="sans" font-size="10.00">Scripts_MultiOmics_HPO_phenotype_Organ_involvment_R</text>
</g>
<!-- 5&#45;&gt;1 -->
<g id="edge5" class="edge"><title>5&#45;&gt;1</title>
<path fill="none" stroke="grey" stroke-width="2" d="M2329.53,-1006.9C2463.83,-1007.23 2666.67,-1006.53 2843,-1001 2854.77,-1000.63 2867.6,-999.999 2879.15,-999.345"/>
<polygon fill="grey" stroke="grey" stroke-width="2" points="2879.56,-1002.83 2889.34,-998.745 2879.15,-995.839 2879.56,-1002.83"/>
</g>
<!-- 28 -->
<g id="node29" class="node"><title>28</title>
<path fill="none" stroke="#56d8c9" stroke-width="2" stroke-dasharray="5,2" d="M2718,-992C2718,-992 2560,-992 2560,-992 2554,-992 2548,-986 2548,-980 2548,-980 2548,-968 2548,-968 2548,-962 2554,-956 2560,-956 2560,-956 2718,-956 2718,-956 2724,-956 2730,-962 2730,-968 2730,-968 2730,-980 2730,-980 2730,-986 2724,-992 2718,-992"/>
<text text-anchor="middle" x="2639" y="-971.5" font-family="sans" font-size="10.00">Scripts_Paper_figures_Figure2_f_R</text>
</g>
<!-- 5&#45;&gt;28 -->
<g id="edge79" class="edge"><title>5&#45;&gt;28</title>
<path fill="none" stroke="grey" stroke-width="2" d="M2329.67,-995.566C2397.84,-990.798 2476.79,-985.276 2537.73,-981.013"/>
<polygon fill="grey" stroke="grey" stroke-width="2" points="2538.01,-984.503 2547.74,-980.314 2537.52,-977.52 2538.01,-984.503"/>
</g>
<!-- 29 -->
<g id="node30" class="node"><title>29</title>
<path fill="none" stroke="#61d856" stroke-width="2" stroke-dasharray="5,2" d="M2719,-938C2719,-938 2559,-938 2559,-938 2553,-938 2547,-932 2547,-926 2547,-926 2547,-914 2547,-914 2547,-908 2553,-902 2559,-902 2559,-902 2719,-902 2719,-902 2725,-902 2731,-908 2731,-914 2731,-914 2731,-926 2731,-926 2731,-932 2725,-938 2719,-938"/>
<text text-anchor="middle" x="2639" y="-917.5" font-family="sans" font-size="10.00">Scripts_Paper_figures_Figure2_g_R</text>
</g>
<!-- 5&#45;&gt;29 -->
<g id="edge81" class="edge"><title>5&#45;&gt;29</title>
<path fill="none" stroke="grey" stroke-width="2" d="M2250.07,-987.978C2301.02,-975.245 2371.97,-958.471 2435,-947 2467.97,-941 2504.18,-935.759 2536.77,-931.53"/>
<polygon fill="grey" stroke="grey" stroke-width="2" points="2537.29,-934.993 2546.76,-930.251 2536.4,-928.049 2537.29,-934.993"/>
</g>
<!-- 30 -->
<g id="node31" class="node"><title>30</title>
<path fill="none" stroke="#d85e56" stroke-width="2" stroke-dasharray="5,2" d="M2719,-1192C2719,-1192 2559,-1192 2559,-1192 2553,-1192 2547,-1186 2547,-1180 2547,-1180 2547,-1168 2547,-1168 2547,-1162 2553,-1156 2559,-1156 2559,-1156 2719,-1156 2719,-1156 2725,-1156 2731,-1162 2731,-1168 2731,-1168 2731,-1180 2731,-1180 2731,-1186 2725,-1192 2719,-1192"/>
<text text-anchor="middle" x="2639" y="-1171.5" font-family="sans" font-size="10.00">Scripts_Paper_figures_Figure2_h_R</text>
</g>
<!-- 5&#45;&gt;30 -->
<g id="edge83" class="edge"><title>5&#45;&gt;30</title>
<path fill="none" stroke="grey" stroke-width="2" d="M2226.07,-1024.03C2271.75,-1043.12 2343.14,-1075.74 2399,-1114 2416.91,-1126.26 2415.34,-1137.81 2435,-1147 2466.23,-1161.59 2502.93,-1169.01 2536.47,-1172.58"/>
<polygon fill="grey" stroke="grey" stroke-width="2" points="2536.48,-1176.1 2546.77,-1173.57 2537.15,-1169.13 2536.48,-1176.1"/>
</g>
<!-- 35 -->
<g id="node36" class="node"><title>35</title>
<path fill="none" stroke="#d88556" stroke-width="2" stroke-dasharray="5,2" d="M2742.5,-1138C2742.5,-1138 2535.5,-1138 2535.5,-1138 2529.5,-1138 2523.5,-1132 2523.5,-1126 2523.5,-1126 2523.5,-1114 2523.5,-1114 2523.5,-1108 2529.5,-1102 2535.5,-1102 2535.5,-1102 2742.5,-1102 2742.5,-1102 2748.5,-1102 2754.5,-1108 2754.5,-1114 2754.5,-1114 2754.5,-1126 2754.5,-1126 2754.5,-1132 2748.5,-1138 2742.5,-1138"/>
<text text-anchor="middle" x="2639" y="-1117.5" font-family="sans" font-size="10.00">Scripts_Patient_analysis_Patient_analysis_R</text>
</g>
<!-- 5&#45;&gt;35 -->
<g id="edge90" class="edge"><title>5&#45;&gt;35</title>
<path fill="none" stroke="grey" stroke-width="2" d="M2244.38,-1024.05C2288.36,-1037.07 2347.86,-1055.84 2399,-1076 2415.46,-1082.49 2418.03,-1088 2435,-1093 2459.95,-1100.36 2487.21,-1105.71 2513.44,-1109.61"/>
<polygon fill="grey" stroke="grey" stroke-width="2" points="2513.03,-1113.09 2523.43,-1111.03 2514.02,-1106.16 2513.03,-1113.09"/>
</g>
<!-- 36 -->
<g id="node37" class="node"><title>36</title>
<path fill="none" stroke="#d8c356" stroke-width="2" stroke-dasharray="5,2" d="M2769.5,-1084C2769.5,-1084 2508.5,-1084 2508.5,-1084 2502.5,-1084 2496.5,-1078 2496.5,-1072 2496.5,-1072 2496.5,-1060 2496.5,-1060 2496.5,-1054 2502.5,-1048 2508.5,-1048 2508.5,-1048 2769.5,-1048 2769.5,-1048 2775.5,-1048 2781.5,-1054 2781.5,-1060 2781.5,-1060 2781.5,-1072 2781.5,-1072 2781.5,-1078 2775.5,-1084 2769.5,-1084"/>
<text text-anchor="middle" x="2639" y="-1063.5" font-family="sans" font-size="10.00">Scripts_Patient_analysis_Patient_analysis_validation_R</text>
</g>
<!-- 5&#45;&gt;36 -->
<g id="edge92" class="edge"><title>5&#45;&gt;36</title>
<path fill="none" stroke="grey" stroke-width="2" d="M2317.77,-1024C2372.15,-1031.13 2434.8,-1039.35 2490.18,-1046.61"/>
<polygon fill="grey" stroke="grey" stroke-width="2" points="2490.07,-1050.13 2500.44,-1047.96 2490.98,-1043.19 2490.07,-1050.13"/>
</g>
<!-- 6 -->
<g id="node7" class="node"><title>6</title>
<path fill="none" stroke="#568ad8" stroke-width="2" stroke-dasharray="5,2" d="M837,-146C837,-146 553,-146 553,-146 547,-146 541,-140 541,-134 541,-134 541,-122 541,-122 541,-116 547,-110 553,-110 553,-110 837,-110 837,-110 843,-110 849,-116 849,-122 849,-122 849,-134 849,-134 849,-140 843,-146 837,-146"/>
<text text-anchor="middle" x="695" y="-125.5" font-family="sans" font-size="10.00">Scripts_MultiOmics_HPO_phenotype_Semantic_similarity_R</text>
</g>
<!-- 6&#45;&gt;1 -->
<g id="edge6" class="edge"><title>6&#45;&gt;1</title>
<path fill="none" stroke="grey" stroke-width="2" d="M849.015,-125.515C1044.87,-122.554 1394.67,-118 1694,-118 1694,-118 1694,-118 2180.5,-118 2254.2,-118 2791.04,-98.7325 2843,-151 2907.22,-215.597 2836.22,-889.584 2879,-970 2879.94,-971.774 2881.06,-973.463 2882.31,-975.066"/>
<polygon fill="grey" stroke="grey" stroke-width="2" points="2879.94,-977.649 2889.43,-982.359 2884.95,-972.759 2879.94,-977.649"/>
</g>
<!-- 6&#45;&gt;3 -->
<g id="edge50" class="edge"><title>6&#45;&gt;3</title>
<path fill="none" stroke="grey" stroke-width="2" d="M849.202,-139.12C898.158,-142.673 952.916,-146.647 1004.05,-150.358"/>
<polygon fill="grey" stroke="grey" stroke-width="2" points="1004,-153.864 1014.23,-151.097 1004.51,-146.882 1004,-153.864"/>
</g>
<!-- 7&#45;&gt;1 -->
<g id="edge7" class="edge"><title>7&#45;&gt;1</title>
<path fill="none" stroke="grey" stroke-width="2" d="M1827.02,-932.677C1862.14,-929.053 1897.63,-918.578 1924,-895 1976.4,-848.151 1904.93,-784.681 1960,-741 2036.43,-680.375 2301.52,-737.164 2399,-741 2448.45,-742.946 2806.22,-742.889 2843,-776 2908.17,-834.676 2832.52,-895.64 2879,-970 2879.92,-971.47 2880.95,-972.887 2882.07,-974.25"/>
<polygon fill="grey" stroke="grey" stroke-width="2" points="2879.68,-976.815 2889.22,-981.437 2884.64,-971.879 2879.68,-976.815"/>
</g>
<!-- 18 -->
<g id="node19" class="node"><title>18</title>
<path fill="none" stroke="#d8a456" stroke-width="2" stroke-dasharray="5,2" d="M2324.5,-694C2324.5,-694 2034.5,-694 2034.5,-694 2028.5,-694 2022.5,-688 2022.5,-682 2022.5,-682 2022.5,-670 2022.5,-670 2022.5,-664 2028.5,-658 2034.5,-658 2034.5,-658 2324.5,-658 2324.5,-658 2330.5,-658 2336.5,-664 2336.5,-670 2336.5,-670 2336.5,-682 2336.5,-682 2336.5,-688 2330.5,-694 2324.5,-694"/>
<text text-anchor="middle" x="2179.5" y="-673.5" font-family="sans" font-size="10.00">Scripts_MultiOmics_Variant_analysis_enrichment_analysis_R</text>
</g>
<!-- 7&#45;&gt;18 -->
<g id="edge67" class="edge"><title>7&#45;&gt;18</title>
<path fill="none" stroke="grey" stroke-width="2" d="M1827.03,-933.397C1862.35,-929.846 1897.95,-919.23 1924,-895 1985.97,-837.355 1898.83,-766.493 1960,-708 1974.88,-693.769 1993.14,-684.101 2012.7,-677.707"/>
<polygon fill="grey" stroke="grey" stroke-width="2" points="2013.81,-681.029 2022.39,-674.826 2011.81,-674.319 2013.81,-681.029"/>
</g>
<!-- 19 -->
<g id="node20" class="node"><title>19</title>
<path fill="none" stroke="#56d8a9" stroke-width="2" stroke-dasharray="5,2" d="M2817,-640C2817,-640 2461,-640 2461,-640 2455,-640 2449,-634 2449,-628 2449,-628 2449,-616 2449,-616 2449,-610 2455,-604 2461,-604 2461,-604 2817,-604 2817,-604 2823,-604 2829,-610 2829,-616 2829,-616 2829,-628 2829,-628 2829,-634 2823,-640 2817,-640"/>
<text text-anchor="middle" x="2639" y="-619.5" font-family="sans" font-size="10.00">Scripts_MultiOmics_Variant_analysis_enrichment_analysis_variant_type_R</text>
</g>
<!-- 7&#45;&gt;19 -->
<g id="edge68" class="edge"><title>7&#45;&gt;19</title>
<path fill="none" stroke="grey" stroke-width="2" d="M1827.14,-934.192C1862.67,-930.72 1898.36,-919.947 1924,-895 2003.2,-817.945 1877.85,-722.905 1960,-649 1995.04,-617.473 2251.29,-614.814 2438.45,-617.25"/>
<polygon fill="grey" stroke="grey" stroke-width="2" points="2438.66,-620.753 2448.71,-617.389 2438.76,-613.753 2438.66,-620.753"/>
</g>
<!-- 20 -->
<g id="node21" class="node"><title>20</title>
<path fill="none" stroke="#56d8d8" stroke-width="2" stroke-dasharray="5,2" d="M2320,-596C2320,-596 2039,-596 2039,-596 2033,-596 2027,-590 2027,-584 2027,-584 2027,-572 2027,-572 2027,-566 2033,-560 2039,-560 2039,-560 2320,-560 2320,-560 2326,-560 2332,-566 2332,-572 2332,-572 2332,-584 2332,-584 2332,-590 2326,-596 2320,-596"/>
<text text-anchor="middle" x="2179.5" y="-575.5" font-family="sans" font-size="10.00">Scripts_MultiOmics_Variant_analysis_outlier_proportions_R</text>
</g>
<!-- 7&#45;&gt;20 -->
<g id="edge69" class="edge"><title>7&#45;&gt;20</title>
<path fill="none" stroke="grey" stroke-width="2" d="M1827.13,-934.517C1862.77,-931.084 1898.52,-920.251 1924,-895 2013.75,-806.064 1872.09,-703.755 1960,-613 1975.72,-596.775 1995.74,-586.156 2017.26,-579.425"/>
<polygon fill="grey" stroke="grey" stroke-width="2" points="2018.24,-582.785 2026.91,-576.687 2016.33,-576.051 2018.24,-582.785"/>
</g>
<!-- 21 -->
<g id="node22" class="node"><title>21</title>
<path fill="none" stroke="#56d892" stroke-width="2" stroke-dasharray="5,2" d="M2812.5,-494C2812.5,-494 2465.5,-494 2465.5,-494 2459.5,-494 2453.5,-488 2453.5,-482 2453.5,-482 2453.5,-470 2453.5,-470 2453.5,-464 2459.5,-458 2465.5,-458 2465.5,-458 2812.5,-458 2812.5,-458 2818.5,-458 2824.5,-464 2824.5,-470 2824.5,-470 2824.5,-482 2824.5,-482 2824.5,-488 2818.5,-494 2812.5,-494"/>
<text text-anchor="middle" x="2639" y="-473.5" font-family="sans" font-size="10.00">Scripts_MultiOmics_Variant_analysis_outlier_proportions_variant_type_R</text>
</g>
<!-- 7&#45;&gt;21 -->
<g id="edge70" class="edge"><title>7&#45;&gt;21</title>
<path fill="none" stroke="grey" stroke-width="2" d="M1827.2,-934.908C1862.95,-931.518 1898.74,-920.61 1924,-895 1977.98,-840.282 1905.17,-604.86 1960,-551 1994.93,-516.692 2350.39,-518.86 2399,-513 2438.99,-508.18 2482.57,-501.776 2521.43,-495.654"/>
<polygon fill="grey" stroke="grey" stroke-width="2" points="2522.4,-499.043 2531.73,-494.02 2521.3,-492.13 2522.4,-499.043"/>
</g>
<!-- 22 -->
<g id="node23" class="node"><title>22</title>
<path fill="none" stroke="#d8ac56" stroke-width="2" stroke-dasharray="5,2" d="M2254,-1300C2254,-1300 2105,-1300 2105,-1300 2099,-1300 2093,-1294 2093,-1288 2093,-1288 2093,-1276 2093,-1276 2093,-1270 2099,-1264 2105,-1264 2105,-1264 2254,-1264 2254,-1264 2260,-1264 2266,-1270 2266,-1276 2266,-1276 2266,-1288 2266,-1288 2266,-1294 2260,-1300 2254,-1300"/>
<text text-anchor="middle" x="2179.5" y="-1279.5" font-family="sans" font-size="10.00">Scripts_Paper_figures_Figure1_R</text>
</g>
<!-- 7&#45;&gt;22 -->
<g id="edge71" class="edge"><title>7&#45;&gt;22</title>
<path fill="none" stroke="grey" stroke-width="2" d="M1704.06,-940.109C1730.78,-997.779 1822.66,-1177.87 1960,-1255 1996.87,-1275.7 2042.67,-1283.56 2082.81,-1285.8"/>
<polygon fill="grey" stroke="grey" stroke-width="2" points="2082.73,-1289.3 2092.88,-1286.25 2083.05,-1282.31 2082.73,-1289.3"/>
</g>
<!-- 24 -->
<g id="node25" class="node"><title>24</title>
<path fill="none" stroke="#566bd8" stroke-width="2" stroke-dasharray="5,2" d="M2259.5,-504C2259.5,-504 2099.5,-504 2099.5,-504 2093.5,-504 2087.5,-498 2087.5,-492 2087.5,-492 2087.5,-480 2087.5,-480 2087.5,-474 2093.5,-468 2099.5,-468 2099.5,-468 2259.5,-468 2259.5,-468 2265.5,-468 2271.5,-474 2271.5,-480 2271.5,-480 2271.5,-492 2271.5,-492 2271.5,-498 2265.5,-504 2259.5,-504"/>
<text text-anchor="middle" x="2179.5" y="-483.5" font-family="sans" font-size="10.00">Scripts_Paper_figures_Figure2_b_R</text>
</g>
<!-- 7&#45;&gt;24 -->
<g id="edge74" class="edge"><title>7&#45;&gt;24</title>
<path fill="none" stroke="grey" stroke-width="2" d="M1827.05,-935.08C1862.9,-931.727 1898.78,-920.795 1924,-895 1982.83,-834.82 1902,-578.985 1960,-518 1989.66,-486.815 2035.32,-476.825 2077.24,-475.44"/>
<polygon fill="grey" stroke="grey" stroke-width="2" points="2077.31,-478.939 2087.24,-475.266 2077.18,-471.94 2077.31,-478.939"/>
</g>
<!-- 25 -->
<g id="node26" class="node"><title>25</title>
<path fill="none" stroke="#56d86b" stroke-width="2" stroke-dasharray="5,2" d="M2259,-450C2259,-450 2100,-450 2100,-450 2094,-450 2088,-444 2088,-438 2088,-438 2088,-426 2088,-426 2088,-420 2094,-414 2100,-414 2100,-414 2259,-414 2259,-414 2265,-414 2271,-420 2271,-426 2271,-426 2271,-438 2271,-438 2271,-444 2265,-450 2259,-450"/>
<text text-anchor="middle" x="2179.5" y="-429.5" font-family="sans" font-size="10.00">Scripts_Paper_figures_Figure2_c_R</text>
</g>
<!-- 7&#45;&gt;25 -->
<g id="edge75" class="edge"><title>7&#45;&gt;25</title>
<path fill="none" stroke="grey" stroke-width="2" d="M1827.25,-935.282C1863.12,-931.935 1898.95,-920.956 1924,-895 1991.51,-825.047 1892.66,-529.124 1960,-459 1989.84,-427.925 2035.76,-418.98 2077.82,-418.701"/>
<polygon fill="grey" stroke="grey" stroke-width="2" points="2077.81,-422.201 2087.85,-418.795 2077.88,-415.202 2077.81,-422.201"/>
</g>
<!-- 26 -->
<g id="node27" class="node"><title>26</title>
<path fill="none" stroke="#d8b456" stroke-width="2" stroke-dasharray="5,2" d="M2259.5,-396C2259.5,-396 2099.5,-396 2099.5,-396 2093.5,-396 2087.5,-390 2087.5,-384 2087.5,-384 2087.5,-372 2087.5,-372 2087.5,-366 2093.5,-360 2099.5,-360 2099.5,-360 2259.5,-360 2259.5,-360 2265.5,-360 2271.5,-366 2271.5,-372 2271.5,-372 2271.5,-384 2271.5,-384 2271.5,-390 2265.5,-396 2259.5,-396"/>
<text text-anchor="middle" x="2179.5" y="-375.5" font-family="sans" font-size="10.00">Scripts_Paper_figures_Figure2_d_R</text>
</g>
<!-- 7&#45;&gt;26 -->
<g id="edge76" class="edge"><title>7&#45;&gt;26</title>
<path fill="none" stroke="grey" stroke-width="2" d="M1827.11,-935.451C1863.07,-932.142 1899,-921.141 1924,-895 1999.47,-816.097 1884.73,-484.095 1960,-405 1989.64,-373.854 2035.41,-364.866 2077.43,-364.577"/>
<polygon fill="grey" stroke="grey" stroke-width="2" points="2077.41,-368.076 2087.45,-364.668 2077.48,-361.077 2077.41,-368.076"/>
</g>
<!-- 7&#45;&gt;28 -->
<g id="edge78" class="edge"><title>7&#45;&gt;28</title>
<path fill="none" stroke="grey" stroke-width="2" d="M1827.48,-929.258C2017.97,-939.773 2366.59,-959.017 2537.77,-968.467"/>
<polygon fill="grey" stroke="grey" stroke-width="2" points="2537.61,-971.963 2547.78,-969.02 2537.99,-964.974 2537.61,-971.963"/>
</g>
<!-- 7&#45;&gt;29 -->
<g id="edge80" class="edge"><title>7&#45;&gt;29</title>
<path fill="none" stroke="grey" stroke-width="2" d="M1827.48,-921.721C2017.59,-921.317 2365.22,-920.579 2536.76,-920.215"/>
<polygon fill="grey" stroke="grey" stroke-width="2" points="2536.81,-923.715 2546.8,-920.194 2536.79,-916.715 2536.81,-923.715"/>
</g>
<!-- 7&#45;&gt;30 -->
<g id="edge82" class="edge"><title>7&#45;&gt;30</title>
<path fill="none" stroke="grey" stroke-width="2" d="M1714.91,-940.133C1755.76,-978.05 1856.92,-1065.32 1960,-1103 2144.17,-1170.32 2204.02,-1126.22 2399,-1147 2444.26,-1151.82 2494.31,-1157.44 2536.87,-1162.29"/>
<polygon fill="grey" stroke="grey" stroke-width="2" points="2536.62,-1165.78 2546.95,-1163.44 2537.42,-1158.83 2536.62,-1165.78"/>
</g>
<!-- 31 -->
<g id="node32" class="node"><title>31</title>
<path fill="none" stroke="#9fd856" stroke-width="2" stroke-dasharray="5,2" d="M2259.5,-342C2259.5,-342 2099.5,-342 2099.5,-342 2093.5,-342 2087.5,-336 2087.5,-330 2087.5,-330 2087.5,-318 2087.5,-318 2087.5,-312 2093.5,-306 2099.5,-306 2099.5,-306 2259.5,-306 2259.5,-306 2265.5,-306 2271.5,-312 2271.5,-318 2271.5,-318 2271.5,-330 2271.5,-330 2271.5,-336 2265.5,-342 2259.5,-342"/>
<text text-anchor="middle" x="2179.5" y="-321.5" font-family="sans" font-size="10.00">Scripts_Paper_figures_Figure3_a_R</text>
</g>
<!-- 7&#45;&gt;31 -->
<g id="edge84" class="edge"><title>7&#45;&gt;31</title>
<path fill="none" stroke="grey" stroke-width="2" d="M1827.22,-935.564C1863.19,-932.259 1899.09,-921.232 1924,-895 2007.42,-807.142 1876.8,-439.069 1960,-351 1989.52,-319.747 2035.29,-310.745 2077.32,-310.475"/>
<polygon fill="grey" stroke="grey" stroke-width="2" points="2077.31,-313.975 2087.34,-310.572 2077.38,-306.976 2077.31,-313.975"/>
</g>
<!-- 32 -->
<g id="node33" class="node"><title>32</title>
<path fill="none" stroke="#80d856" stroke-width="2" stroke-dasharray="5,2" d="M2718.5,-1452C2718.5,-1452 2559.5,-1452 2559.5,-1452 2553.5,-1452 2547.5,-1446 2547.5,-1440 2547.5,-1440 2547.5,-1428 2547.5,-1428 2547.5,-1422 2553.5,-1416 2559.5,-1416 2559.5,-1416 2718.5,-1416 2718.5,-1416 2724.5,-1416 2730.5,-1422 2730.5,-1428 2730.5,-1428 2730.5,-1440 2730.5,-1440 2730.5,-1446 2724.5,-1452 2718.5,-1452"/>
<text text-anchor="middle" x="2639" y="-1431.5" font-family="sans" font-size="10.00">Scripts_Paper_figures_Figure3_c_R</text>
</g>
<!-- 7&#45;&gt;32 -->
<g id="edge85" class="edge"><title>7&#45;&gt;32</title>
<path fill="none" stroke="grey" stroke-width="2" d="M1699.67,-940.459C1715.32,-1013.78 1783.95,-1285.8 1960,-1396 2007.63,-1425.82 2360.43,-1432.3 2537.39,-1433.66"/>
<polygon fill="grey" stroke="grey" stroke-width="2" points="2537.47,-1437.17 2547.49,-1433.74 2537.52,-1430.17 2537.47,-1437.17"/>
</g>
<!-- 33 -->
<g id="node34" class="node"><title>33</title>
<path fill="none" stroke="#68d856" stroke-width="2" stroke-dasharray="5,2" d="M2259.5,-1354C2259.5,-1354 2099.5,-1354 2099.5,-1354 2093.5,-1354 2087.5,-1348 2087.5,-1342 2087.5,-1342 2087.5,-1330 2087.5,-1330 2087.5,-1324 2093.5,-1318 2099.5,-1318 2099.5,-1318 2259.5,-1318 2259.5,-1318 2265.5,-1318 2271.5,-1324 2271.5,-1330 2271.5,-1330 2271.5,-1342 2271.5,-1342 2271.5,-1348 2265.5,-1354 2259.5,-1354"/>
<text text-anchor="middle" x="2179.5" y="-1333.5" font-family="sans" font-size="10.00">Scripts_Paper_figures_Figure3_e_R</text>
</g>
<!-- 7&#45;&gt;33 -->
<g id="edge87" class="edge"><title>7&#45;&gt;33</title>
<path fill="none" stroke="grey" stroke-width="2" d="M1702.18,-940.25C1724.79,-1003.92 1809.66,-1217.33 1960,-1309 1994.6,-1330.1 2038.02,-1338.35 2077.02,-1340.78"/>
<polygon fill="grey" stroke="grey" stroke-width="2" points="2077.2,-1344.29 2087.36,-1341.3 2077.55,-1337.3 2077.2,-1344.29"/>
</g>
<!-- 34 -->
<g id="node35" class="node"><title>34</title>
<path fill="none" stroke="#d86656" stroke-width="2" stroke-dasharray="5,2" d="M2254,-1246C2254,-1246 2105,-1246 2105,-1246 2099,-1246 2093,-1240 2093,-1234 2093,-1234 2093,-1222 2093,-1222 2093,-1216 2099,-1210 2105,-1210 2105,-1210 2254,-1210 2254,-1210 2260,-1210 2266,-1216 2266,-1222 2266,-1222 2266,-1234 2266,-1234 2266,-1240 2260,-1246 2254,-1246"/>
<text text-anchor="middle" x="2179.5" y="-1225.5" font-family="sans" font-size="10.00">Scripts_Paper_figures_Figure4_R</text>
</g>
<!-- 7&#45;&gt;34 -->
<g id="edge88" class="edge"><title>7&#45;&gt;34</title>
<path fill="none" stroke="grey" stroke-width="2" d="M1706.63,-940.034C1737.9,-991.257 1835.32,-1137.98 1960,-1201 1997.5,-1219.95 2043.09,-1227.61 2082.9,-1230.17"/>
<polygon fill="grey" stroke="grey" stroke-width="2" points="2082.71,-1233.67 2092.89,-1230.72 2083.09,-1226.68 2082.71,-1233.67"/>
</g>
<!-- 7&#45;&gt;35 -->
<g id="edge89" class="edge"><title>7&#45;&gt;35</title>
<path fill="none" stroke="grey" stroke-width="2" d="M1720.23,-940.163C1764.9,-972.511 1864.42,-1039.39 1960,-1068 2060.11,-1097.97 2346.03,-1111.36 2512.87,-1116.76"/>
<polygon fill="grey" stroke="grey" stroke-width="2" points="2513.08,-1120.27 2523.19,-1117.09 2513.31,-1113.28 2513.08,-1120.27"/>
</g>
<!-- 7&#45;&gt;36 -->
<g id="edge91" class="edge"><title>7&#45;&gt;36</title>
<path fill="none" stroke="grey" stroke-width="2" d="M1728.51,-940.083C1777.14,-966.094 1872.48,-1013.12 1960,-1033 2137.42,-1073.29 2347.43,-1076.99 2486.2,-1073.58"/>
<polygon fill="grey" stroke="grey" stroke-width="2" points="2486.58,-1077.07 2496.48,-1073.31 2486.39,-1070.07 2486.58,-1077.07"/>
</g>
<!-- 37 -->
<g id="node38" class="node"><title>37</title>
<path fill="none" stroke="#5663d8" stroke-width="2" stroke-dasharray="5,2" d="M2285,-1192C2285,-1192 2074,-1192 2074,-1192 2068,-1192 2062,-1186 2062,-1180 2062,-1180 2062,-1168 2062,-1168 2062,-1162 2068,-1156 2074,-1156 2074,-1156 2285,-1156 2285,-1156 2291,-1156 2297,-1162 2297,-1168 2297,-1168 2297,-1180 2297,-1180 2297,-1186 2291,-1192 2285,-1192"/>
<text text-anchor="middle" x="2179.5" y="-1171.5" font-family="sans" font-size="10.00">Scripts_Patient_analysis_diagnosed_cases_R</text>
</g>
<!-- 7&#45;&gt;37 -->
<g id="edge93" class="edge"><title>7&#45;&gt;37</title>
<path fill="none" stroke="grey" stroke-width="2" d="M1711.04,-940.033C1748.21,-983.212 1849.42,-1092.61 1960,-1142 1988.43,-1154.7 2020.81,-1162.56 2051.77,-1167.38"/>
<polygon fill="grey" stroke="grey" stroke-width="2" points="2051.37,-1170.85 2061.77,-1168.84 2052.38,-1163.93 2051.37,-1170.85"/>
</g>
<!-- 40 -->
<g id="node41" class="node"><title>40</title>
<path fill="none" stroke="#56d87b" stroke-width="2" stroke-dasharray="5,2" d="M2280.5,-894C2280.5,-894 2078.5,-894 2078.5,-894 2072.5,-894 2066.5,-888 2066.5,-882 2066.5,-882 2066.5,-870 2066.5,-870 2066.5,-864 2072.5,-858 2078.5,-858 2078.5,-858 2280.5,-858 2280.5,-858 2286.5,-858 2292.5,-864 2292.5,-870 2292.5,-870 2292.5,-882 2292.5,-882 2292.5,-888 2286.5,-894 2280.5,-894"/>
<text text-anchor="middle" x="2179.5" y="-873.5" font-family="sans" font-size="10.00">Scripts_Supplementary_figures_S_Fig2_c_R</text>
</g>
<!-- 7&#45;&gt;40 -->
<g id="edge95" class="edge"><title>7&#45;&gt;40</title>
<path fill="none" stroke="grey" stroke-width="2" d="M1827.21,-909.491C1898.49,-902.695 1986.08,-894.344 2055.97,-887.681"/>
<polygon fill="grey" stroke="grey" stroke-width="2" points="2056.53,-891.144 2066.15,-886.711 2055.86,-884.176 2056.53,-891.144"/>
</g>
<!-- 41 -->
<g id="node42" class="node"><title>41</title>
<path fill="none" stroke="#78d856" stroke-width="2" stroke-dasharray="5,2" d="M2740.5,-1398C2740.5,-1398 2537.5,-1398 2537.5,-1398 2531.5,-1398 2525.5,-1392 2525.5,-1386 2525.5,-1386 2525.5,-1374 2525.5,-1374 2525.5,-1368 2531.5,-1362 2537.5,-1362 2537.5,-1362 2740.5,-1362 2740.5,-1362 2746.5,-1362 2752.5,-1368 2752.5,-1374 2752.5,-1374 2752.5,-1386 2752.5,-1386 2752.5,-1392 2746.5,-1398 2740.5,-1398"/>
<text text-anchor="middle" x="2639" y="-1377.5" font-family="sans" font-size="10.00">Scripts_Supplementary_figures_S_Fig2_d_R</text>
</g>
<!-- 7&#45;&gt;41 -->
<g id="edge96" class="edge"><title>7&#45;&gt;41</title>
<path fill="none" stroke="grey" stroke-width="2" d="M1700.25,-940.318C1717.67,-1010.64 1790.83,-1264.28 1960,-1363 2050.94,-1416.07 2345.73,-1403.28 2515.15,-1390.76"/>
<polygon fill="grey" stroke="grey" stroke-width="2" points="2515.66,-1394.23 2525.37,-1389.99 2515.14,-1387.25 2515.66,-1394.23"/>
</g>
<!-- 45 -->
<g id="node46" class="node"><title>45</title>
<path fill="none" stroke="#d86e56" stroke-width="2" stroke-dasharray="5,2" d="M2275,-840C2275,-840 2084,-840 2084,-840 2078,-840 2072,-834 2072,-828 2072,-828 2072,-816 2072,-816 2072,-810 2078,-804 2084,-804 2084,-804 2275,-804 2275,-804 2281,-804 2287,-810 2287,-816 2287,-816 2287,-828 2287,-828 2287,-834 2281,-840 2275,-840"/>
<text text-anchor="middle" x="2179.5" y="-819.5" font-family="sans" font-size="10.00">Scripts_Supplementary_figures_S_Fig3_R</text>
</g>
<!-- 7&#45;&gt;45 -->
<g id="edge102" class="edge"><title>7&#45;&gt;45</title>
<path fill="none" stroke="grey" stroke-width="2" d="M1827.24,-924.004C1860.44,-919.911 1894.9,-911.364 1924,-895 1946.63,-882.274 1937.4,-861.783 1960,-849 1990.51,-831.742 2027.19,-823.383 2061.72,-819.762"/>
<polygon fill="grey" stroke="grey" stroke-width="2" points="2062.23,-823.229 2071.87,-818.825 2061.59,-816.259 2062.23,-823.229"/>
</g>
<!-- 46 -->
<g id="node47" class="node"><title>46</title>
<path fill="none" stroke="#56d85b" stroke-width="2" stroke-dasharray="5,2" d="M2275,-786C2275,-786 2084,-786 2084,-786 2078,-786 2072,-780 2072,-774 2072,-774 2072,-762 2072,-762 2072,-756 2078,-750 2084,-750 2084,-750 2275,-750 2275,-750 2281,-750 2287,-756 2287,-762 2287,-762 2287,-774 2287,-774 2287,-780 2281,-786 2275,-786"/>
<text text-anchor="middle" x="2179.5" y="-765.5" font-family="sans" font-size="10.00">Scripts_Supplementary_figures_S_Fig4_R</text>
</g>
<!-- 7&#45;&gt;46 -->
<g id="edge103" class="edge"><title>7&#45;&gt;46</title>
<path fill="none" stroke="grey" stroke-width="2" d="M1827.11,-930.479C1861.62,-926.664 1896.77,-916.639 1924,-895 1960.98,-865.609 1923.1,-824.485 1960,-795 1988.39,-772.32 2025.82,-762.761 2061.67,-759.705"/>
<polygon fill="grey" stroke="grey" stroke-width="2" points="2061.99,-763.191 2071.73,-759.01 2061.51,-756.208 2061.99,-763.191"/>
</g>
<!-- 8 -->
<g id="node9" class="node"><title>8</title>
<path fill="none" stroke="#56d863" stroke-width="2" stroke-dasharray="5,2" d="M2831,-1706C2831,-1706 2447,-1706 2447,-1706 2441,-1706 2435,-1700 2435,-1694 2435,-1694 2435,-1682 2435,-1682 2435,-1676 2441,-1670 2447,-1670 2447,-1670 2831,-1670 2831,-1670 2837,-1670 2843,-1676 2843,-1682 2843,-1682 2843,-1694 2843,-1694 2843,-1700 2837,-1706 2831,-1706"/>
<text text-anchor="middle" x="2639" y="-1685.5" font-family="sans" font-size="10.00">Scripts_MultiOmics_Proteomics_Aberrant_Expression_LIMMA_LIMMASummary_R</text>
</g>
<!-- 8&#45;&gt;1 -->
<g id="edge8" class="edge"><title>8&#45;&gt;1</title>
<path fill="none" stroke="grey" stroke-width="2" d="M2833.17,-1669.82C2836.61,-1667.11 2839.89,-1664.18 2843,-1661 2888.13,-1614.8 2909.62,-1146.1 2914.44,-1025.28"/>
<polygon fill="grey" stroke="grey" stroke-width="2" points="2917.94,-1025.14 2914.84,-1015.01 2910.95,-1024.87 2917.94,-1025.14"/>
</g>
<!-- 9 -->
<g id="node10" class="node"><title>9</title>
<path fill="none" stroke="#b6d856" stroke-width="2" stroke-dasharray="5,2" d="M1897.5,-1798C1897.5,-1798 1492.5,-1798 1492.5,-1798 1486.5,-1798 1480.5,-1792 1480.5,-1786 1480.5,-1786 1480.5,-1774 1480.5,-1774 1480.5,-1768 1486.5,-1762 1492.5,-1762 1492.5,-1762 1897.5,-1762 1897.5,-1762 1903.5,-1762 1909.5,-1768 1909.5,-1774 1909.5,-1774 1909.5,-1786 1909.5,-1786 1909.5,-1792 1903.5,-1798 1897.5,-1798"/>
<text text-anchor="middle" x="1695" y="-1777.5" font-family="sans" font-size="10.00">Scripts_MultiOmics_Proteomics_Aberrant_Expression_LIMMA_batch_normalization_R</text>
</g>
<!-- 9&#45;&gt;1 -->
<g id="edge9" class="edge"><title>9&#45;&gt;1</title>
<path fill="none" stroke="grey" stroke-width="2" d="M1909.78,-1793.06C2222.81,-1809.94 2776.18,-1830.43 2843,-1769 2898.85,-1717.66 2912.56,-1158.19 2915.03,-1025.23"/>
<polygon fill="grey" stroke="grey" stroke-width="2" points="2918.54,-1025.11 2915.22,-1015.05 2911.54,-1024.98 2918.54,-1025.11"/>
</g>
<!-- 14 -->
<g id="node15" class="node"><title>14</title>
<path fill="none" stroke="#56d0d8" stroke-width="2" stroke-dasharray="5,2" d="M2319.5,-1928C2319.5,-1928 2039.5,-1928 2039.5,-1928 2033.5,-1928 2027.5,-1922 2027.5,-1916 2027.5,-1916 2027.5,-1904 2027.5,-1904 2027.5,-1898 2033.5,-1892 2039.5,-1892 2039.5,-1892 2319.5,-1892 2319.5,-1892 2325.5,-1892 2331.5,-1898 2331.5,-1904 2331.5,-1904 2331.5,-1916 2331.5,-1916 2331.5,-1922 2325.5,-1928 2319.5,-1928"/>
<text text-anchor="middle" x="2179.5" y="-1907.5" font-family="sans" font-size="10.00">Scripts_MultiOmics_Proteomics_disease_gene_coverage_R</text>
</g>
<!-- 9&#45;&gt;14 -->
<g id="edge62" class="edge"><title>9&#45;&gt;14</title>
<path fill="none" stroke="grey" stroke-width="2" d="M1762.84,-1798.01C1851.67,-1821.94 2008.29,-1864.14 2101.83,-1889.34"/>
<polygon fill="grey" stroke="grey" stroke-width="2" points="2100.95,-1892.73 2111.52,-1891.95 2102.77,-1885.97 2100.95,-1892.73"/>
</g>
<!-- 50 -->
<g id="node51" class="node"><title>50</title>
<path fill="none" stroke="#d8d356" stroke-width="2" stroke-dasharray="5,2" d="M2387,-1668C2387,-1668 1972,-1668 1972,-1668 1966,-1668 1960,-1662 1960,-1656 1960,-1656 1960,-1644 1960,-1644 1960,-1638 1966,-1632 1972,-1632 1972,-1632 2387,-1632 2387,-1632 2393,-1632 2399,-1638 2399,-1644 2399,-1644 2399,-1656 2399,-1656 2399,-1662 2393,-1668 2387,-1668"/>
<text text-anchor="middle" x="2179.5" y="-1647.5" font-family="sans" font-size="10.00">Scripts_MultiOmics_Proteomics_Aberrant_Expression_LIMMA_detect_outliers_limma_R</text>
</g>
<!-- 9&#45;&gt;50 -->
<g id="edge109" class="edge"><title>9&#45;&gt;50</title>
<path fill="none" stroke="grey" stroke-width="2" d="M1762.84,-1761.99C1851.67,-1738.06 2008.29,-1695.86 2101.83,-1670.66"/>
<polygon fill="grey" stroke="grey" stroke-width="2" points="2102.77,-1674.03 2111.52,-1668.05 2100.95,-1667.27 2102.77,-1674.03"/>
</g>
<!-- 10 -->
<g id="node11" class="node"><title>10</title>
<path fill="none" stroke="#a7d856" stroke-width="2" stroke-dasharray="5,2" d="M1912,-1576C1912,-1576 1478,-1576 1478,-1576 1472,-1576 1466,-1570 1466,-1564 1466,-1564 1466,-1552 1466,-1552 1466,-1546 1472,-1540 1478,-1540 1478,-1540 1912,-1540 1912,-1540 1918,-1540 1924,-1546 1924,-1552 1924,-1552 1924,-1564 1924,-1564 1924,-1570 1918,-1576 1912,-1576"/>
<text text-anchor="middle" x="1695" y="-1555.5" font-family="sans" font-size="10.00">Scripts_MultiOmics_Proteomics_Aberrant_Expression_PROTRIDER_PROTRIDERSummary_R</text>
</g>
<!-- 10&#45;&gt;1 -->
<g id="edge10" class="edge"><title>10&#45;&gt;1</title>
<path fill="none" stroke="grey" stroke-width="2" d="M1924.03,-1556.88C2248.86,-1554.22 2809.51,-1545.25 2843,-1515 2915.99,-1449.07 2917.37,-1123.8 2916.06,-1025.31"/>
<polygon fill="grey" stroke="grey" stroke-width="2" points="2919.56,-1025.16 2915.91,-1015.21 2912.56,-1025.27 2919.56,-1025.16"/>
</g>
<!-- 11 -->
<g id="node12" class="node"><title>11</title>
<path fill="none" stroke="#56c9d8" stroke-width="2" stroke-dasharray="5,2" d="M2829,-1506C2829,-1506 2449,-1506 2449,-1506 2443,-1506 2437,-1500 2437,-1494 2437,-1494 2437,-1482 2437,-1482 2437,-1476 2443,-1470 2449,-1470 2449,-1470 2829,-1470 2829,-1470 2835,-1470 2841,-1476 2841,-1482 2841,-1482 2841,-1494 2841,-1494 2841,-1500 2835,-1506 2829,-1506"/>
<text text-anchor="middle" x="2639" y="-1485.5" font-family="sans" font-size="10.00">Scripts_MultiOmics_Proteomics_Protein_complexes_AE_complexes_Protrider_R</text>
</g>
<!-- 11&#45;&gt;1 -->
<g id="edge11" class="edge"><title>11&#45;&gt;1</title>
<path fill="none" stroke="grey" stroke-width="2" d="M2832.55,-1469.93C2836.2,-1467.2 2839.69,-1464.23 2843,-1461 2905.4,-1400 2914.14,-1116.62 2915.32,-1025.38"/>
<polygon fill="grey" stroke="grey" stroke-width="2" points="2918.83,-1025.27 2915.43,-1015.24 2911.83,-1025.2 2918.83,-1025.27"/>
</g>
<!-- 12 -->
<g id="node13" class="node"><title>12</title>
<path fill="none" stroke="#56d8c1" stroke-width="2" stroke-dasharray="5,2" d="M2823.5,-1598C2823.5,-1598 2454.5,-1598 2454.5,-1598 2448.5,-1598 2442.5,-1592 2442.5,-1586 2442.5,-1586 2442.5,-1574 2442.5,-1574 2442.5,-1568 2448.5,-1562 2454.5,-1562 2454.5,-1562 2823.5,-1562 2823.5,-1562 2829.5,-1562 2835.5,-1568 2835.5,-1574 2835.5,-1574 2835.5,-1586 2835.5,-1586 2835.5,-1592 2829.5,-1598 2823.5,-1598"/>
<text text-anchor="middle" x="2639" y="-1577.5" font-family="sans" font-size="10.00">Scripts_MultiOmics_Proteomics_Protein_complexes_AE_complexes_limma_R</text>
</g>
<!-- 12&#45;&gt;1 -->
<g id="edge12" class="edge"><title>12&#45;&gt;1</title>
<path fill="none" stroke="grey" stroke-width="2" d="M2826.34,-1561.88C2832.31,-1557.84 2837.89,-1553.24 2843,-1548 2916.27,-1472.84 2917.36,-1127.44 2916.04,-1025.44"/>
<polygon fill="grey" stroke="grey" stroke-width="2" points="2919.54,-1025.23 2915.89,-1015.28 2912.54,-1025.33 2919.54,-1025.23"/>
</g>
<!-- 13 -->
<g id="node14" class="node"><title>13</title>
<path fill="none" stroke="#8fd856" stroke-width="2" d="M1883.5,-886C1883.5,-886 1506.5,-886 1506.5,-886 1500.5,-886 1494.5,-880 1494.5,-874 1494.5,-874 1494.5,-862 1494.5,-862 1494.5,-856 1500.5,-850 1506.5,-850 1506.5,-850 1883.5,-850 1883.5,-850 1889.5,-850 1895.5,-856 1895.5,-862 1895.5,-862 1895.5,-874 1895.5,-874 1895.5,-880 1889.5,-886 1883.5,-886"/>
<text text-anchor="middle" x="1695" y="-865.5" font-family="sans" font-size="10.00">Scripts_MultiOmics_Proteomics_Protein_complexes_Interaction_with_outlier_R</text>
</g>
<!-- 13&#45;&gt;1 -->
<g id="edge13" class="edge"><title>13&#45;&gt;1</title>
<path fill="none" stroke="grey" stroke-width="2" d="M1895.58,-862.58C1906.02,-856.915 1915.63,-849.816 1924,-841 2007.42,-753.142 1871.55,-379.792 1960,-297 1995.82,-263.474 2807.84,-274.788 2843,-309 2895.72,-360.293 2844.11,-905.246 2879,-970 2879.95,-971.769 2881.08,-973.454 2882.33,-975.054"/>
<polygon fill="grey" stroke="grey" stroke-width="2" points="2879.97,-977.645 2889.47,-982.337 2884.97,-972.746 2879.97,-977.645"/>
</g>
<!-- 14&#45;&gt;1 -->
<g id="edge14" class="edge"><title>14&#45;&gt;1</title>
<path fill="none" stroke="grey" stroke-width="2" d="M2331.78,-1912.99C2515.97,-1915.07 2807.12,-1912.69 2843,-1878 2905.71,-1817.38 2914.22,-1169.72 2915.34,-1025.4"/>
<polygon fill="grey" stroke="grey" stroke-width="2" points="2918.84,-1025.19 2915.41,-1015.16 2911.84,-1025.14 2918.84,-1025.19"/>
</g>
<!-- 23 -->
<g id="node24" class="node"><title>23</title>
<path fill="none" stroke="#d87556" stroke-width="2" stroke-dasharray="5,2" d="M2719,-1966C2719,-1966 2559,-1966 2559,-1966 2553,-1966 2547,-1960 2547,-1954 2547,-1954 2547,-1942 2547,-1942 2547,-1936 2553,-1930 2559,-1930 2559,-1930 2719,-1930 2719,-1930 2725,-1930 2731,-1936 2731,-1942 2731,-1942 2731,-1954 2731,-1954 2731,-1960 2725,-1966 2719,-1966"/>
<text text-anchor="middle" x="2639" y="-1945.5" font-family="sans" font-size="10.00">Scripts_Paper_figures_Figure2_a_R</text>
</g>
<!-- 14&#45;&gt;23 -->
<g id="edge72" class="edge"><title>14&#45;&gt;23</title>
<path fill="none" stroke="grey" stroke-width="2" d="M2331.57,-1922.55C2398.86,-1928.14 2476.33,-1934.57 2536.54,-1939.57"/>
<polygon fill="grey" stroke="grey" stroke-width="2" points="2536.55,-1943.09 2546.81,-1940.43 2537.13,-1936.11 2536.55,-1943.09"/>
</g>
<!-- 15 -->
<g id="node16" class="node"><title>15</title>
<path fill="none" stroke="#56a9d8" stroke-width="2" stroke-dasharray="5,2" d="M1867,-1890C1867,-1890 1523,-1890 1523,-1890 1517,-1890 1511,-1884 1511,-1878 1511,-1878 1511,-1866 1511,-1866 1511,-1860 1517,-1854 1523,-1854 1523,-1854 1867,-1854 1867,-1854 1873,-1854 1879,-1860 1879,-1866 1879,-1866 1879,-1878 1879,-1878 1879,-1884 1873,-1890 1867,-1890"/>
<text text-anchor="middle" x="1695" y="-1869.5" font-family="sans" font-size="10.00">Scripts_MultiOmics_RNA_seq_Aberrant_Expression_OutriderSummary_R</text>
</g>
<!-- 15&#45;&gt;1 -->
<g id="edge15" class="edge"><title>15&#45;&gt;1</title>
<path fill="none" stroke="grey" stroke-width="2" d="M1879.16,-1873.19C2194.25,-1874.37 2808.61,-1872.45 2843,-1840 2903.52,-1782.88 2913.71,-1166.32 2915.25,-1025.52"/>
<polygon fill="grey" stroke="grey" stroke-width="2" points="2918.75,-1025.18 2915.35,-1015.15 2911.75,-1025.11 2918.75,-1025.18"/>
</g>
<!-- 16 -->
<g id="node17" class="node"><title>16</title>
<path fill="none" stroke="#88d856" stroke-width="2" stroke-dasharray="5,2" d="M1380,-1867C1380,-1867 1006,-1867 1006,-1867 1000,-1867 994,-1861 994,-1855 994,-1855 994,-1843 994,-1843 994,-1837 1000,-1831 1006,-1831 1006,-1831 1380,-1831 1380,-1831 1386,-1831 1392,-1837 1392,-1843 1392,-1843 1392,-1855 1392,-1855 1392,-1861 1386,-1867 1380,-1867"/>
<text text-anchor="middle" x="1193" y="-1846.5" font-family="sans" font-size="10.00">Scripts_MultiOmics_RNA_seq_Aberrant_Expression_detect_outliers_outrider_R</text>
</g>
<!-- 16&#45;&gt;1 -->
<g id="edge16" class="edge"><title>16&#45;&gt;1</title>
<path fill="none" stroke="grey" stroke-width="2" d="M1392.29,-1845.16C1827.7,-1836.51 2829.94,-1815.28 2843,-1803 2900.87,-1748.6 2913.07,-1161.44 2915.13,-1025.14"/>
<polygon fill="grey" stroke="grey" stroke-width="2" points="2918.63,-1025.13 2915.28,-1015.08 2911.63,-1025.03 2918.63,-1025.13"/>
</g>
<!-- 16&#45;&gt;7 -->
<g id="edge51" class="edge"><title>16&#45;&gt;7</title>
<path fill="none" stroke="grey" stroke-width="2" d="M1203.76,-1830.9C1265.74,-1716 1604.12,-1088.63 1679.23,-949.386"/>
<polygon fill="grey" stroke="grey" stroke-width="2" points="1682.51,-950.68 1684.17,-940.218 1676.35,-947.357 1682.51,-950.68"/>
</g>
<!-- 16&#45;&gt;15 -->
<g id="edge63" class="edge"><title>16&#45;&gt;15</title>
<path fill="none" stroke="grey" stroke-width="2" d="M1392.33,-1858.12C1428.09,-1859.77 1465.33,-1861.48 1500.94,-1863.12"/>
<polygon fill="grey" stroke="grey" stroke-width="2" points="1500.79,-1866.62 1510.94,-1863.58 1501.11,-1859.62 1500.79,-1866.62"/>
</g>
<!-- 17 -->
<g id="node18" class="node"><title>17</title>
<path fill="none" stroke="#56d8b9" stroke-width="2" stroke-dasharray="5,2" d="M1829.5,-1982C1829.5,-1982 1560.5,-1982 1560.5,-1982 1554.5,-1982 1548.5,-1976 1548.5,-1970 1548.5,-1970 1548.5,-1958 1548.5,-1958 1548.5,-1952 1554.5,-1946 1560.5,-1946 1560.5,-1946 1829.5,-1946 1829.5,-1946 1835.5,-1946 1841.5,-1952 1841.5,-1958 1841.5,-1958 1841.5,-1970 1841.5,-1970 1841.5,-1976 1835.5,-1982 1829.5,-1982"/>
<text text-anchor="middle" x="1695" y="-1961.5" font-family="sans" font-size="10.00">Scripts_MultiOmics_RNA_seq_disease_gene_coverage_R</text>
</g>
<!-- 16&#45;&gt;17 -->
<g id="edge66" class="edge"><title>16&#45;&gt;17</title>
<path fill="none" stroke="grey" stroke-width="2" d="M1272.4,-1867.03C1362.92,-1887.85 1511.43,-1922.01 1605.87,-1943.73"/>
<polygon fill="grey" stroke="grey" stroke-width="2" points="1605.16,-1947.16 1615.69,-1945.99 1606.73,-1940.34 1605.16,-1947.16"/>
</g>
<!-- 42 -->
<g id="node43" class="node"><title>42</title>
<path fill="none" stroke="#59d856" stroke-width="2" stroke-dasharray="5,2" d="M2740.5,-1760C2740.5,-1760 2537.5,-1760 2537.5,-1760 2531.5,-1760 2525.5,-1754 2525.5,-1748 2525.5,-1748 2525.5,-1736 2525.5,-1736 2525.5,-1730 2531.5,-1724 2537.5,-1724 2537.5,-1724 2740.5,-1724 2740.5,-1724 2746.5,-1724 2752.5,-1730 2752.5,-1736 2752.5,-1736 2752.5,-1748 2752.5,-1748 2752.5,-1754 2746.5,-1760 2740.5,-1760"/>
<text text-anchor="middle" x="2639" y="-1739.5" font-family="sans" font-size="10.00">Scripts_Supplementary_figures_S_Fig2_e_R</text>
</g>
<!-- 16&#45;&gt;42 -->
<g id="edge98" class="edge"><title>16&#45;&gt;42</title>
<path fill="none" stroke="grey" stroke-width="2" d="M1232.54,-1830.81C1284.28,-1807.48 1379.69,-1768.2 1466,-1753 1664.37,-1718.06 2256.87,-1730.58 2515.25,-1738.05"/>
<polygon fill="grey" stroke="grey" stroke-width="2" points="2515.33,-1741.56 2525.43,-1738.35 2515.54,-1734.56 2515.33,-1741.56"/>
</g>
<!-- 17&#45;&gt;1 -->
<g id="edge17" class="edge"><title>17&#45;&gt;1</title>
<path fill="none" stroke="grey" stroke-width="2" d="M1841.74,-1976.32C2134.3,-1999.49 2771.34,-2041.55 2843,-1975 2914.43,-1908.67 2916.08,-1178.4 2915.63,-1025.12"/>
<polygon fill="grey" stroke="grey" stroke-width="2" points="2919.13,-1025.09 2915.6,-1015.1 2912.13,-1025.11 2919.13,-1025.09"/>
</g>
<!-- 17&#45;&gt;23 -->
<g id="edge73" class="edge"><title>17&#45;&gt;23</title>
<path fill="none" stroke="grey" stroke-width="2" d="M1841.64,-1961.53C2034.46,-1958.25 2369.56,-1952.56 2536.88,-1949.72"/>
<polygon fill="grey" stroke="grey" stroke-width="2" points="2536.98,-1953.22 2546.92,-1949.55 2536.86,-1946.22 2536.98,-1953.22"/>
</g>
<!-- 18&#45;&gt;1 -->
<g id="edge18" class="edge"><title>18&#45;&gt;1</title>
<path fill="none" stroke="grey" stroke-width="2" d="M2336.62,-692.581C2369.14,-696.028 2403.19,-699.636 2435,-703 2525.66,-712.587 2776.81,-683.309 2843,-746 2916.21,-815.336 2826.59,-883.86 2879,-970 2879.93,-971.528 2880.98,-972.997 2882.13,-974.405"/>
<polygon fill="grey" stroke="grey" stroke-width="2" points="2879.96,-977.189 2889.5,-981.803 2884.92,-972.248 2879.96,-977.189"/>
</g>
<!-- 44 -->
<g id="node45" class="node"><title>44</title>
<path fill="none" stroke="#5682d8" stroke-width="2" stroke-dasharray="5,2" d="M2740.5,-694C2740.5,-694 2537.5,-694 2537.5,-694 2531.5,-694 2525.5,-688 2525.5,-682 2525.5,-682 2525.5,-670 2525.5,-670 2525.5,-664 2531.5,-658 2537.5,-658 2537.5,-658 2740.5,-658 2740.5,-658 2746.5,-658 2752.5,-664 2752.5,-670 2752.5,-670 2752.5,-682 2752.5,-682 2752.5,-688 2746.5,-694 2740.5,-694"/>
<text text-anchor="middle" x="2639" y="-673.5" font-family="sans" font-size="10.00">Scripts_Supplementary_figures_S_Fig2_g_R</text>
</g>
<!-- 18&#45;&gt;44 -->
<g id="edge101" class="edge"><title>18&#45;&gt;44</title>
<path fill="none" stroke="grey" stroke-width="2" d="M2336.67,-676C2395.03,-676 2460.43,-676 2515.34,-676"/>
<polygon fill="grey" stroke="grey" stroke-width="2" points="2515.47,-679.5 2525.47,-676 2515.47,-672.5 2515.47,-679.5"/>
</g>
<!-- 19&#45;&gt;1 -->
<g id="edge19" class="edge"><title>19&#45;&gt;1</title>
<path fill="none" stroke="grey" stroke-width="2" d="M2829.37,-637.369C2834.21,-640.819 2838.77,-644.683 2843,-649 2893.23,-700.275 2843.16,-907.807 2879,-970 2879.89,-971.549 2880.91,-973.036 2882.03,-974.459"/>
<polygon fill="grey" stroke="grey" stroke-width="2" points="2879.82,-977.206 2889.32,-981.907 2884.83,-972.311 2879.82,-977.206"/>
</g>
<!-- 20&#45;&gt;1 -->
<g id="edge20" class="edge"><title>20&#45;&gt;1</title>
<path fill="none" stroke="grey" stroke-width="2" d="M2303.24,-559.962C2366.56,-550.689 2431.4,-541.26 2435,-541 2525.43,-534.461 2776.26,-479.628 2843,-541 2913.42,-605.758 2832.4,-886.45 2879,-970 2879.87,-971.562 2880.87,-973.059 2881.98,-974.49"/>
<polygon fill="grey" stroke="grey" stroke-width="2" points="2879.75,-977.214 2889.22,-981.966 2884.78,-972.346 2879.75,-977.214"/>
</g>
<!-- 27 -->
<g id="node28" class="node"><title>27</title>
<path fill="none" stroke="#d85656" stroke-width="2" stroke-dasharray="5,2" d="M2719,-586C2719,-586 2559,-586 2559,-586 2553,-586 2547,-580 2547,-574 2547,-574 2547,-562 2547,-562 2547,-556 2553,-550 2559,-550 2559,-550 2719,-550 2719,-550 2725,-550 2731,-556 2731,-562 2731,-562 2731,-574 2731,-574 2731,-580 2725,-586 2719,-586"/>
<text text-anchor="middle" x="2639" y="-565.5" font-family="sans" font-size="10.00">Scripts_Paper_figures_Figure2_e_R</text>
</g>
<!-- 20&#45;&gt;27 -->
<g id="edge77" class="edge"><title>20&#45;&gt;27</title>
<path fill="none" stroke="grey" stroke-width="2" d="M2332.21,-574.684C2399.33,-573.217 2476.48,-571.531 2536.49,-570.219"/>
<polygon fill="grey" stroke="grey" stroke-width="2" points="2536.81,-573.713 2546.73,-569.995 2536.65,-566.714 2536.81,-573.713"/>
</g>
<!-- 21&#45;&gt;1 -->
<g id="edge21" class="edge"><title>21&#45;&gt;1</title>
<path fill="none" stroke="grey" stroke-width="2" d="M2824.54,-492.296C2831.22,-496.773 2837.43,-501.974 2843,-508 2912.9,-583.621 2829.1,-879.918 2879,-970 2879.87,-971.564 2880.87,-973.063 2881.97,-974.497"/>
<polygon fill="grey" stroke="grey" stroke-width="2" points="2879.73,-977.216 2889.19,-981.979 2884.76,-972.354 2879.73,-977.216"/>
</g>
<!-- 22&#45;&gt;1 -->
<g id="edge22" class="edge"><title>22&#45;&gt;1</title>
<path fill="none" stroke="grey" stroke-width="2" d="M2266.2,-1291.24C2424.81,-1306.43 2755.95,-1328.61 2843,-1260 2880.11,-1230.75 2903.41,-1087.34 2911.89,-1025.48"/>
<polygon fill="grey" stroke="grey" stroke-width="2" points="2915.4,-1025.64 2913.26,-1015.27 2908.46,-1024.72 2915.4,-1025.64"/>
</g>
<!-- 23&#45;&gt;1 -->
<g id="edge23" class="edge"><title>23&#45;&gt;1</title>
<path fill="none" stroke="grey" stroke-width="2" d="M2731.03,-1957C2770.96,-1955.72 2815.01,-1946.25 2843,-1916 2904.97,-1849.03 2914.06,-1172.13 2915.31,-1025.09"/>
<polygon fill="grey" stroke="grey" stroke-width="2" points="2918.81,-1025.09 2915.39,-1015.06 2911.81,-1025.04 2918.81,-1025.09"/>
</g>
<!-- 24&#45;&gt;1 -->
<g id="edge24" class="edge"><title>24&#45;&gt;1</title>
<path fill="none" stroke="grey" stroke-width="2" d="M2271.61,-477.787C2311,-473.453 2357.49,-467.283 2399,-459 2415.28,-455.751 2418.55,-451.243 2435,-449 2524.84,-436.755 2776.72,-387.138 2843,-449 2927.84,-528.184 2823.21,-868.234 2879,-970 2879.86,-971.568 2880.85,-973.07 2881.95,-974.506"/>
<polygon fill="grey" stroke="grey" stroke-width="2" points="2879.7,-977.218 2889.16,-981.997 2884.75,-972.364 2879.7,-977.218"/>
</g>
<!-- 25&#45;&gt;1 -->
<g id="edge25" class="edge"><title>25&#45;&gt;1</title>
<path fill="none" stroke="grey" stroke-width="2" d="M2271.09,-422.777C2442.82,-406.279 2802.29,-376.841 2843,-415 2888.09,-457.259 2849.41,-915.749 2879,-970 2879.86,-971.57 2880.85,-973.074 2881.94,-974.511"/>
<polygon fill="grey" stroke="grey" stroke-width="2" points="2879.69,-977.219 2889.14,-982.006 2884.74,-972.37 2879.69,-977.219"/>
</g>
<!-- 26&#45;&gt;1 -->
<g id="edge26" class="edge"><title>26&#45;&gt;1</title>
<path fill="none" stroke="grey" stroke-width="2" d="M2271.62,-365.685C2433.99,-345.989 2763.78,-316.867 2843,-393 2889.31,-437.512 2848.31,-913.57 2879,-970 2879.85,-971.571 2880.84,-973.076 2881.94,-974.513"/>
<polygon fill="grey" stroke="grey" stroke-width="2" points="2879.68,-977.22 2889.13,-982.011 2884.73,-972.373 2879.68,-977.22"/>
</g>
<!-- 27&#45;&gt;1 -->
<g id="edge27" class="edge"><title>27&#45;&gt;1</title>
<path fill="none" stroke="grey" stroke-width="2" d="M2731.08,-556.762C2770.77,-557.128 2814.62,-565.566 2843,-595 2901.11,-655.268 2837.78,-897.134 2879,-970 2879.88,-971.556 2880.89,-973.049 2882,-974.477"/>
<polygon fill="grey" stroke="grey" stroke-width="2" points="2879.78,-977.211 2889.26,-981.941 2884.8,-972.331 2879.78,-977.211"/>
</g>
<!-- 28&#45;&gt;1 -->
<g id="edge28" class="edge"><title>28&#45;&gt;1</title>
<path fill="none" stroke="grey" stroke-width="2" d="M2730.21,-981.531C2780.99,-985.77 2841.59,-990.83 2879.32,-993.979"/>
<polygon fill="grey" stroke="grey" stroke-width="2" points="2879.07,-997.471 2889.33,-994.815 2879.65,-990.495 2879.07,-997.471"/>
</g>
<!-- 29&#45;&gt;1 -->
<g id="edge29" class="edge"><title>29&#45;&gt;1</title>
<path fill="none" stroke="grey" stroke-width="2" d="M2731.19,-922.983C2766.99,-926.483 2807.84,-933.443 2843,-947 2847.54,-948.749 2865.46,-961.102 2882.35,-973.09"/>
<polygon fill="grey" stroke="grey" stroke-width="2" points="2880.32,-975.942 2890.5,-978.898 2884.39,-970.243 2880.32,-975.942"/>
</g>
<!-- 30&#45;&gt;1 -->
<g id="edge30" class="edge"><title>30&#45;&gt;1</title>
<path fill="none" stroke="grey" stroke-width="2" d="M2731.09,-1180.08C2768.81,-1178.25 2811.1,-1170.08 2843,-1147 2883.45,-1117.73 2902.32,-1059.72 2910.31,-1025.04"/>
<polygon fill="grey" stroke="grey" stroke-width="2" points="2913.77,-1025.6 2912.46,-1015.09 2906.93,-1024.13 2913.77,-1025.6"/>
</g>
<!-- 31&#45;&gt;1 -->
<g id="edge31" class="edge"><title>31&#45;&gt;1</title>
<path fill="none" stroke="grey" stroke-width="2" d="M2271.53,-319.519C2443.58,-312.003 2802.93,-301.224 2843,-340 2893.39,-388.755 2845.66,-908.318 2879,-970 2879.96,-971.768 2881.08,-973.452 2882.34,-975.051"/>
<polygon fill="grey" stroke="grey" stroke-width="2" points="2879.98,-977.644 2889.48,-982.332 2884.98,-972.742 2879.98,-977.644"/>
</g>
<!-- 32&#45;&gt;1 -->
<g id="edge32" class="edge"><title>32&#45;&gt;1</title>
<path fill="none" stroke="grey" stroke-width="2" d="M2730.56,-1444.18C2769.9,-1443.53 2813.61,-1435.16 2843,-1407 2898.13,-1354.18 2911.64,-1109.37 2914.68,-1025.37"/>
<polygon fill="grey" stroke="grey" stroke-width="2" points="2918.18,-1025.4 2915.02,-1015.29 2911.19,-1025.16 2918.18,-1025.4"/>
</g>
<!-- 33&#45;&gt;1 -->
<g id="edge33" class="edge"><title>33&#45;&gt;1</title>
<path fill="none" stroke="grey" stroke-width="2" d="M2271.56,-1343.45C2432.63,-1354.6 2758.74,-1367.43 2843,-1297 2884.85,-1262.02 2905.99,-1092.91 2912.89,-1025.16"/>
<polygon fill="grey" stroke="grey" stroke-width="2" points="2916.38,-1025.49 2913.88,-1015.19 2909.41,-1024.8 2916.38,-1025.49"/>
</g>
<!-- 34&#45;&gt;1 -->
<g id="edge34" class="edge"><title>34&#45;&gt;1</title>
<path fill="none" stroke="grey" stroke-width="2" d="M2266.09,-1239.94C2424.14,-1260.08 2753.77,-1292.53 2843,-1227 2907.29,-1179.78 2916.04,-1075.46 2916.31,-1025.18"/>
<polygon fill="grey" stroke="grey" stroke-width="2" points="2919.81,-1025.01 2916.26,-1015.03 2912.81,-1025.05 2919.81,-1025.01"/>
</g>
<!-- 35&#45;&gt;1 -->
<g id="edge35" class="edge"><title>35&#45;&gt;1</title>
<path fill="none" stroke="grey" stroke-width="2" d="M2754.72,-1120.48C2785.01,-1116.51 2816.59,-1108.41 2843,-1093 2870.15,-1077.16 2890.44,-1046.77 2902.54,-1024.4"/>
<polygon fill="grey" stroke="grey" stroke-width="2" points="2905.73,-1025.87 2907.23,-1015.38 2899.51,-1022.64 2905.73,-1025.87"/>
</g>
<!-- 36&#45;&gt;1 -->
<g id="edge36" class="edge"><title>36&#45;&gt;1</title>
<path fill="none" stroke="grey" stroke-width="2" d="M2781.68,-1049.55C2802.5,-1045.44 2823.49,-1040.34 2843,-1034 2855.62,-1029.9 2868.74,-1023.83 2880.29,-1017.79"/>
<polygon fill="grey" stroke="grey" stroke-width="2" points="2882.04,-1020.82 2889.17,-1012.98 2878.71,-1014.66 2882.04,-1020.82"/>
</g>
<!-- 37&#45;&gt;1 -->
<g id="edge37" class="edge"><title>37&#45;&gt;1</title>
<path fill="none" stroke="grey" stroke-width="2" d="M2297.17,-1188.99C2340.39,-1193.86 2389.85,-1198.61 2435,-1201 2525.54,-1205.79 2768.93,-1253.29 2843,-1201 2900.14,-1160.67 2912.52,-1071.18 2915.02,-1025.31"/>
<polygon fill="grey" stroke="grey" stroke-width="2" points="2918.52,-1025.31 2915.45,-1015.17 2911.53,-1025.01 2918.52,-1025.31"/>
</g>
<!-- 38 -->
<g id="node39" class="node"><title>38</title>
<path fill="none" stroke="#d88d56" stroke-width="2" stroke-dasharray="5,2" d="M2740.5,-90C2740.5,-90 2537.5,-90 2537.5,-90 2531.5,-90 2525.5,-84 2525.5,-78 2525.5,-78 2525.5,-66 2525.5,-66 2525.5,-60 2531.5,-54 2537.5,-54 2537.5,-54 2740.5,-54 2740.5,-54 2746.5,-54 2752.5,-60 2752.5,-66 2752.5,-66 2752.5,-78 2752.5,-78 2752.5,-84 2746.5,-90 2740.5,-90"/>
<text text-anchor="middle" x="2639" y="-69.5" font-family="sans" font-size="10.00">Scripts_Supplementary_figures_S_Fig2_a_R</text>
</g>
<!-- 38&#45;&gt;1 -->
<g id="edge38" class="edge"><title>38&#45;&gt;1</title>
<path fill="none" stroke="grey" stroke-width="2" d="M2752.59,-63.9689C2786.32,-67.6529 2820.33,-78.5644 2843,-104 2907.08,-175.893 2833.87,-884.924 2879,-970 2879.94,-971.776 2881.06,-973.465 2882.31,-975.069"/>
<polygon fill="grey" stroke="grey" stroke-width="2" points="2879.93,-977.65 2889.42,-982.364 2884.94,-972.762 2879.93,-977.65"/>
</g>
<!-- 39 -->
<g id="node40" class="node"><title>39</title>
<path fill="none" stroke="#56a2d8" stroke-width="2" stroke-dasharray="5,2" d="M1294.5,-2037C1294.5,-2037 1091.5,-2037 1091.5,-2037 1085.5,-2037 1079.5,-2031 1079.5,-2025 1079.5,-2025 1079.5,-2013 1079.5,-2013 1079.5,-2007 1085.5,-2001 1091.5,-2001 1091.5,-2001 1294.5,-2001 1294.5,-2001 1300.5,-2001 1306.5,-2007 1306.5,-2013 1306.5,-2013 1306.5,-2025 1306.5,-2025 1306.5,-2031 1300.5,-2037 1294.5,-2037"/>
<text text-anchor="middle" x="1193" y="-2016.5" font-family="sans" font-size="10.00">Scripts_Supplementary_figures_S_Fig2_b_R</text>
</g>
<!-- 39&#45;&gt;1 -->
<g id="edge39" class="edge"><title>39&#45;&gt;1</title>
<path fill="none" stroke="grey" stroke-width="2" d="M1306.77,-2036.86C1641.98,-2087.17 2622.68,-2213.39 2843,-2006 2916.29,-1937.01 2916.46,-1182.44 2915.69,-1025.49"/>
<polygon fill="grey" stroke="grey" stroke-width="2" points="2919.19,-1025.22 2915.64,-1015.24 2912.19,-1025.26 2919.19,-1025.22"/>
</g>
<!-- 40&#45;&gt;1 -->
<g id="edge40" class="edge"><title>40&#45;&gt;1</title>
<path fill="none" stroke="grey" stroke-width="2" d="M2292.61,-865.067C2457.51,-851.258 2755.4,-835.661 2843,-893 2874.61,-913.689 2855.08,-940.759 2879,-970 2879.94,-971.144 2880.93,-972.265 2881.97,-973.361"/>
<polygon fill="grey" stroke="grey" stroke-width="2" points="2879.63,-975.962 2889.34,-980.192 2884.39,-970.827 2879.63,-975.962"/>
</g>
<!-- 41&#45;&gt;1 -->
<g id="edge41" class="edge"><title>41&#45;&gt;1</title>
<path fill="none" stroke="grey" stroke-width="2" d="M2752.63,-1385.49C2785.45,-1381.44 2818.92,-1370.96 2843,-1348 2889.67,-1303.49 2908.3,-1100.9 2913.69,-1025.44"/>
<polygon fill="grey" stroke="grey" stroke-width="2" points="2917.2,-1025.48 2914.4,-1015.26 2910.22,-1024.99 2917.2,-1025.48"/>
</g>
<!-- 42&#45;&gt;1 -->
<g id="edge42" class="edge"><title>42&#45;&gt;1</title>
<path fill="none" stroke="grey" stroke-width="2" d="M2752.52,-1752.13C2785.84,-1749.12 2819.62,-1739.13 2843,-1715 2891.87,-1664.56 2910.75,-1151.7 2914.68,-1025.12"/>
<polygon fill="grey" stroke="grey" stroke-width="2" points="2918.18,-1025.16 2914.99,-1015.06 2911.19,-1024.95 2918.18,-1025.16"/>
</g>
<!-- 43 -->
<g id="node44" class="node"><title>43</title>
<path fill="none" stroke="#70d856" stroke-width="2" stroke-dasharray="5,2" d="M2739,-36C2739,-36 2539,-36 2539,-36 2533,-36 2527,-30 2527,-24 2527,-24 2527,-12 2527,-12 2527,-6 2533,-0 2539,-0 2539,-0 2739,-0 2739,-0 2745,-0 2751,-6 2751,-12 2751,-12 2751,-24 2751,-24 2751,-30 2745,-36 2739,-36"/>
<text text-anchor="middle" x="2639" y="-15.5" font-family="sans" font-size="10.00">Scripts_Supplementary_figures_S_Fig2_f_R</text>
</g>
<!-- 43&#45;&gt;1 -->
<g id="edge43" class="edge"><title>43&#45;&gt;1</title>
<path fill="none" stroke="grey" stroke-width="2" d="M2751.04,-6.82223C2785.19,-9.50364 2819.84,-19.5689 2843,-45 2912.26,-121.043 2830.92,-879.074 2879,-970 2879.94,-971.777 2881.05,-973.468 2882.3,-975.072"/>
<polygon fill="grey" stroke="grey" stroke-width="2" points="2879.93,-977.651 2889.41,-982.369 2884.94,-972.765 2879.93,-977.651"/>
</g>
<!-- 44&#45;&gt;1 -->
<g id="edge44" class="edge"><title>44&#45;&gt;1</title>
<path fill="none" stroke="grey" stroke-width="2" d="M2752.52,-669.424C2785.74,-673.319 2819.46,-683.988 2843,-708 2925.29,-791.931 2819.05,-868.899 2879,-970 2879.91,-971.538 2880.95,-973.016 2882.08,-974.431"/>
<polygon fill="grey" stroke="grey" stroke-width="2" points="2879.89,-977.198 2889.41,-981.853 2884.88,-972.279 2879.89,-977.198"/>
</g>
<!-- 45&#45;&gt;1 -->
<g id="edge45" class="edge"><title>45&#45;&gt;1</title>
<path fill="none" stroke="grey" stroke-width="2" d="M2287.21,-819.843C2463.46,-817.257 2800.31,-816.815 2843,-850 2886.96,-884.174 2846.98,-924.446 2879,-970 2879.88,-971.249 2880.83,-972.464 2881.85,-973.643"/>
<polygon fill="grey" stroke="grey" stroke-width="2" points="2879.63,-976.375 2889.23,-980.872 2884.53,-971.374 2879.63,-976.375"/>
</g>
<!-- 46&#45;&gt;1 -->
<g id="edge46" class="edge"><title>46&#45;&gt;1</title>
<path fill="none" stroke="grey" stroke-width="2" d="M2287.18,-772.277C2469.19,-780.032 2822.23,-797.265 2843,-815 2896.78,-860.922 2840.18,-910.884 2879,-970 2879.95,-971.449 2881.01,-972.849 2882.15,-974.197"/>
<polygon fill="grey" stroke="grey" stroke-width="2" points="2879.8,-976.798 2889.38,-981.334 2884.72,-971.817 2879.8,-976.798"/>
</g>
<!-- 47 -->
<g id="node48" class="node"><title>47</title>
<path fill="none" stroke="#d8cb56" stroke-width="2" stroke-dasharray="5,2" d="M2734.5,-1652C2734.5,-1652 2543.5,-1652 2543.5,-1652 2537.5,-1652 2531.5,-1646 2531.5,-1640 2531.5,-1640 2531.5,-1628 2531.5,-1628 2531.5,-1622 2537.5,-1616 2543.5,-1616 2543.5,-1616 2734.5,-1616 2734.5,-1616 2740.5,-1616 2746.5,-1622 2746.5,-1628 2746.5,-1628 2746.5,-1640 2746.5,-1640 2746.5,-1646 2740.5,-1652 2734.5,-1652"/>
<text text-anchor="middle" x="2639" y="-1631.5" font-family="sans" font-size="10.00">Scripts_Supplementary_figures_S_Fig5_R</text>
</g>
<!-- 47&#45;&gt;1 -->
<g id="edge47" class="edge"><title>47&#45;&gt;1</title>
<path fill="none" stroke="grey" stroke-width="2" d="M2746.73,-1644.32C2781.78,-1641.92 2818.1,-1632.25 2843,-1607 2884.44,-1564.98 2908.42,-1139.54 2914.15,-1025.18"/>
<polygon fill="grey" stroke="grey" stroke-width="2" points="2917.65,-1025.26 2914.65,-1015.1 2910.66,-1024.92 2917.65,-1025.26"/>
</g>
<!-- 48 -->
<g id="node49" class="node"><title>48</title>
<path fill="none" stroke="#d89c56" stroke-width="2" stroke-dasharray="5,2" d="M1799.5,-832C1799.5,-832 1590.5,-832 1590.5,-832 1584.5,-832 1578.5,-826 1578.5,-820 1578.5,-820 1578.5,-808 1578.5,-808 1578.5,-802 1584.5,-796 1590.5,-796 1590.5,-796 1799.5,-796 1799.5,-796 1805.5,-796 1811.5,-802 1811.5,-808 1811.5,-808 1811.5,-820 1811.5,-820 1811.5,-826 1805.5,-832 1799.5,-832"/>
<text text-anchor="middle" x="1695" y="-811.5" font-family="sans" font-size="10.00">Scripts_Supplementary_figures_S_Fig5_ab_R</text>
</g>
<!-- 48&#45;&gt;1 -->
<g id="edge48" class="edge"><title>48&#45;&gt;1</title>
<path fill="none" stroke="grey" stroke-width="2" d="M1698.14,-795.773C1708.6,-716.063 1762.12,-396.62 1960,-273 2043.21,-221.017 2772.01,-207.283 2843,-275 2898.95,-328.371 2842.42,-901.876 2879,-970 2879.95,-971.771 2881.07,-973.457 2882.33,-975.057"/>
<polygon fill="grey" stroke="grey" stroke-width="2" points="2879.96,-977.646 2889.46,-982.343 2884.97,-972.749 2879.96,-977.646"/>
</g>
<!-- 49 -->
<g id="node50" class="node"><title>49</title>
<path fill="none" stroke="#d89556" stroke-width="2" stroke-dasharray="5,2" d="M1418,-1235C1418,-1235 968,-1235 968,-1235 962,-1235 956,-1229 956,-1223 956,-1223 956,-1211 956,-1211 956,-1205 962,-1199 968,-1199 968,-1199 1418,-1199 1418,-1199 1424,-1199 1430,-1205 1430,-1211 1430,-1211 1430,-1223 1430,-1223 1430,-1229 1424,-1235 1418,-1235"/>
<text text-anchor="middle" x="1193" y="-1214.5" font-family="sans" font-size="10.00">Scripts_MultiOmics_Proteomics_Aberrant_Expression_PROTRIDER_detect_outliers_protrider_R</text>
</g>
<!-- 49&#45;&gt;7 -->
<g id="edge52" class="edge"><title>49&#45;&gt;7</title>
<path fill="none" stroke="grey" stroke-width="2" d="M1224.52,-1198.99C1311,-1147.97 1557.6,-1002.48 1654.35,-945.391"/>
<polygon fill="grey" stroke="grey" stroke-width="2" points="1656.41,-948.245 1663.24,-940.149 1652.85,-942.216 1656.41,-948.245"/>
</g>
<!-- 49&#45;&gt;10 -->
<g id="edge55" class="edge"><title>49&#45;&gt;10</title>
<path fill="none" stroke="grey" stroke-width="2" d="M1203.74,-1235.26C1234.08,-1290.16 1332.93,-1454.3 1466,-1526 1473.13,-1529.84 1480.56,-1533.28 1488.2,-1536.34"/>
<polygon fill="grey" stroke="grey" stroke-width="2" points="1487.02,-1539.64 1497.61,-1539.9 1489.49,-1533.09 1487.02,-1539.64"/>
</g>
<!-- 49&#45;&gt;11 -->
<g id="edge56" class="edge"><title>49&#45;&gt;11</title>
<path fill="none" stroke="grey" stroke-width="2" d="M1229.83,-1235.02C1337.12,-1287.83 1666.54,-1441.74 1960,-1493 2152.2,-1526.57 2203.9,-1495.04 2399,-1493 2408.07,-1492.91 2417.33,-1492.79 2426.68,-1492.66"/>
<polygon fill="grey" stroke="grey" stroke-width="2" points="2426.92,-1496.16 2436.86,-1492.51 2426.81,-1489.16 2426.92,-1496.16"/>
</g>
<!-- 49&#45;&gt;13 -->
<g id="edge60" class="edge"><title>49&#45;&gt;13</title>
<path fill="none" stroke="grey" stroke-width="2" d="M1221.88,-1198.82C1270.86,-1165.5 1372.6,-1089.96 1430,-1002 1457.42,-959.982 1427.05,-926.63 1466,-895 1472.01,-890.12 1478.42,-885.825 1485.13,-882.054"/>
<polygon fill="grey" stroke="grey" stroke-width="2" points="1487.19,-884.93 1494.47,-877.231 1483.98,-878.711 1487.19,-884.93"/>
</g>
<!-- 49&#45;&gt;42 -->
<g id="edge99" class="edge"><title>49&#45;&gt;42</title>
<path fill="none" stroke="grey" stroke-width="2" d="M1200.2,-1235.36C1223.24,-1300.45 1310.68,-1521.27 1466,-1616 1510.41,-1643.08 2223.69,-1706.64 2515.26,-1731.64"/>
<polygon fill="grey" stroke="grey" stroke-width="2" points="2515.19,-1735.14 2525.45,-1732.51 2515.79,-1728.17 2515.19,-1735.14"/>
</g>
<!-- 49&#45;&gt;47 -->
<g id="edge104" class="edge"><title>49&#45;&gt;47</title>
<path fill="none" stroke="grey" stroke-width="2" d="M1200.74,-1235.26C1224.98,-1297.9 1314.39,-1504.62 1466,-1585 1557.67,-1633.6 2295.34,-1618.5 2399,-1623 2438.71,-1624.72 2482.13,-1626.69 2520.94,-1628.49"/>
<polygon fill="grey" stroke="grey" stroke-width="2" points="2521.08,-1632 2531.23,-1628.96 2521.4,-1625.01 2521.08,-1632"/>
</g>
<!-- 49&#45;&gt;48 -->
<g id="edge107" class="edge"><title>49&#45;&gt;48</title>
<path fill="none" stroke="grey" stroke-width="2" d="M1223.63,-1198.89C1274.39,-1166.22 1377.55,-1092.36 1430,-1002 1466.81,-938.587 1411.57,-890.133 1466,-841 1493.52,-816.158 1531.13,-805.803 1567.88,-802.687"/>
<polygon fill="grey" stroke="grey" stroke-width="2" points="1568.47,-806.155 1578.21,-801.994 1568,-799.171 1568.47,-806.155"/>
</g>
<!-- 50&#45;&gt;8 -->
<g id="edge54" class="edge"><title>50&#45;&gt;8</title>
<path fill="none" stroke="grey" stroke-width="2" d="M2397.53,-1668.03C2406.58,-1668.78 2415.66,-1669.53 2424.7,-1670.28"/>
<polygon fill="grey" stroke="grey" stroke-width="2" points="2424.64,-1673.79 2434.9,-1671.13 2425.22,-1666.81 2424.64,-1673.79"/>
</g>
<!-- 50&#45;&gt;12 -->
<g id="edge58" class="edge"><title>50&#45;&gt;12</title>
<path fill="none" stroke="grey" stroke-width="2" d="M2282.23,-1631.97C2328.74,-1623.94 2384.6,-1614.61 2435,-1607 2451.9,-1604.45 2469.61,-1601.9 2487.23,-1599.45"/>
<polygon fill="grey" stroke="grey" stroke-width="2" points="2488.16,-1602.86 2497.58,-1598.02 2487.2,-1595.92 2488.16,-1602.86"/>
</g>
<!-- 50&#45;&gt;42 -->
<g id="edge100" class="edge"><title>50&#45;&gt;42</title>
<path fill="none" stroke="grey" stroke-width="2" d="M2362.47,-1668.01C2375.09,-1671.87 2387.4,-1676.49 2399,-1682 2418.6,-1691.32 2415.34,-1705.81 2435,-1715 2459.74,-1726.56 2487.92,-1733.61 2515.23,-1737.83"/>
<polygon fill="grey" stroke="grey" stroke-width="2" points="2514.85,-1741.31 2525.25,-1739.25 2515.84,-1734.38 2514.85,-1741.31"/>
</g>
<!-- 50&#45;&gt;47 -->
<g id="edge105" class="edge"><title>50&#45;&gt;47</title>
<path fill="none" stroke="grey" stroke-width="2" d="M2399.2,-1642.35C2441.2,-1640.88 2483.65,-1639.4 2520.88,-1638.1"/>
<polygon fill="grey" stroke="grey" stroke-width="2" points="2521.36,-1641.58 2531.23,-1637.73 2521.12,-1634.59 2521.36,-1641.58"/>
</g>
<!-- 51 -->
<g id="node52" class="node"><title>51</title>
<path fill="none" stroke="#5692d8" stroke-width="2" stroke-dasharray="5,2" d="M2368,-1484C2368,-1484 1991,-1484 1991,-1484 1985,-1484 1979,-1478 1979,-1472 1979,-1472 1979,-1460 1979,-1460 1979,-1454 1985,-1448 1991,-1448 1991,-1448 2368,-1448 2368,-1448 2374,-1448 2380,-1454 2380,-1460 2380,-1460 2380,-1472 2380,-1472 2380,-1478 2374,-1484 2368,-1484"/>
<text text-anchor="middle" x="2179.5" y="-1463.5" font-family="sans" font-size="10.00">Scripts_MultiOmics_Proteomics_Protein_complexes_get_CORUM_complexes_R</text>
</g>
<!-- 51&#45;&gt;11 -->
<g id="edge57" class="edge"><title>51&#45;&gt;11</title>
<path fill="none" stroke="grey" stroke-width="2" d="M2380.17,-1475.6C2395.56,-1476.34 2411.14,-1477.09 2426.61,-1477.83"/>
<polygon fill="grey" stroke="grey" stroke-width="2" points="2426.6,-1481.34 2436.75,-1478.32 2426.93,-1474.35 2426.6,-1481.34"/>
</g>
<!-- 51&#45;&gt;12 -->
<g id="edge59" class="edge"><title>51&#45;&gt;12</title>
<path fill="none" stroke="grey" stroke-width="2" d="M2252.74,-1484C2335.17,-1504.54 2469.7,-1538.06 2556,-1559.57"/>
<polygon fill="grey" stroke="grey" stroke-width="2" points="2555.21,-1562.98 2565.76,-1562 2556.91,-1556.19 2555.21,-1562.98"/>
</g>
<!-- 51&#45;&gt;32 -->
<g id="edge86" class="edge"><title>51&#45;&gt;32</title>
<path fill="none" stroke="grey" stroke-width="2" d="M2380.17,-1452.03C2434.53,-1448.23 2491.12,-1444.27 2537.38,-1441.04"/>
<polygon fill="grey" stroke="grey" stroke-width="2" points="2537.66,-1444.53 2547.4,-1440.34 2537.18,-1437.54 2537.66,-1444.53"/>
</g>
<!-- 51&#45;&gt;41 -->
<g id="edge97" class="edge"><title>51&#45;&gt;41</title>
<path fill="none" stroke="grey" stroke-width="2" d="M2250.07,-1447.98C2301.02,-1435.24 2371.97,-1418.47 2435,-1407 2460.9,-1402.29 2488.8,-1398.04 2515.37,-1394.39"/>
<polygon fill="grey" stroke="grey" stroke-width="2" points="2516.05,-1397.83 2525.49,-1393.02 2515.11,-1390.89 2516.05,-1397.83"/>
</g>
<!-- 52 -->
<g id="node53" class="node"><title>52</title>
<path fill="none" stroke="#c6d856" stroke-width="2" stroke-dasharray="5,2" d="M829.5,-1957C829.5,-1957 560.5,-1957 560.5,-1957 554.5,-1957 548.5,-1951 548.5,-1945 548.5,-1945 548.5,-1933 548.5,-1933 548.5,-1927 554.5,-1921 560.5,-1921 560.5,-1921 829.5,-1921 829.5,-1921 835.5,-1921 841.5,-1927 841.5,-1933 841.5,-1933 841.5,-1945 841.5,-1945 841.5,-1951 835.5,-1957 829.5,-1957"/>
<text text-anchor="middle" x="695" y="-1936.5" font-family="sans" font-size="10.00">Scripts_MultiOmics_RNA_seq_create_gene_annotation_R</text>
</g>
<!-- 52&#45;&gt;14 -->
<g id="edge61" class="edge"><title>52&#45;&gt;14</title>
<path fill="none" stroke="grey" stroke-width="2" d="M841.526,-1936.15C1120.1,-1930.7 1726.79,-1918.84 2017.24,-1913.15"/>
<polygon fill="grey" stroke="grey" stroke-width="2" points="2017.51,-1916.65 2027.44,-1912.95 2017.37,-1909.65 2017.51,-1916.65"/>
</g>
<!-- 52&#45;&gt;16 -->
<g id="edge64" class="edge"><title>52&#45;&gt;16</title>
<path fill="none" stroke="grey" stroke-width="2" d="M795.478,-1920.95C878.583,-1905.87 996.915,-1884.4 1082.66,-1868.84"/>
<polygon fill="grey" stroke="grey" stroke-width="2" points="1083.47,-1872.25 1092.69,-1867.02 1082.22,-1865.36 1083.47,-1872.25"/>
</g>
<!-- 52&#45;&gt;17 -->
<g id="edge65" class="edge"><title>52&#45;&gt;17</title>
<path fill="none" stroke="grey" stroke-width="2" d="M841.652,-1942.65C1027.55,-1947.31 1347.81,-1955.33 1538.37,-1960.1"/>
<polygon fill="grey" stroke="grey" stroke-width="2" points="1538.39,-1963.6 1548.47,-1960.35 1538.56,-1956.61 1538.39,-1963.6"/>
</g>
<!-- 52&#45;&gt;39 -->
<g id="edge94" class="edge"><title>52&#45;&gt;39</title>
<path fill="none" stroke="grey" stroke-width="2" d="M807.621,-1957C885.698,-1969.6 989.949,-1986.41 1070.18,-1999.35"/>
<polygon fill="grey" stroke="grey" stroke-width="2" points="1069.91,-2002.85 1080.34,-2000.99 1071.02,-1995.94 1069.91,-2002.85"/>
</g>
<!-- 53 -->
<g id="node54" class="node"><title>53</title>
<path fill="none" stroke="#56d88a" stroke-width="2" stroke-dasharray="5,2" d="M908,-1060C908,-1060 482,-1060 482,-1060 476,-1060 470,-1054 470,-1048 470,-1048 470,-1036 470,-1036 470,-1030 476,-1024 482,-1024 482,-1024 908,-1024 908,-1024 914,-1024 920,-1030 920,-1036 920,-1036 920,-1048 920,-1048 920,-1054 914,-1060 908,-1060"/>
<text text-anchor="middle" x="695" y="-1039.5" font-family="sans" font-size="10.00">Scripts_MultiOmics_Proteomics_Aberrant_Expression_PROTRIDER_protrider_data_prep_R</text>
</g>
<!-- 53&#45;&gt;48 -->
<g id="edge106" class="edge"><title>53&#45;&gt;48</title>
<path fill="none" stroke="grey" stroke-width="2" d="M753.82,-1023.98C881.202,-984.937 1196.17,-891.944 1466,-841 1498.92,-834.784 1534.81,-829.739 1568.16,-825.767"/>
<polygon fill="grey" stroke="grey" stroke-width="2" points="1568.89,-829.205 1578.42,-824.568 1568.08,-822.252 1568.89,-829.205"/>
</g>
<!-- 53&#45;&gt;49 -->
<g id="edge108" class="edge"><title>53&#45;&gt;49</title>
<path fill="none" stroke="grey" stroke-width="2" d="M747.213,-1060.07C839.315,-1092.56 1032.48,-1160.72 1131.16,-1195.53"/>
<polygon fill="grey" stroke="grey" stroke-width="2" points="1130.1,-1198.87 1140.7,-1198.9 1132.43,-1192.27 1130.1,-1198.87"/>
</g>
<!-- 54 -->
<g id="node55" class="node"><title>54</title>
<path fill="none" stroke="#56d89a" stroke-width="2" stroke-dasharray="5,2" d="M422,-1060C422,-1060 12,-1060 12,-1060 6,-1060 0,-1054 0,-1048 0,-1048 0,-1036 0,-1036 0,-1030 6,-1024 12,-1024 12,-1024 422,-1024 422,-1024 428,-1024 434,-1030 434,-1036 434,-1036 434,-1048 434,-1048 434,-1054 428,-1060 422,-1060"/>
<text text-anchor="middle" x="217" y="-1039.5" font-family="sans" font-size="10.00">Scripts_MultiOmics_Proteomics_Aberrant_Expression_PROTRIDER_data_imputation_R</text>
</g>
<!-- 54&#45;&gt;53 -->
<g id="edge110" class="edge"><title>54&#45;&gt;53</title>
<path fill="none" stroke="grey" stroke-width="2" d="M434.064,-1042C442.632,-1042 451.238,-1042 459.838,-1042"/>
<polygon fill="grey" stroke="grey" stroke-width="2" points="459.927,-1045.5 469.927,-1042 459.927,-1038.5 459.927,-1045.5"/>
</g>
</g>
</svg>
