<?xml version="1.0" encoding="UTF-8" standalone="no"?>
<!DOCTYPE svg PUBLIC "-//W3C//DTD SVG 1.1//EN"
 "http://www.w3.org/Graphics/SVG/1.1/DTD/svg11.dtd">
<!-- Generated by graphviz version 2.38.0 (20140413.2041)
 -->
<!-- Title: snakemake_dag Pages: 1 -->
<svg width="2549pt" height="2211pt"
 viewBox="0.00 0.00 2549.00 2211.27" xmlns="http://www.w3.org/2000/svg" xmlns:xlink="http://www.w3.org/1999/xlink">
<g id="graph0" class="graph" transform="scale(1 1) rotate(0) translate(4 2207.27)">
<title>snakemake_dag</title>
<polygon fill="white" stroke="none" points="-4,4 -4,-2207.27 2545,-2207.27 2545,4 -4,4"/>
<!-- 0 -->
<g id="node1" class="node"><title>0</title>
<path fill="none" stroke="#97d856" stroke-width="2" d="M2529,-1112C2529,-1112 2499,-1112 2499,-1112 2493,-1112 2487,-1106 2487,-1100 2487,-1100 2487,-1088 2487,-1088 2487,-1082 2493,-1076 2499,-1076 2499,-1076 2529,-1076 2529,-1076 2535,-1076 2541,-1082 2541,-1088 2541,-1088 2541,-1100 2541,-1100 2541,-1106 2535,-1112 2529,-1112"/>
<text text-anchor="middle" x="2514" y="-1091.5" font-family="sans" font-size="10.00">all</text>
</g>
<!-- 1 -->
<g id="node2" class="node"><title>1</title>
<path fill="none" stroke="#d6d856" stroke-width="2" stroke-dasharray="5,2" d="M2428.5,-1139C2428.5,-1139 2398.5,-1139 2398.5,-1139 2392.5,-1139 2386.5,-1133 2386.5,-1127 2386.5,-1127 2386.5,-1115 2386.5,-1115 2386.5,-1109 2392.5,-1103 2398.5,-1103 2398.5,-1103 2428.5,-1103 2428.5,-1103 2434.5,-1103 2440.5,-1109 2440.5,-1115 2440.5,-1115 2440.5,-1127 2440.5,-1127 2440.5,-1133 2434.5,-1139 2428.5,-1139"/>
<text text-anchor="middle" x="2413.5" y="-1118.5" font-family="sans" font-size="10.00">Index</text>
</g>
<!-- 1&#45;&gt;0 -->
<g id="edge1" class="edge"><title>1&#45;&gt;0</title>
<path fill="none" stroke="grey" stroke-width="2" d="M2440.64,-1113.84C2451.77,-1110.78 2464.94,-1107.17 2476.97,-1103.88"/>
<polygon fill="grey" stroke="grey" stroke-width="2" points="2478.02,-1107.22 2486.74,-1101.2 2476.17,-1100.47 2478.02,-1107.22"/>
</g>
<!-- 2 -->
<g id="node3" class="node"><title>2</title>
<path fill="none" stroke="#d88556" stroke-width="2" d="M2439,-1085C2439,-1085 2388,-1085 2388,-1085 2382,-1085 2376,-1079 2376,-1073 2376,-1073 2376,-1061 2376,-1061 2376,-1055 2382,-1049 2388,-1049 2388,-1049 2439,-1049 2439,-1049 2445,-1049 2451,-1055 2451,-1061 2451,-1061 2451,-1073 2451,-1073 2451,-1079 2445,-1085 2439,-1085"/>
<text text-anchor="middle" x="2413.5" y="-1070" font-family="sans" font-size="10.00">markdown</text>
<text text-anchor="middle" x="2413.5" y="-1059" font-family="sans" font-size="10.00">file: readme</text>
</g>
<!-- 2&#45;&gt;0 -->
<g id="edge2" class="edge"><title>2&#45;&gt;0</title>
<path fill="none" stroke="grey" stroke-width="2" d="M2451.18,-1077.05C2459.58,-1079.36 2468.5,-1081.8 2476.88,-1084.1"/>
<polygon fill="grey" stroke="grey" stroke-width="2" points="2476.18,-1087.54 2486.75,-1086.8 2478.03,-1080.79 2476.18,-1087.54"/>
</g>
<!-- 3 -->
<g id="node4" class="node"><title>3</title>
<path fill="none" stroke="#56d8c9" stroke-width="2" stroke-dasharray="5,2" d="M1359.5,-274C1359.5,-274 1026.5,-274 1026.5,-274 1020.5,-274 1014.5,-268 1014.5,-262 1014.5,-262 1014.5,-250 1014.5,-250 1014.5,-244 1020.5,-238 1026.5,-238 1026.5,-238 1359.5,-238 1359.5,-238 1365.5,-238 1371.5,-244 1371.5,-250 1371.5,-250 1371.5,-262 1371.5,-262 1371.5,-268 1365.5,-274 1359.5,-274"/>
<text text-anchor="middle" x="1193" y="-253.5" font-family="sans" font-size="10.00">Scripts_MultiOmics_HPO_phenotype_Compare_HPOmatch_SemSim_R</text>
</g>
<!-- 3&#45;&gt;1 -->
<g id="edge3" class="edge"><title>3&#45;&gt;1</title>
<path fill="none" stroke="grey" stroke-width="2" d="M1371.5,-244.936C1676.08,-227.843 2272.24,-203.387 2340,-269 2405.92,-332.825 2332.92,-1012.99 2376,-1094 2376.94,-1095.77 2378.06,-1097.46 2379.31,-1099.07"/>
<polygon fill="grey" stroke="grey" stroke-width="2" points="2376.94,-1101.65 2386.43,-1106.36 2381.95,-1096.76 2376.94,-1101.65"/>
</g>
<!-- 8 -->
<g id="node9" class="node"><title>8</title>
<path fill="none" stroke="#56c1d8" stroke-width="2" stroke-dasharray="5,2" d="M1815,-977C1815,-977 1575,-977 1575,-977 1569,-977 1563,-971 1563,-965 1563,-965 1563,-953 1563,-953 1563,-947 1569,-941 1575,-941 1575,-941 1815,-941 1815,-941 1821,-941 1827,-947 1827,-953 1827,-953 1827,-965 1827,-965 1827,-971 1821,-977 1815,-977"/>
<text text-anchor="middle" x="1695" y="-956.5" font-family="sans" font-size="10.00">Scripts_MultiOmics_Integration_integrate_omics_R</text>
</g>
<!-- 3&#45;&gt;8 -->
<g id="edge54" class="edge"><title>3&#45;&gt;8</title>
<path fill="none" stroke="grey" stroke-width="2" d="M1209.29,-274.292C1250.12,-323.925 1363.2,-466.454 1430,-601 1452.5,-646.318 1440.4,-665.36 1466,-709 1521.22,-803.114 1616.34,-892.274 1664.39,-934.118"/>
<polygon fill="grey" stroke="grey" stroke-width="2" points="1662.39,-937.01 1672.24,-940.897 1666.96,-931.712 1662.39,-937.01"/>
</g>
<!-- 4 -->
<g id="node5" class="node"><title>4</title>
<path fill="none" stroke="#c6d856" stroke-width="2" stroke-dasharray="5,2" d="M816.5,-259C816.5,-259 573.5,-259 573.5,-259 567.5,-259 561.5,-253 561.5,-247 561.5,-247 561.5,-235 561.5,-235 561.5,-229 567.5,-223 573.5,-223 573.5,-223 816.5,-223 816.5,-223 822.5,-223 828.5,-229 828.5,-235 828.5,-235 828.5,-247 828.5,-247 828.5,-253 822.5,-259 816.5,-259"/>
<text text-anchor="middle" x="695" y="-238.5" font-family="sans" font-size="10.00">Scripts_MultiOmics_HPO_phenotype_HPO_match_R</text>
</g>
<!-- 4&#45;&gt;1 -->
<g id="edge4" class="edge"><title>4&#45;&gt;1</title>
<path fill="none" stroke="grey" stroke-width="2" d="M828.543,-234.636C1209.83,-216.984 2285.82,-172.018 2340,-224 2409.81,-290.983 2330.67,-1008.53 2376,-1094 2376.94,-1095.78 2378.06,-1097.47 2379.3,-1099.07"/>
<polygon fill="grey" stroke="grey" stroke-width="2" points="2376.93,-1101.65 2386.42,-1106.36 2381.94,-1096.76 2376.93,-1101.65"/>
</g>
<!-- 4&#45;&gt;3 -->
<g id="edge49" class="edge"><title>4&#45;&gt;3</title>
<path fill="none" stroke="grey" stroke-width="2" d="M828.593,-245.01C882.441,-246.638 945.631,-248.549 1004.08,-250.317"/>
<polygon fill="grey" stroke="grey" stroke-width="2" points="1004.08,-253.818 1014.18,-250.622 1004.29,-246.822 1004.08,-253.818"/>
</g>
<!-- 5 -->
<g id="node6" class="node"><title>5</title>
<path fill="none" stroke="#d8d356" stroke-width="2" stroke-dasharray="5,2" d="M1833,-1490C1833,-1490 1557,-1490 1557,-1490 1551,-1490 1545,-1484 1545,-1478 1545,-1478 1545,-1466 1545,-1466 1545,-1460 1551,-1454 1557,-1454 1557,-1454 1833,-1454 1833,-1454 1839,-1454 1845,-1460 1845,-1466 1845,-1466 1845,-1478 1845,-1478 1845,-1484 1839,-1490 1833,-1490"/>
<text text-anchor="middle" x="1695" y="-1469.5" font-family="sans" font-size="10.00">Scripts_MultiOmics_HPO_phenotype_Organ_involvment_R</text>
</g>
<!-- 5&#45;&gt;1 -->
<g id="edge5" class="edge"><title>5&#45;&gt;1</title>
<path fill="none" stroke="grey" stroke-width="2" d="M1845.2,-1473.78C1872.79,-1478.95 1900.34,-1487.7 1924,-1502 1947.75,-1516.35 1935.37,-1540.24 1960,-1553 2034.98,-1591.85 2275.54,-1607.55 2340,-1553 2401.73,-1500.77 2410.93,-1237.22 2412.28,-1149.47"/>
<polygon fill="grey" stroke="grey" stroke-width="2" points="2415.78,-1149.25 2412.41,-1139.2 2408.78,-1149.16 2415.78,-1149.25"/>
</g>
<!-- 28 -->
<g id="node29" class="node"><title>28</title>
<path fill="none" stroke="#56d8c1" stroke-width="2" stroke-dasharray="5,2" d="M2229,-1436C2229,-1436 2071,-1436 2071,-1436 2065,-1436 2059,-1430 2059,-1424 2059,-1424 2059,-1412 2059,-1412 2059,-1406 2065,-1400 2071,-1400 2071,-1400 2229,-1400 2229,-1400 2235,-1400 2241,-1406 2241,-1412 2241,-1412 2241,-1424 2241,-1424 2241,-1430 2235,-1436 2229,-1436"/>
<text text-anchor="middle" x="2150" y="-1415.5" font-family="sans" font-size="10.00">Scripts_Paper_figures_Figure2_f_R</text>
</g>
<!-- 5&#45;&gt;28 -->
<g id="edge79" class="edge"><title>5&#45;&gt;28</title>
<path fill="none" stroke="grey" stroke-width="2" d="M1845.27,-1454.21C1912.04,-1446.25 1988.99,-1437.07 2048.73,-1429.95"/>
<polygon fill="grey" stroke="grey" stroke-width="2" points="2049.4,-1433.4 2058.91,-1428.74 2048.57,-1426.45 2049.4,-1433.4"/>
</g>
<!-- 29 -->
<g id="node30" class="node"><title>29</title>
<path fill="none" stroke="#61d856" stroke-width="2" stroke-dasharray="5,2" d="M2230,-1382C2230,-1382 2070,-1382 2070,-1382 2064,-1382 2058,-1376 2058,-1370 2058,-1370 2058,-1358 2058,-1358 2058,-1352 2064,-1346 2070,-1346 2070,-1346 2230,-1346 2230,-1346 2236,-1346 2242,-1352 2242,-1358 2242,-1358 2242,-1370 2242,-1370 2242,-1376 2236,-1382 2230,-1382"/>
<text text-anchor="middle" x="2150" y="-1361.5" font-family="sans" font-size="10.00">Scripts_Paper_figures_Figure2_g_R</text>
</g>
<!-- 5&#45;&gt;29 -->
<g id="edge81" class="edge"><title>5&#45;&gt;29</title>
<path fill="none" stroke="grey" stroke-width="2" d="M1746.47,-1453.94C1799.15,-1435.7 1884.44,-1407.88 1960,-1391 1988.21,-1384.7 2019.14,-1379.55 2047.66,-1375.51"/>
<polygon fill="grey" stroke="grey" stroke-width="2" points="2048.21,-1378.97 2057.63,-1374.13 2047.25,-1372.04 2048.21,-1378.97"/>
</g>
<!-- 30 -->
<g id="node31" class="node"><title>30</title>
<path fill="none" stroke="#d85e56" stroke-width="2" stroke-dasharray="5,2" d="M2230,-1490C2230,-1490 2070,-1490 2070,-1490 2064,-1490 2058,-1484 2058,-1478 2058,-1478 2058,-1466 2058,-1466 2058,-1460 2064,-1454 2070,-1454 2070,-1454 2230,-1454 2230,-1454 2236,-1454 2242,-1460 2242,-1466 2242,-1466 2242,-1478 2242,-1478 2242,-1484 2236,-1490 2230,-1490"/>
<text text-anchor="middle" x="2150" y="-1469.5" font-family="sans" font-size="10.00">Scripts_Paper_figures_Figure2_h_R</text>
</g>
<!-- 5&#45;&gt;30 -->
<g id="edge83" class="edge"><title>5&#45;&gt;30</title>
<path fill="none" stroke="grey" stroke-width="2" d="M1845.27,-1472C1911.68,-1472 1988.15,-1472 2047.74,-1472"/>
<polygon fill="grey" stroke="grey" stroke-width="2" points="2047.91,-1475.5 2057.91,-1472 2047.91,-1468.5 2047.91,-1475.5"/>
</g>
<!-- 35 -->
<g id="node36" class="node"><title>35</title>
<path fill="none" stroke="#d88d56" stroke-width="2" stroke-dasharray="5,2" d="M2253.5,-1544C2253.5,-1544 2046.5,-1544 2046.5,-1544 2040.5,-1544 2034.5,-1538 2034.5,-1532 2034.5,-1532 2034.5,-1520 2034.5,-1520 2034.5,-1514 2040.5,-1508 2046.5,-1508 2046.5,-1508 2253.5,-1508 2253.5,-1508 2259.5,-1508 2265.5,-1514 2265.5,-1520 2265.5,-1520 2265.5,-1532 2265.5,-1532 2265.5,-1538 2259.5,-1544 2253.5,-1544"/>
<text text-anchor="middle" x="2150" y="-1523.5" font-family="sans" font-size="10.00">Scripts_Patient_analysis_Patient_analysis_R</text>
</g>
<!-- 5&#45;&gt;35 -->
<g id="edge90" class="edge"><title>5&#45;&gt;35</title>
<path fill="none" stroke="grey" stroke-width="2" d="M1845.27,-1489.79C1903.15,-1496.69 1968.68,-1504.5 2024.01,-1511.1"/>
<polygon fill="grey" stroke="grey" stroke-width="2" points="2023.88,-1514.61 2034.22,-1512.32 2024.71,-1507.66 2023.88,-1514.61"/>
</g>
<!-- 6 -->
<g id="node7" class="node"><title>6</title>
<path fill="none" stroke="#568ad8" stroke-width="2" stroke-dasharray="5,2" d="M837,-198C837,-198 553,-198 553,-198 547,-198 541,-192 541,-186 541,-186 541,-174 541,-174 541,-168 547,-162 553,-162 553,-162 837,-162 837,-162 843,-162 849,-168 849,-174 849,-174 849,-186 849,-186 849,-192 843,-198 837,-198"/>
<text text-anchor="middle" x="695" y="-177.5" font-family="sans" font-size="10.00">Scripts_MultiOmics_HPO_phenotype_Semantic_similarity_R</text>
</g>
<!-- 6&#45;&gt;1 -->
<g id="edge6" class="edge"><title>6&#45;&gt;1</title>
<path fill="none" stroke="grey" stroke-width="2" d="M849.249,-175.846C1247.34,-165.801 2287.05,-144.637 2340,-196 2411.67,-265.531 2329.27,-1005.75 2376,-1094 2376.94,-1095.78 2378.06,-1097.47 2379.3,-1099.07"/>
<polygon fill="grey" stroke="grey" stroke-width="2" points="2376.93,-1101.65 2386.42,-1106.37 2381.94,-1096.76 2376.93,-1101.65"/>
</g>
<!-- 6&#45;&gt;3 -->
<g id="edge50" class="edge"><title>6&#45;&gt;3</title>
<path fill="none" stroke="grey" stroke-width="2" d="M815.165,-198.03C849.046,-203.171 885.979,-208.791 920,-214 967.523,-221.276 1019.71,-229.32 1065.55,-236.405"/>
<polygon fill="grey" stroke="grey" stroke-width="2" points="1065.11,-239.88 1075.53,-237.949 1066.18,-232.962 1065.11,-239.88"/>
</g>
<!-- 7 -->
<g id="node8" class="node"><title>7</title>
<path fill="none" stroke="#565bd8" stroke-width="2" stroke-dasharray="5,2" d="M1830.5,-1956C1830.5,-1956 1559.5,-1956 1559.5,-1956 1553.5,-1956 1547.5,-1950 1547.5,-1944 1547.5,-1944 1547.5,-1932 1547.5,-1932 1547.5,-1926 1553.5,-1920 1559.5,-1920 1559.5,-1920 1830.5,-1920 1830.5,-1920 1836.5,-1920 1842.5,-1926 1842.5,-1932 1842.5,-1932 1842.5,-1944 1842.5,-1944 1842.5,-1950 1836.5,-1956 1830.5,-1956"/>
<text text-anchor="middle" x="1695" y="-1935.5" font-family="sans" font-size="10.00">Scripts_MultiOmics_Integration_RNA_proteome_match_R</text>
</g>
<!-- 7&#45;&gt;1 -->
<g id="edge7" class="edge"><title>7&#45;&gt;1</title>
<path fill="none" stroke="grey" stroke-width="2" d="M1842.77,-1935.22C2021.91,-1930.34 2305.42,-1917.25 2340,-1883 2393.15,-1830.36 2408.89,-1280.8 2411.91,-1149.2"/>
<polygon fill="grey" stroke="grey" stroke-width="2" points="2415.41,-1149.19 2412.14,-1139.11 2408.41,-1149.03 2415.41,-1149.19"/>
</g>
<!-- 8&#45;&gt;1 -->
<g id="edge8" class="edge"><title>8&#45;&gt;1</title>
<path fill="none" stroke="grey" stroke-width="2" d="M1718.49,-940.827C1764.16,-902.731 1868.12,-809.663 1924,-709 1952.68,-657.332 1912.89,-616.685 1960,-581 1993.66,-555.504 2309.12,-552.208 2340,-581 2423.59,-658.929 2321.01,-993.818 2376,-1094 2376.86,-1095.57 2377.86,-1097.07 2378.95,-1098.5"/>
<polygon fill="grey" stroke="grey" stroke-width="2" points="2376.71,-1101.22 2386.16,-1105.99 2381.75,-1096.36 2376.71,-1101.22"/>
</g>
<!-- 19 -->
<g id="node20" class="node"><title>19</title>
<path fill="none" stroke="#d8ac56" stroke-width="2" stroke-dasharray="5,2" d="M2295,-534C2295,-534 2005,-534 2005,-534 1999,-534 1993,-528 1993,-522 1993,-522 1993,-510 1993,-510 1993,-504 1999,-498 2005,-498 2005,-498 2295,-498 2295,-498 2301,-498 2307,-504 2307,-510 2307,-510 2307,-522 2307,-522 2307,-528 2301,-534 2295,-534"/>
<text text-anchor="middle" x="2150" y="-513.5" font-family="sans" font-size="10.00">Scripts_MultiOmics_Variant_analysis_enrichment_analysis_R</text>
</g>
<!-- 8&#45;&gt;19 -->
<g id="edge68" class="edge"><title>8&#45;&gt;19</title>
<path fill="none" stroke="grey" stroke-width="2" d="M1719.3,-940.782C1765.98,-902.953 1871,-810.88 1924,-709 1957.84,-643.953 1906.82,-598.475 1960,-548 1967.08,-541.284 1975.01,-535.686 1983.51,-531.039"/>
<polygon fill="grey" stroke="grey" stroke-width="2" points="1985.18,-534.122 1992.57,-526.533 1982.06,-527.855 1985.18,-534.122"/>
</g>
<!-- 20 -->
<g id="node21" class="node"><title>20</title>
<path fill="none" stroke="#56d8a2" stroke-width="2" stroke-dasharray="5,2" d="M2328,-1328C2328,-1328 1972,-1328 1972,-1328 1966,-1328 1960,-1322 1960,-1316 1960,-1316 1960,-1304 1960,-1304 1960,-1298 1966,-1292 1972,-1292 1972,-1292 2328,-1292 2328,-1292 2334,-1292 2340,-1298 2340,-1304 2340,-1304 2340,-1316 2340,-1316 2340,-1322 2334,-1328 2328,-1328"/>
<text text-anchor="middle" x="2150" y="-1307.5" font-family="sans" font-size="10.00">Scripts_MultiOmics_Variant_analysis_enrichment_analysis_variant_type_R</text>
</g>
<!-- 8&#45;&gt;20 -->
<g id="edge69" class="edge"><title>8&#45;&gt;20</title>
<path fill="none" stroke="grey" stroke-width="2" d="M1704.65,-977.313C1732.48,-1033.97 1825.77,-1207.13 1960,-1283 1962.96,-1284.67 1965.98,-1286.25 1969.06,-1287.75"/>
<polygon fill="grey" stroke="grey" stroke-width="2" points="1967.9,-1291.07 1978.46,-1291.98 1970.78,-1284.68 1967.9,-1291.07"/>
</g>
<!-- 21 -->
<g id="node22" class="node"><title>21</title>
<path fill="none" stroke="#56d8d0" stroke-width="2" stroke-dasharray="5,2" d="M2290.5,-1274C2290.5,-1274 2009.5,-1274 2009.5,-1274 2003.5,-1274 1997.5,-1268 1997.5,-1262 1997.5,-1262 1997.5,-1250 1997.5,-1250 1997.5,-1244 2003.5,-1238 2009.5,-1238 2009.5,-1238 2290.5,-1238 2290.5,-1238 2296.5,-1238 2302.5,-1244 2302.5,-1250 2302.5,-1250 2302.5,-1262 2302.5,-1262 2302.5,-1268 2296.5,-1274 2290.5,-1274"/>
<text text-anchor="middle" x="2150" y="-1253.5" font-family="sans" font-size="10.00">Scripts_MultiOmics_Variant_analysis_outlier_proportions_R</text>
</g>
<!-- 8&#45;&gt;21 -->
<g id="edge70" class="edge"><title>8&#45;&gt;21</title>
<path fill="none" stroke="grey" stroke-width="2" d="M1707.3,-977.052C1739.64,-1026.96 1838.09,-1167.18 1960,-1229 1968.76,-1233.44 1978.02,-1237.22 1987.55,-1240.42"/>
<polygon fill="grey" stroke="grey" stroke-width="2" points="1986.58,-1243.78 1997.17,-1243.43 1988.67,-1237.1 1986.58,-1243.78"/>
</g>
<!-- 22 -->
<g id="node23" class="node"><title>22</title>
<path fill="none" stroke="#56d88a" stroke-width="2" stroke-dasharray="5,2" d="M2323.5,-1220C2323.5,-1220 1976.5,-1220 1976.5,-1220 1970.5,-1220 1964.5,-1214 1964.5,-1208 1964.5,-1208 1964.5,-1196 1964.5,-1196 1964.5,-1190 1970.5,-1184 1976.5,-1184 1976.5,-1184 2323.5,-1184 2323.5,-1184 2329.5,-1184 2335.5,-1190 2335.5,-1196 2335.5,-1196 2335.5,-1208 2335.5,-1208 2335.5,-1214 2329.5,-1220 2323.5,-1220"/>
<text text-anchor="middle" x="2150" y="-1199.5" font-family="sans" font-size="10.00">Scripts_MultiOmics_Variant_analysis_outlier_proportions_variant_type_R</text>
</g>
<!-- 8&#45;&gt;22 -->
<g id="edge71" class="edge"><title>8&#45;&gt;22</title>
<path fill="none" stroke="grey" stroke-width="2" d="M1711.38,-977.04C1748.92,-1019.69 1850.2,-1126.78 1960,-1175 1964.5,-1176.98 1969.12,-1178.82 1973.83,-1180.53"/>
<polygon fill="grey" stroke="grey" stroke-width="2" points="1972.99,-1183.94 1983.59,-1183.86 1975.25,-1177.32 1972.99,-1183.94"/>
</g>
<!-- 23 -->
<g id="node24" class="node"><title>23</title>
<path fill="none" stroke="#d8b456" stroke-width="2" stroke-dasharray="5,2" d="M2224.5,-1166C2224.5,-1166 2075.5,-1166 2075.5,-1166 2069.5,-1166 2063.5,-1160 2063.5,-1154 2063.5,-1154 2063.5,-1142 2063.5,-1142 2063.5,-1136 2069.5,-1130 2075.5,-1130 2075.5,-1130 2224.5,-1130 2224.5,-1130 2230.5,-1130 2236.5,-1136 2236.5,-1142 2236.5,-1142 2236.5,-1154 2236.5,-1154 2236.5,-1160 2230.5,-1166 2224.5,-1166"/>
<text text-anchor="middle" x="2150" y="-1145.5" font-family="sans" font-size="10.00">Scripts_Paper_figures_Figure1_R</text>
</g>
<!-- 8&#45;&gt;23 -->
<g id="edge72" class="edge"><title>8&#45;&gt;23</title>
<path fill="none" stroke="grey" stroke-width="2" d="M1718.36,-977.207C1761.9,-1011.59 1862.37,-1085.79 1960,-1121 1989.41,-1131.61 2022.81,-1138.06 2053.27,-1141.99"/>
<polygon fill="grey" stroke="grey" stroke-width="2" points="2053.13,-1145.5 2063.47,-1143.22 2053.97,-1138.55 2053.13,-1145.5"/>
</g>
<!-- 25 -->
<g id="node26" class="node"><title>25</title>
<path fill="none" stroke="#5673d8" stroke-width="2" stroke-dasharray="5,2" d="M2230,-1112C2230,-1112 2070,-1112 2070,-1112 2064,-1112 2058,-1106 2058,-1100 2058,-1100 2058,-1088 2058,-1088 2058,-1082 2064,-1076 2070,-1076 2070,-1076 2230,-1076 2230,-1076 2236,-1076 2242,-1082 2242,-1088 2242,-1088 2242,-1100 2242,-1100 2242,-1106 2236,-1112 2230,-1112"/>
<text text-anchor="middle" x="2150" y="-1091.5" font-family="sans" font-size="10.00">Scripts_Paper_figures_Figure2_b_R</text>
</g>
<!-- 8&#45;&gt;25 -->
<g id="edge75" class="edge"><title>8&#45;&gt;25</title>
<path fill="none" stroke="grey" stroke-width="2" d="M1732.16,-977.152C1782.12,-1001.44 1875.65,-1044.1 1960,-1067 1988.04,-1074.61 2019.04,-1080.18 2047.68,-1084.21"/>
<polygon fill="grey" stroke="grey" stroke-width="2" points="2047.33,-1087.69 2057.71,-1085.57 2048.27,-1080.75 2047.33,-1087.69"/>
</g>
<!-- 26 -->
<g id="node27" class="node"><title>26</title>
<path fill="none" stroke="#56d86b" stroke-width="2" stroke-dasharray="5,2" d="M2229.5,-1058C2229.5,-1058 2070.5,-1058 2070.5,-1058 2064.5,-1058 2058.5,-1052 2058.5,-1046 2058.5,-1046 2058.5,-1034 2058.5,-1034 2058.5,-1028 2064.5,-1022 2070.5,-1022 2070.5,-1022 2229.5,-1022 2229.5,-1022 2235.5,-1022 2241.5,-1028 2241.5,-1034 2241.5,-1034 2241.5,-1046 2241.5,-1046 2241.5,-1052 2235.5,-1058 2229.5,-1058"/>
<text text-anchor="middle" x="2150" y="-1037.5" font-family="sans" font-size="10.00">Scripts_Paper_figures_Figure2_c_R</text>
</g>
<!-- 8&#45;&gt;26 -->
<g id="edge76" class="edge"><title>8&#45;&gt;26</title>
<path fill="none" stroke="grey" stroke-width="2" d="M1777.81,-977.051C1829.83,-988.201 1898.7,-1002.36 1960,-1013 1988.63,-1017.97 2019.81,-1022.7 2048.45,-1026.77"/>
<polygon fill="grey" stroke="grey" stroke-width="2" points="2048.07,-1030.26 2058.46,-1028.19 2049.05,-1023.32 2048.07,-1030.26"/>
</g>
<!-- 27 -->
<g id="node28" class="node"><title>27</title>
<path fill="none" stroke="#d8bc56" stroke-width="2" stroke-dasharray="5,2" d="M2230,-1004C2230,-1004 2070,-1004 2070,-1004 2064,-1004 2058,-998 2058,-992 2058,-992 2058,-980 2058,-980 2058,-974 2064,-968 2070,-968 2070,-968 2230,-968 2230,-968 2236,-968 2242,-974 2242,-980 2242,-980 2242,-992 2242,-992 2242,-998 2236,-1004 2230,-1004"/>
<text text-anchor="middle" x="2150" y="-983.5" font-family="sans" font-size="10.00">Scripts_Paper_figures_Figure2_d_R</text>
</g>
<!-- 8&#45;&gt;27 -->
<g id="edge77" class="edge"><title>8&#45;&gt;27</title>
<path fill="none" stroke="grey" stroke-width="2" d="M1827.03,-966.81C1897.22,-970.993 1982.39,-976.07 2047.5,-979.95"/>
<polygon fill="grey" stroke="grey" stroke-width="2" points="2047.58,-983.461 2057.77,-980.562 2047.99,-976.473 2047.58,-983.461"/>
</g>
<!-- 8&#45;&gt;28 -->
<g id="edge78" class="edge"><title>8&#45;&gt;28</title>
<path fill="none" stroke="grey" stroke-width="2" d="M1701.01,-977.297C1720.68,-1045.36 1799.57,-1285.42 1960,-1391 1985.87,-1408.03 2018.03,-1416.22 2048.45,-1419.76"/>
<polygon fill="grey" stroke="grey" stroke-width="2" points="2048.39,-1423.27 2058.69,-1420.79 2049.09,-1416.31 2048.39,-1423.27"/>
</g>
<!-- 8&#45;&gt;29 -->
<g id="edge80" class="edge"><title>8&#45;&gt;29</title>
<path fill="none" stroke="grey" stroke-width="2" d="M1702.54,-977.166C1726.03,-1039.59 1812.74,-1246.4 1960,-1337 1986,-1352.99 2017.75,-1360.97 2047.75,-1364.64"/>
<polygon fill="grey" stroke="grey" stroke-width="2" points="2047.53,-1368.13 2057.85,-1365.72 2048.28,-1361.17 2047.53,-1368.13"/>
</g>
<!-- 8&#45;&gt;30 -->
<g id="edge82" class="edge"><title>8&#45;&gt;30</title>
<path fill="none" stroke="grey" stroke-width="2" d="M1699.79,-977.473C1715.93,-1050.92 1786.16,-1324.14 1960,-1445 1985.31,-1462.59 2017.16,-1470.97 2047.48,-1474.5"/>
<polygon fill="grey" stroke="grey" stroke-width="2" points="2047.39,-1478.01 2057.69,-1475.52 2048.08,-1471.04 2047.39,-1478.01"/>
</g>
<!-- 31 -->
<g id="node32" class="node"><title>31</title>
<path fill="none" stroke="#9fd856" stroke-width="2" stroke-dasharray="5,2" d="M2230,-950C2230,-950 2070,-950 2070,-950 2064,-950 2058,-944 2058,-938 2058,-938 2058,-926 2058,-926 2058,-920 2064,-914 2070,-914 2070,-914 2230,-914 2230,-914 2236,-914 2242,-920 2242,-926 2242,-926 2242,-938 2242,-938 2242,-944 2236,-950 2230,-950"/>
<text text-anchor="middle" x="2150" y="-929.5" font-family="sans" font-size="10.00">Scripts_Paper_figures_Figure3_a_R</text>
</g>
<!-- 8&#45;&gt;31 -->
<g id="edge84" class="edge"><title>8&#45;&gt;31</title>
<path fill="none" stroke="grey" stroke-width="2" d="M1827.03,-951.19C1897.22,-947.007 1982.39,-941.93 2047.5,-938.05"/>
<polygon fill="grey" stroke="grey" stroke-width="2" points="2047.99,-941.527 2057.77,-937.438 2047.58,-934.539 2047.99,-941.527"/>
</g>
<!-- 32 -->
<g id="node33" class="node"><title>32</title>
<path fill="none" stroke="#80d856" stroke-width="2" stroke-dasharray="5,2" d="M2229.5,-404C2229.5,-404 2070.5,-404 2070.5,-404 2064.5,-404 2058.5,-398 2058.5,-392 2058.5,-392 2058.5,-380 2058.5,-380 2058.5,-374 2064.5,-368 2070.5,-368 2070.5,-368 2229.5,-368 2229.5,-368 2235.5,-368 2241.5,-374 2241.5,-380 2241.5,-380 2241.5,-392 2241.5,-392 2241.5,-398 2235.5,-404 2229.5,-404"/>
<text text-anchor="middle" x="2150" y="-383.5" font-family="sans" font-size="10.00">Scripts_Paper_figures_Figure3_c_R</text>
</g>
<!-- 8&#45;&gt;32 -->
<g id="edge85" class="edge"><title>8&#45;&gt;32</title>
<path fill="none" stroke="grey" stroke-width="2" d="M1720.17,-940.743C1767.93,-903.189 1874.09,-812.104 1924,-709 1967.17,-619.82 1902.67,-569.809 1960,-489 1987.92,-449.638 2035.77,-423.777 2076.34,-407.813"/>
<polygon fill="grey" stroke="grey" stroke-width="2" points="2077.84,-410.988 2085.94,-404.163 2075.35,-404.445 2077.84,-410.988"/>
</g>
<!-- 33 -->
<g id="node34" class="node"><title>33</title>
<path fill="none" stroke="#68d856" stroke-width="2" stroke-dasharray="5,2" d="M2230,-896C2230,-896 2070,-896 2070,-896 2064,-896 2058,-890 2058,-884 2058,-884 2058,-872 2058,-872 2058,-866 2064,-860 2070,-860 2070,-860 2230,-860 2230,-860 2236,-860 2242,-866 2242,-872 2242,-872 2242,-884 2242,-884 2242,-890 2236,-896 2230,-896"/>
<text text-anchor="middle" x="2150" y="-875.5" font-family="sans" font-size="10.00">Scripts_Paper_figures_Figure3_e_R</text>
</g>
<!-- 8&#45;&gt;33 -->
<g id="edge87" class="edge"><title>8&#45;&gt;33</title>
<path fill="none" stroke="grey" stroke-width="2" d="M1777.81,-940.949C1829.83,-929.799 1898.7,-915.639 1960,-905 1988.48,-900.057 2019.5,-895.348 2048.01,-891.288"/>
<polygon fill="grey" stroke="grey" stroke-width="2" points="2048.57,-894.743 2057.98,-889.879 2047.59,-887.812 2048.57,-894.743"/>
</g>
<!-- 34 -->
<g id="node35" class="node"><title>34</title>
<path fill="none" stroke="#d86656" stroke-width="2" stroke-dasharray="5,2" d="M2224.5,-842C2224.5,-842 2075.5,-842 2075.5,-842 2069.5,-842 2063.5,-836 2063.5,-830 2063.5,-830 2063.5,-818 2063.5,-818 2063.5,-812 2069.5,-806 2075.5,-806 2075.5,-806 2224.5,-806 2224.5,-806 2230.5,-806 2236.5,-812 2236.5,-818 2236.5,-818 2236.5,-830 2236.5,-830 2236.5,-836 2230.5,-842 2224.5,-842"/>
<text text-anchor="middle" x="2150" y="-821.5" font-family="sans" font-size="10.00">Scripts_Paper_figures_Figure4_R</text>
</g>
<!-- 8&#45;&gt;34 -->
<g id="edge88" class="edge"><title>8&#45;&gt;34</title>
<path fill="none" stroke="grey" stroke-width="2" d="M1732.16,-940.848C1782.12,-916.561 1875.65,-873.901 1960,-851 1989.89,-842.885 2023.14,-837.097 2053.31,-833.019"/>
<polygon fill="grey" stroke="grey" stroke-width="2" points="2053.95,-836.464 2063.42,-831.7 2053.05,-829.523 2053.95,-836.464"/>
</g>
<!-- 8&#45;&gt;35 -->
<g id="edge89" class="edge"><title>8&#45;&gt;35</title>
<path fill="none" stroke="grey" stroke-width="2" d="M1704.33,-977.242C1746.58,-1069.56 1936.03,-1481.56 1960,-1499 1978.76,-1512.65 2001.39,-1520.85 2024.38,-1525.57"/>
<polygon fill="grey" stroke="grey" stroke-width="2" points="2023.77,-1529.02 2034.24,-1527.38 2025.04,-1522.13 2023.77,-1529.02"/>
</g>
<!-- 36 -->
<g id="node37" class="node"><title>36</title>
<path fill="none" stroke="#d86e56" stroke-width="2" stroke-dasharray="5,2" d="M2252.5,-2016C2252.5,-2016 2047.5,-2016 2047.5,-2016 2041.5,-2016 2035.5,-2010 2035.5,-2004 2035.5,-2004 2035.5,-1992 2035.5,-1992 2035.5,-1986 2041.5,-1980 2047.5,-1980 2047.5,-1980 2252.5,-1980 2252.5,-1980 2258.5,-1980 2264.5,-1986 2264.5,-1992 2264.5,-1992 2264.5,-2004 2264.5,-2004 2264.5,-2010 2258.5,-2016 2252.5,-2016"/>
<text text-anchor="middle" x="2150" y="-1995.5" font-family="sans" font-size="10.00">Scripts_Patient_analysis_detected_genes_R</text>
</g>
<!-- 8&#45;&gt;36 -->
<g id="edge92" class="edge"><title>8&#45;&gt;36</title>
<path fill="none" stroke="grey" stroke-width="2" d="M1705.49,-977.196C1738.34,-1040.59 1849.29,-1258.07 1924,-1445 1942.78,-1491.98 1942.1,-1505.68 1960,-1553 2020.72,-1713.5 2105,-1901.46 2136.48,-1970.65"/>
<polygon fill="grey" stroke="grey" stroke-width="2" points="2133.4,-1972.34 2140.73,-1979.98 2139.77,-1969.43 2133.4,-1972.34"/>
</g>
<!-- 37 -->
<g id="node38" class="node"><title>37</title>
<path fill="none" stroke="#566bd8" stroke-width="2" stroke-dasharray="5,2" d="M2255.5,-788C2255.5,-788 2044.5,-788 2044.5,-788 2038.5,-788 2032.5,-782 2032.5,-776 2032.5,-776 2032.5,-764 2032.5,-764 2032.5,-758 2038.5,-752 2044.5,-752 2044.5,-752 2255.5,-752 2255.5,-752 2261.5,-752 2267.5,-758 2267.5,-764 2267.5,-764 2267.5,-776 2267.5,-776 2267.5,-782 2261.5,-788 2255.5,-788"/>
<text text-anchor="middle" x="2150" y="-767.5" font-family="sans" font-size="10.00">Scripts_Patient_analysis_diagnosed_cases_R</text>
</g>
<!-- 8&#45;&gt;37 -->
<g id="edge97" class="edge"><title>8&#45;&gt;37</title>
<path fill="none" stroke="grey" stroke-width="2" d="M1718.36,-940.793C1761.9,-906.407 1862.37,-832.211 1960,-797 1979.65,-789.913 2001.08,-784.679 2022.22,-780.816"/>
<polygon fill="grey" stroke="grey" stroke-width="2" points="2022.98,-784.236 2032.23,-779.081 2021.78,-777.339 2022.98,-784.236"/>
</g>
<!-- 41 -->
<g id="node42" class="node"><title>41</title>
<path fill="none" stroke="#56d873" stroke-width="2" stroke-dasharray="5,2" d="M2251,-734C2251,-734 2049,-734 2049,-734 2043,-734 2037,-728 2037,-722 2037,-722 2037,-710 2037,-710 2037,-704 2043,-698 2049,-698 2049,-698 2251,-698 2251,-698 2257,-698 2263,-704 2263,-710 2263,-710 2263,-722 2263,-722 2263,-728 2257,-734 2251,-734"/>
<text text-anchor="middle" x="2150" y="-713.5" font-family="sans" font-size="10.00">Scripts_Supplementary_figures_S_Fig2_c_R</text>
</g>
<!-- 8&#45;&gt;41 -->
<g id="edge99" class="edge"><title>8&#45;&gt;41</title>
<path fill="none" stroke="grey" stroke-width="2" d="M1711.38,-940.96C1748.92,-898.307 1850.2,-791.22 1960,-743 1980.75,-733.886 2003.9,-727.715 2026.69,-723.564"/>
<polygon fill="grey" stroke="grey" stroke-width="2" points="2027.5,-726.977 2036.77,-721.851 2026.33,-720.075 2027.5,-726.977"/>
</g>
<!-- 42 -->
<g id="node43" class="node"><title>42</title>
<path fill="none" stroke="#88d856" stroke-width="2" stroke-dasharray="5,2" d="M2251.5,-350C2251.5,-350 2048.5,-350 2048.5,-350 2042.5,-350 2036.5,-344 2036.5,-338 2036.5,-338 2036.5,-326 2036.5,-326 2036.5,-320 2042.5,-314 2048.5,-314 2048.5,-314 2251.5,-314 2251.5,-314 2257.5,-314 2263.5,-320 2263.5,-326 2263.5,-326 2263.5,-338 2263.5,-338 2263.5,-344 2257.5,-350 2251.5,-350"/>
<text text-anchor="middle" x="2150" y="-329.5" font-family="sans" font-size="10.00">Scripts_Supplementary_figures_S_Fig2_d_R</text>
</g>
<!-- 8&#45;&gt;42 -->
<g id="edge100" class="edge"><title>8&#45;&gt;42</title>
<path fill="none" stroke="grey" stroke-width="2" d="M1720.69,-940.989C1769.4,-903.877 1877.19,-813.547 1924,-709 1955.95,-637.638 1905.81,-415.366 1960,-359 1977.54,-340.753 2001.44,-330.99 2026.33,-326.272"/>
<polygon fill="grey" stroke="grey" stroke-width="2" points="2026.98,-329.713 2036.28,-324.652 2025.85,-322.804 2026.98,-329.713"/>
</g>
<!-- 45 -->
<g id="node46" class="node"><title>45</title>
<path fill="none" stroke="#d87556" stroke-width="2" stroke-dasharray="5,2" d="M2245.5,-680C2245.5,-680 2054.5,-680 2054.5,-680 2048.5,-680 2042.5,-674 2042.5,-668 2042.5,-668 2042.5,-656 2042.5,-656 2042.5,-650 2048.5,-644 2054.5,-644 2054.5,-644 2245.5,-644 2245.5,-644 2251.5,-644 2257.5,-650 2257.5,-656 2257.5,-656 2257.5,-668 2257.5,-668 2257.5,-674 2251.5,-680 2245.5,-680"/>
<text text-anchor="middle" x="2150" y="-659.5" font-family="sans" font-size="10.00">Scripts_Supplementary_figures_S_Fig3_R</text>
</g>
<!-- 8&#45;&gt;45 -->
<g id="edge105" class="edge"><title>8&#45;&gt;45</title>
<path fill="none" stroke="grey" stroke-width="2" d="M1707.3,-940.948C1739.64,-891.04 1838.09,-750.816 1960,-689 1982.09,-677.802 2007.38,-670.84 2032.12,-666.596"/>
<polygon fill="grey" stroke="grey" stroke-width="2" points="2032.97,-670.005 2042.31,-664.992 2031.88,-663.09 2032.97,-670.005"/>
</g>
<!-- 46 -->
<g id="node47" class="node"><title>46</title>
<path fill="none" stroke="#56d85b" stroke-width="2" stroke-dasharray="5,2" d="M2245.5,-626C2245.5,-626 2054.5,-626 2054.5,-626 2048.5,-626 2042.5,-620 2042.5,-614 2042.5,-614 2042.5,-602 2042.5,-602 2042.5,-596 2048.5,-590 2054.5,-590 2054.5,-590 2245.5,-590 2245.5,-590 2251.5,-590 2257.5,-596 2257.5,-602 2257.5,-602 2257.5,-614 2257.5,-614 2257.5,-620 2251.5,-626 2245.5,-626"/>
<text text-anchor="middle" x="2150" y="-605.5" font-family="sans" font-size="10.00">Scripts_Supplementary_figures_S_Fig4_R</text>
</g>
<!-- 8&#45;&gt;46 -->
<g id="edge106" class="edge"><title>8&#45;&gt;46</title>
<path fill="none" stroke="grey" stroke-width="2" d="M1716.07,-940.842C1758.53,-901.675 1858.87,-805.007 1924,-709 1944.53,-678.733 1930.45,-656.546 1960,-635 1980.81,-619.83 2006.39,-611.381 2031.94,-606.971"/>
<polygon fill="grey" stroke="grey" stroke-width="2" points="2032.74,-610.389 2042.1,-605.421 2031.68,-603.469 2032.74,-610.389"/>
</g>
<!-- 9 -->
<g id="node10" class="node"><title>9</title>
<path fill="none" stroke="#56d863" stroke-width="2" stroke-dasharray="5,2" d="M1887,-1772C1887,-1772 1503,-1772 1503,-1772 1497,-1772 1491,-1766 1491,-1760 1491,-1760 1491,-1748 1491,-1748 1491,-1742 1497,-1736 1503,-1736 1503,-1736 1887,-1736 1887,-1736 1893,-1736 1899,-1742 1899,-1748 1899,-1748 1899,-1760 1899,-1760 1899,-1766 1893,-1772 1887,-1772"/>
<text text-anchor="middle" x="1695" y="-1751.5" font-family="sans" font-size="10.00">Scripts_MultiOmics_Proteomics_Aberrant_Expression_LIMMA_LIMMASummary_R</text>
</g>
<!-- 9&#45;&gt;1 -->
<g id="edge9" class="edge"><title>9&#45;&gt;1</title>
<path fill="none" stroke="grey" stroke-width="2" d="M1899.1,-1767.16C2063.79,-1773.08 2278.32,-1768.42 2340,-1710 2381.26,-1670.92 2405.26,-1261.63 2411.1,-1149.35"/>
<polygon fill="grey" stroke="grey" stroke-width="2" points="2414.6,-1149.31 2411.62,-1139.15 2407.61,-1148.96 2414.6,-1149.31"/>
</g>
<!-- 10 -->
<g id="node11" class="node"><title>10</title>
<path fill="none" stroke="#bed856" stroke-width="2" stroke-dasharray="5,2" d="M897.5,-1818C897.5,-1818 492.5,-1818 492.5,-1818 486.5,-1818 480.5,-1812 480.5,-1806 480.5,-1806 480.5,-1794 480.5,-1794 480.5,-1788 486.5,-1782 492.5,-1782 492.5,-1782 897.5,-1782 897.5,-1782 903.5,-1782 909.5,-1788 909.5,-1794 909.5,-1794 909.5,-1806 909.5,-1806 909.5,-1812 903.5,-1818 897.5,-1818"/>
<text text-anchor="middle" x="695" y="-1797.5" font-family="sans" font-size="10.00">Scripts_MultiOmics_Proteomics_Aberrant_Expression_LIMMA_batch_normalization_R</text>
</g>
<!-- 10&#45;&gt;1 -->
<g id="edge10" class="edge"><title>10&#45;&gt;1</title>
<path fill="none" stroke="grey" stroke-width="2" d="M909.611,-1801.4C1343.01,-1803.2 2289.13,-1801.54 2340,-1753 2384.32,-1710.72 2406.27,-1267.11 2411.34,-1149.49"/>
<polygon fill="grey" stroke="grey" stroke-width="2" points="2414.85,-1149.29 2411.78,-1139.15 2407.86,-1148.99 2414.85,-1149.29"/>
</g>
<!-- 15 -->
<g id="node16" class="node"><title>15</title>
<path fill="none" stroke="#56d0d8" stroke-width="2" stroke-dasharray="5,2" d="M1835,-2010C1835,-2010 1555,-2010 1555,-2010 1549,-2010 1543,-2004 1543,-1998 1543,-1998 1543,-1986 1543,-1986 1543,-1980 1549,-1974 1555,-1974 1555,-1974 1835,-1974 1835,-1974 1841,-1974 1847,-1980 1847,-1986 1847,-1986 1847,-1998 1847,-1998 1847,-2004 1841,-2010 1835,-2010"/>
<text text-anchor="middle" x="1695" y="-1989.5" font-family="sans" font-size="10.00">Scripts_MultiOmics_Proteomics_disease_gene_coverage_R</text>
</g>
<!-- 10&#45;&gt;15 -->
<g id="edge63" class="edge"><title>10&#45;&gt;15</title>
<path fill="none" stroke="grey" stroke-width="2" d="M729.351,-1818.04C777.762,-1843.33 871.018,-1888.72 956,-1911 1150.25,-1961.93 1381.39,-1980.87 1532.59,-1987.89"/>
<polygon fill="grey" stroke="grey" stroke-width="2" points="1532.73,-1991.4 1542.88,-1988.36 1533.05,-1984.41 1532.73,-1991.4"/>
</g>
<!-- 50 -->
<g id="node51" class="node"><title>50</title>
<path fill="none" stroke="#d8cb56" stroke-width="2" stroke-dasharray="5,2" d="M1400.5,-1718C1400.5,-1718 985.5,-1718 985.5,-1718 979.5,-1718 973.5,-1712 973.5,-1706 973.5,-1706 973.5,-1694 973.5,-1694 973.5,-1688 979.5,-1682 985.5,-1682 985.5,-1682 1400.5,-1682 1400.5,-1682 1406.5,-1682 1412.5,-1688 1412.5,-1694 1412.5,-1694 1412.5,-1706 1412.5,-1706 1412.5,-1712 1406.5,-1718 1400.5,-1718"/>
<text text-anchor="middle" x="1193" y="-1697.5" font-family="sans" font-size="10.00">Scripts_MultiOmics_Proteomics_Aberrant_Expression_LIMMA_detect_outliers_limma_R</text>
</g>
<!-- 10&#45;&gt;50 -->
<g id="edge112" class="edge"><title>10&#45;&gt;50</title>
<path fill="none" stroke="grey" stroke-width="2" d="M785.535,-1781.95C872.004,-1764.52 1002.7,-1738.17 1092.41,-1720.08"/>
<polygon fill="grey" stroke="grey" stroke-width="2" points="1093.21,-1723.49 1102.32,-1718.08 1091.83,-1716.63 1093.21,-1723.49"/>
</g>
<!-- 11 -->
<g id="node12" class="node"><title>11</title>
<path fill="none" stroke="#a7d856" stroke-width="2" stroke-dasharray="5,2" d="M1912,-700C1912,-700 1478,-700 1478,-700 1472,-700 1466,-694 1466,-688 1466,-688 1466,-676 1466,-676 1466,-670 1472,-664 1478,-664 1478,-664 1912,-664 1912,-664 1918,-664 1924,-670 1924,-676 1924,-676 1924,-688 1924,-688 1924,-694 1918,-700 1912,-700"/>
<text text-anchor="middle" x="1695" y="-679.5" font-family="sans" font-size="10.00">Scripts_MultiOmics_Proteomics_Aberrant_Expression_PROTRIDER_PROTRIDERSummary_R</text>
</g>
<!-- 11&#45;&gt;1 -->
<g id="edge11" class="edge"><title>11&#45;&gt;1</title>
<path fill="none" stroke="grey" stroke-width="2" d="M1912.9,-663.939C1916.75,-661.191 1920.46,-658.217 1924,-655 1979.87,-604.233 1901.23,-536.388 1960,-489 2025.74,-435.993 2278.54,-431.089 2340,-489 2389.01,-535.182 2343.91,-1034.8 2376,-1094 2376.96,-1095.77 2378.09,-1097.45 2379.34,-1099.05"/>
<polygon fill="grey" stroke="grey" stroke-width="2" points="2376.99,-1101.64 2386.49,-1106.33 2381.98,-1096.74 2376.99,-1101.64"/>
</g>
<!-- 12 -->
<g id="node13" class="node"><title>12</title>
<path fill="none" stroke="#56c9d8" stroke-width="2" stroke-dasharray="5,2" d="M1885,-646C1885,-646 1505,-646 1505,-646 1499,-646 1493,-640 1493,-634 1493,-634 1493,-622 1493,-622 1493,-616 1499,-610 1505,-610 1505,-610 1885,-610 1885,-610 1891,-610 1897,-616 1897,-622 1897,-622 1897,-634 1897,-634 1897,-640 1891,-646 1885,-646"/>
<text text-anchor="middle" x="1695" y="-625.5" font-family="sans" font-size="10.00">Scripts_MultiOmics_Proteomics_Protein_complexes_AE_complexes_Protrider_R</text>
</g>
<!-- 12&#45;&gt;1 -->
<g id="edge12" class="edge"><title>12&#45;&gt;1</title>
<path fill="none" stroke="grey" stroke-width="2" d="M1897.25,-612.832C1906.86,-607.642 1915.87,-601.422 1924,-594 1973.99,-548.348 1906.77,-487.831 1960,-446 1993.2,-419.91 2309.33,-416.984 2340,-446 2392.39,-495.556 2341.76,-1030.53 2376,-1094 2376.95,-1095.77 2378.08,-1097.45 2379.34,-1099.05"/>
<polygon fill="grey" stroke="grey" stroke-width="2" points="2376.97,-1101.64 2386.47,-1106.34 2381.97,-1096.74 2376.97,-1101.64"/>
</g>
<!-- 13 -->
<g id="node14" class="node"><title>13</title>
<path fill="none" stroke="#56d8b9" stroke-width="2" stroke-dasharray="5,2" d="M1879.5,-1547C1879.5,-1547 1510.5,-1547 1510.5,-1547 1504.5,-1547 1498.5,-1541 1498.5,-1535 1498.5,-1535 1498.5,-1523 1498.5,-1523 1498.5,-1517 1504.5,-1511 1510.5,-1511 1510.5,-1511 1879.5,-1511 1879.5,-1511 1885.5,-1511 1891.5,-1517 1891.5,-1523 1891.5,-1523 1891.5,-1535 1891.5,-1535 1891.5,-1541 1885.5,-1547 1879.5,-1547"/>
<text text-anchor="middle" x="1695" y="-1526.5" font-family="sans" font-size="10.00">Scripts_MultiOmics_Proteomics_Protein_complexes_AE_complexes_limma_R</text>
</g>
<!-- 13&#45;&gt;1 -->
<g id="edge13" class="edge"><title>13&#45;&gt;1</title>
<path fill="none" stroke="grey" stroke-width="2" d="M1871.75,-1547.06C1889.65,-1551.08 1907.35,-1556 1924,-1562 1941.64,-1568.36 1941.95,-1578.92 1960,-1584 2041.29,-1606.87 2275.84,-1638.9 2340,-1584 2406.24,-1527.33 2412.38,-1241.12 2412.63,-1149.36"/>
<polygon fill="grey" stroke="grey" stroke-width="2" points="2416.13,-1149.16 2412.63,-1139.16 2409.13,-1149.16 2416.13,-1149.16"/>
</g>
<!-- 13&#45;&gt;35 -->
<g id="edge91" class="edge"><title>13&#45;&gt;35</title>
<path fill="none" stroke="grey" stroke-width="2" d="M1891.73,-1527.7C1936.71,-1527.41 1983.35,-1527.1 2024.36,-1526.83"/>
<polygon fill="grey" stroke="grey" stroke-width="2" points="2024.41,-1530.33 2034.39,-1526.76 2024.36,-1523.33 2024.41,-1530.33"/>
</g>
<!-- 14 -->
<g id="node15" class="node"><title>14</title>
<path fill="none" stroke="#afd856" stroke-width="2" stroke-dasharray="5,2" d="M1885.5,-1607C1885.5,-1607 1504.5,-1607 1504.5,-1607 1498.5,-1607 1492.5,-1601 1492.5,-1595 1492.5,-1595 1492.5,-1583 1492.5,-1583 1492.5,-1577 1498.5,-1571 1504.5,-1571 1504.5,-1571 1885.5,-1571 1885.5,-1571 1891.5,-1571 1897.5,-1577 1897.5,-1583 1897.5,-1583 1897.5,-1595 1897.5,-1595 1897.5,-1601 1891.5,-1607 1885.5,-1607"/>
<text text-anchor="middle" x="1695" y="-1586.5" font-family="sans" font-size="10.00">Scripts_MultiOmics_Proteomics_Protein_complexes_Causal_gene_interaction_R</text>
</g>
<!-- 14&#45;&gt;1 -->
<g id="edge14" class="edge"><title>14&#45;&gt;1</title>
<path fill="none" stroke="grey" stroke-width="2" d="M1865.39,-1607.03C2044.11,-1624.22 2304.83,-1643.37 2340,-1613 2410.48,-1552.15 2413.66,-1244.59 2412.92,-1149.23"/>
<polygon fill="grey" stroke="grey" stroke-width="2" points="2416.41,-1149.14 2412.82,-1139.18 2409.42,-1149.21 2416.41,-1149.14"/>
</g>
<!-- 15&#45;&gt;1 -->
<g id="edge15" class="edge"><title>15&#45;&gt;1</title>
<path fill="none" stroke="grey" stroke-width="2" d="M1847.02,-1980.16C2031.93,-1964.95 2322.88,-1938.45 2340,-1921 2395.14,-1864.77 2409.42,-1284.93 2412.02,-1149.28"/>
<polygon fill="grey" stroke="grey" stroke-width="2" points="2415.52,-1149.32 2412.2,-1139.25 2408.52,-1149.19 2415.52,-1149.32"/>
</g>
<!-- 24 -->
<g id="node25" class="node"><title>24</title>
<path fill="none" stroke="#d87d56" stroke-width="2" stroke-dasharray="5,2" d="M2230,-2070C2230,-2070 2070,-2070 2070,-2070 2064,-2070 2058,-2064 2058,-2058 2058,-2058 2058,-2046 2058,-2046 2058,-2040 2064,-2034 2070,-2034 2070,-2034 2230,-2034 2230,-2034 2236,-2034 2242,-2040 2242,-2046 2242,-2046 2242,-2058 2242,-2058 2242,-2064 2236,-2070 2230,-2070"/>
<text text-anchor="middle" x="2150" y="-2049.5" font-family="sans" font-size="10.00">Scripts_Paper_figures_Figure2_a_R</text>
</g>
<!-- 15&#45;&gt;24 -->
<g id="edge73" class="edge"><title>15&#45;&gt;24</title>
<path fill="none" stroke="grey" stroke-width="2" d="M1831.91,-2010C1901.3,-2019.19 1984.27,-2030.18 2047.94,-2038.61"/>
<polygon fill="grey" stroke="grey" stroke-width="2" points="2047.61,-2042.1 2057.98,-2039.94 2048.53,-2035.16 2047.61,-2042.1"/>
</g>
<!-- 15&#45;&gt;36 -->
<g id="edge95" class="edge"><title>15&#45;&gt;36</title>
<path fill="none" stroke="grey" stroke-width="2" d="M1847.16,-1994C1904.93,-1994.77 1970.07,-1995.63 2025.02,-1996.36"/>
<polygon fill="grey" stroke="grey" stroke-width="2" points="2025.11,-1999.86 2035.16,-1996.49 2025.21,-1992.86 2025.11,-1999.86"/>
</g>
<!-- 16 -->
<g id="node17" class="node"><title>16</title>
<path fill="none" stroke="#56a9d8" stroke-width="2" stroke-dasharray="5,2" d="M1867,-1902C1867,-1902 1523,-1902 1523,-1902 1517,-1902 1511,-1896 1511,-1890 1511,-1890 1511,-1878 1511,-1878 1511,-1872 1517,-1866 1523,-1866 1523,-1866 1867,-1866 1867,-1866 1873,-1866 1879,-1872 1879,-1878 1879,-1878 1879,-1890 1879,-1890 1879,-1896 1873,-1902 1867,-1902"/>
<text text-anchor="middle" x="1695" y="-1881.5" font-family="sans" font-size="10.00">Scripts_MultiOmics_RNA_seq_Aberrant_Expression_OutriderSummary_R</text>
</g>
<!-- 16&#45;&gt;1 -->
<g id="edge16" class="edge"><title>16&#45;&gt;1</title>
<path fill="none" stroke="grey" stroke-width="2" d="M1879.03,-1886.87C2057.61,-1887.78 2307.14,-1883.28 2340,-1852 2391.83,-1802.66 2408.51,-1277.88 2411.83,-1149.31"/>
<polygon fill="grey" stroke="grey" stroke-width="2" points="2415.33,-1149.18 2412.09,-1139.1 2408.34,-1149.01 2415.33,-1149.18"/>
</g>
<!-- 17 -->
<g id="node18" class="node"><title>17</title>
<path fill="none" stroke="#8fd856" stroke-width="2" stroke-dasharray="5,2" d="M1380,-1902C1380,-1902 1006,-1902 1006,-1902 1000,-1902 994,-1896 994,-1890 994,-1890 994,-1878 994,-1878 994,-1872 1000,-1866 1006,-1866 1006,-1866 1380,-1866 1380,-1866 1386,-1866 1392,-1872 1392,-1878 1392,-1878 1392,-1890 1392,-1890 1392,-1896 1386,-1902 1380,-1902"/>
<text text-anchor="middle" x="1193" y="-1881.5" font-family="sans" font-size="10.00">Scripts_MultiOmics_RNA_seq_Aberrant_Expression_detect_outliers_outrider_R</text>
</g>
<!-- 17&#45;&gt;1 -->
<g id="edge17" class="edge"><title>17&#45;&gt;1</title>
<path fill="none" stroke="grey" stroke-width="2" d="M1362.2,-1865.98C1396.52,-1862.68 1432.4,-1859.49 1466,-1857 1514.48,-1853.4 2304.69,-1847.42 2340,-1814 2389.09,-1767.54 2407.73,-1273.97 2411.67,-1149.42"/>
<polygon fill="grey" stroke="grey" stroke-width="2" points="2415.17,-1149.27 2411.98,-1139.17 2408.17,-1149.06 2415.17,-1149.27"/>
</g>
<!-- 17&#45;&gt;7 -->
<g id="edge51" class="edge"><title>17&#45;&gt;7</title>
<path fill="none" stroke="grey" stroke-width="2" d="M1360.84,-1902.02C1417.77,-1908.17 1481.19,-1915.02 1537.3,-1921.08"/>
<polygon fill="grey" stroke="grey" stroke-width="2" points="1537,-1924.56 1547.32,-1922.16 1537.75,-1917.6 1537,-1924.56"/>
</g>
<!-- 17&#45;&gt;8 -->
<g id="edge52" class="edge"><title>17&#45;&gt;8</title>
<path fill="none" stroke="grey" stroke-width="2" d="M1243.53,-1865.79C1298.92,-1842.64 1386.54,-1797.04 1430,-1727 1496.62,-1619.64 1430.74,-1566.33 1466,-1445 1519.64,-1260.42 1634.83,-1057.82 1677.59,-986.026"/>
<polygon fill="grey" stroke="grey" stroke-width="2" points="1680.76,-987.539 1682.89,-977.161 1674.75,-983.943 1680.76,-987.539"/>
</g>
<!-- 17&#45;&gt;16 -->
<g id="edge64" class="edge"><title>17&#45;&gt;16</title>
<path fill="none" stroke="grey" stroke-width="2" d="M1392.33,-1884C1427.94,-1884 1465.01,-1884 1500.49,-1884"/>
<polygon fill="grey" stroke="grey" stroke-width="2" points="1500.94,-1887.5 1510.94,-1884 1500.94,-1880.5 1500.94,-1887.5"/>
</g>
<!-- 18 -->
<g id="node19" class="node"><title>18</title>
<path fill="none" stroke="#56d8b1" stroke-width="2" stroke-dasharray="5,2" d="M1829.5,-2156C1829.5,-2156 1560.5,-2156 1560.5,-2156 1554.5,-2156 1548.5,-2150 1548.5,-2144 1548.5,-2144 1548.5,-2132 1548.5,-2132 1548.5,-2126 1554.5,-2120 1560.5,-2120 1560.5,-2120 1829.5,-2120 1829.5,-2120 1835.5,-2120 1841.5,-2126 1841.5,-2132 1841.5,-2132 1841.5,-2144 1841.5,-2144 1841.5,-2150 1835.5,-2156 1829.5,-2156"/>
<text text-anchor="middle" x="1695" y="-2135.5" font-family="sans" font-size="10.00">Scripts_MultiOmics_RNA_seq_disease_gene_coverage_R</text>
</g>
<!-- 17&#45;&gt;18 -->
<g id="edge67" class="edge"><title>17&#45;&gt;18</title>
<path fill="none" stroke="grey" stroke-width="2" d="M1208.84,-1902.15C1246.46,-1946.69 1350.76,-2061.37 1466,-2111 1488.62,-2120.74 1513.61,-2127.36 1538.5,-2131.78"/>
<polygon fill="grey" stroke="grey" stroke-width="2" points="1537.96,-2135.24 1548.4,-2133.43 1539.11,-2128.34 1537.96,-2135.24"/>
</g>
<!-- 43 -->
<g id="node44" class="node"><title>43</title>
<path fill="none" stroke="#59d856" stroke-width="2" stroke-dasharray="5,2" d="M1796.5,-1718C1796.5,-1718 1593.5,-1718 1593.5,-1718 1587.5,-1718 1581.5,-1712 1581.5,-1706 1581.5,-1706 1581.5,-1694 1581.5,-1694 1581.5,-1688 1587.5,-1682 1593.5,-1682 1593.5,-1682 1796.5,-1682 1796.5,-1682 1802.5,-1682 1808.5,-1688 1808.5,-1694 1808.5,-1694 1808.5,-1706 1808.5,-1706 1808.5,-1712 1802.5,-1718 1796.5,-1718"/>
<text text-anchor="middle" x="1695" y="-1697.5" font-family="sans" font-size="10.00">Scripts_Supplementary_figures_S_Fig2_e_R</text>
</g>
<!-- 17&#45;&gt;43 -->
<g id="edge102" class="edge"><title>17&#45;&gt;43</title>
<path fill="none" stroke="grey" stroke-width="2" d="M1217.52,-1865.92C1262.79,-1832.19 1366.39,-1760.08 1466,-1727 1499.22,-1715.96 1536.49,-1709.32 1571.11,-1705.36"/>
<polygon fill="grey" stroke="grey" stroke-width="2" points="1571.71,-1708.82 1581.28,-1704.26 1570.96,-1701.86 1571.71,-1708.82"/>
</g>
<!-- 18&#45;&gt;1 -->
<g id="edge18" class="edge"><title>18&#45;&gt;1</title>
<path fill="none" stroke="grey" stroke-width="2" d="M1751.07,-2156.05C1875.43,-2192.96 2179.62,-2261.07 2340,-2104 2409.99,-2035.45 2412.78,-1302.93 2412.59,-1149.2"/>
<polygon fill="grey" stroke="grey" stroke-width="2" points="2416.09,-1149.14 2412.57,-1139.15 2409.09,-1149.16 2416.09,-1149.14"/>
</g>
<!-- 18&#45;&gt;24 -->
<g id="edge74" class="edge"><title>18&#45;&gt;24</title>
<path fill="none" stroke="grey" stroke-width="2" d="M1841.5,-2123.82C1869.01,-2120.28 1897.47,-2116.02 1924,-2111 1976.75,-2101.01 2035.39,-2085.48 2079.58,-2072.87"/>
<polygon fill="grey" stroke="grey" stroke-width="2" points="2080.71,-2076.18 2089.35,-2070.06 2078.77,-2069.46 2080.71,-2076.18"/>
</g>
<!-- 18&#45;&gt;36 -->
<g id="edge94" class="edge"><title>18&#45;&gt;36</title>
<path fill="none" stroke="grey" stroke-width="2" d="M1841.56,-2143.49C1871.07,-2138.64 1900.29,-2128.88 1924,-2111 1957.08,-2086.05 1927.22,-2050.34 1960,-2025 1978.7,-2010.54 2001.65,-2002.04 2025.03,-1997.31"/>
<polygon fill="grey" stroke="grey" stroke-width="2" points="2025.84,-2000.72 2035.06,-1995.5 2024.6,-1993.83 2025.84,-2000.72"/>
</g>
<!-- 19&#45;&gt;1 -->
<g id="edge19" class="edge"><title>19&#45;&gt;1</title>
<path fill="none" stroke="grey" stroke-width="2" d="M2307.22,-524.161C2319.52,-529.982 2330.74,-537.75 2340,-548 2421.49,-638.249 2317.72,-987.281 2376,-1094 2376.86,-1095.57 2377.85,-1097.07 2378.95,-1098.51"/>
<polygon fill="grey" stroke="grey" stroke-width="2" points="2376.69,-1101.22 2386.15,-1106 2381.74,-1096.37 2376.69,-1101.22"/>
</g>
<!-- 20&#45;&gt;1 -->
<g id="edge20" class="edge"><title>20&#45;&gt;1</title>
<path fill="none" stroke="grey" stroke-width="2" d="M2326.28,-1291.97C2331.04,-1289.27 2335.63,-1286.29 2340,-1283 2383.22,-1250.42 2401.26,-1186.28 2408.33,-1149.22"/>
<polygon fill="grey" stroke="grey" stroke-width="2" points="2411.83,-1149.56 2410.12,-1139.1 2404.93,-1148.34 2411.83,-1149.56"/>
</g>
<!-- 21&#45;&gt;1 -->
<g id="edge21" class="edge"><title>21&#45;&gt;1</title>
<path fill="none" stroke="grey" stroke-width="2" d="M2302.66,-1246.15C2315.82,-1241.83 2328.49,-1236.23 2340,-1229 2370.05,-1210.13 2390.53,-1173.73 2401.86,-1148.43"/>
<polygon fill="grey" stroke="grey" stroke-width="2" points="2405.17,-1149.59 2405.89,-1139.01 2398.74,-1146.83 2405.17,-1149.59"/>
</g>
<!-- 22&#45;&gt;1 -->
<g id="edge22" class="edge"><title>22&#45;&gt;1</title>
<path fill="none" stroke="grey" stroke-width="2" d="M2314.76,-1183.88C2323.41,-1181.29 2331.88,-1178.35 2340,-1175 2356.82,-1168.06 2373.28,-1156.34 2386.25,-1145.58"/>
<polygon fill="grey" stroke="grey" stroke-width="2" points="2388.54,-1148.22 2393.85,-1139.06 2383.98,-1142.91 2388.54,-1148.22"/>
</g>
<!-- 23&#45;&gt;1 -->
<g id="edge23" class="edge"><title>23&#45;&gt;1</title>
<path fill="none" stroke="grey" stroke-width="2" d="M2236.62,-1139.16C2284.07,-1134.26 2340.56,-1128.43 2376.47,-1124.72"/>
<polygon fill="grey" stroke="grey" stroke-width="2" points="2376.89,-1128.2 2386.48,-1123.69 2376.17,-1121.23 2376.89,-1128.2"/>
</g>
<!-- 24&#45;&gt;1 -->
<g id="edge24" class="edge"><title>24&#45;&gt;1</title>
<path fill="none" stroke="grey" stroke-width="2" d="M2242.4,-2061.54C2277.67,-2060.05 2315.37,-2051.2 2340,-2025 2401.35,-1959.73 2410.92,-1296.13 2412.29,-1149.55"/>
<polygon fill="grey" stroke="grey" stroke-width="2" points="2415.79,-1149.2 2412.38,-1139.17 2408.79,-1149.14 2415.79,-1149.2"/>
</g>
<!-- 25&#45;&gt;1 -->
<g id="edge25" class="edge"><title>25&#45;&gt;1</title>
<path fill="none" stroke="grey" stroke-width="2" d="M2242.09,-1103.41C2288.31,-1108.18 2341.83,-1113.7 2376.38,-1117.27"/>
<polygon fill="grey" stroke="grey" stroke-width="2" points="2376.15,-1120.77 2386.46,-1118.31 2376.87,-1113.8 2376.15,-1120.77"/>
</g>
<!-- 26&#45;&gt;1 -->
<g id="edge26" class="edge"><title>26&#45;&gt;1</title>
<path fill="none" stroke="grey" stroke-width="2" d="M2241.9,-1043.73C2273.84,-1047.42 2309.38,-1054.32 2340,-1067 2358.48,-1074.65 2359.96,-1082.05 2376,-1094 2377.19,-1094.88 2378.39,-1095.78 2379.61,-1096.69"/>
<polygon fill="grey" stroke="grey" stroke-width="2" points="2377.63,-1099.57 2387.74,-1102.72 2381.8,-1093.95 2377.63,-1099.57"/>
</g>
<!-- 27&#45;&gt;1 -->
<g id="edge27" class="edge"><title>27&#45;&gt;1</title>
<path fill="none" stroke="grey" stroke-width="2" d="M2242.2,-981.232C2275.8,-983.781 2312.37,-992.114 2340,-1013 2371.43,-1036.75 2351.35,-1063.27 2376,-1094 2376.92,-1095.15 2377.91,-1096.28 2378.94,-1097.38"/>
<polygon fill="grey" stroke="grey" stroke-width="2" points="2376.58,-1099.97 2386.28,-1104.24 2381.36,-1094.86 2376.58,-1099.97"/>
</g>
<!-- 28&#45;&gt;1 -->
<g id="edge28" class="edge"><title>28&#45;&gt;1</title>
<path fill="none" stroke="grey" stroke-width="2" d="M2241.09,-1425.14C2275.74,-1423.18 2313.33,-1414.63 2340,-1391 2376.4,-1358.74 2400.24,-1211.52 2408.88,-1149.11"/>
<polygon fill="grey" stroke="grey" stroke-width="2" points="2412.35,-1149.54 2410.22,-1139.16 2405.41,-1148.6 2412.35,-1149.54"/>
</g>
<!-- 29&#45;&gt;1 -->
<g id="edge29" class="edge"><title>29&#45;&gt;1</title>
<path fill="none" stroke="grey" stroke-width="2" d="M2242.3,-1370.18C2276.31,-1367.9 2313.13,-1359.38 2340,-1337 2396.82,-1289.68 2409.32,-1196.29 2411.92,-1149.35"/>
<polygon fill="grey" stroke="grey" stroke-width="2" points="2415.42,-1149.41 2412.37,-1139.27 2408.43,-1149.1 2415.42,-1149.41"/>
</g>
<!-- 30&#45;&gt;1 -->
<g id="edge30" class="edge"><title>30&#45;&gt;1</title>
<path fill="none" stroke="grey" stroke-width="2" d="M2242.08,-1479.68C2276.67,-1477.75 2313.96,-1469.08 2340,-1445 2383.48,-1404.8 2403.86,-1220.44 2410.22,-1149.2"/>
<polygon fill="grey" stroke="grey" stroke-width="2" points="2413.72,-1149.43 2411.09,-1139.16 2406.74,-1148.82 2413.72,-1149.43"/>
</g>
<!-- 31&#45;&gt;1 -->
<g id="edge31" class="edge"><title>31&#45;&gt;1</title>
<path fill="none" stroke="grey" stroke-width="2" d="M2242.08,-924.891C2276.46,-926.954 2313.6,-935.564 2340,-959 2386.44,-1000.23 2341.08,-1042.65 2376,-1094 2376.98,-1095.43 2378.05,-1096.82 2379.21,-1098.16"/>
<polygon fill="grey" stroke="grey" stroke-width="2" points="2376.89,-1100.78 2386.49,-1105.26 2381.77,-1095.77 2376.89,-1100.78"/>
</g>
<!-- 32&#45;&gt;1 -->
<g id="edge32" class="edge"><title>32&#45;&gt;1</title>
<path fill="none" stroke="grey" stroke-width="2" d="M2241.53,-378.691C2277.32,-380.925 2315.64,-390.676 2340,-418 2390.06,-474.143 2340.37,-1027.76 2376,-1094 2376.95,-1095.77 2378.08,-1097.46 2379.33,-1099.06"/>
<polygon fill="grey" stroke="grey" stroke-width="2" points="2376.97,-1101.65 2386.47,-1106.34 2381.97,-1096.75 2376.97,-1101.65"/>
</g>
<!-- 33&#45;&gt;1 -->
<g id="edge33" class="edge"><title>33&#45;&gt;1</title>
<path fill="none" stroke="grey" stroke-width="2" d="M2242.48,-869.903C2277.12,-871.775 2314.35,-880.509 2340,-905 2401.85,-964.048 2330.5,-1021.6 2376,-1094 2376.92,-1095.47 2377.96,-1096.88 2379.08,-1098.24"/>
<polygon fill="grey" stroke="grey" stroke-width="2" points="2376.69,-1100.81 2386.23,-1105.43 2381.65,-1095.87 2376.69,-1100.81"/>
</g>
<!-- 34&#45;&gt;1 -->
<g id="edge34" class="edge"><title>34&#45;&gt;1</title>
<path fill="none" stroke="grey" stroke-width="2" d="M2236.7,-815.121C2273.16,-816.154 2313.33,-824.467 2340,-851 2417.4,-928.001 2319.82,-1000.38 2376,-1094 2376.92,-1095.53 2377.96,-1097.01 2379.1,-1098.42"/>
<polygon fill="grey" stroke="grey" stroke-width="2" points="2376.92,-1101.19 2386.45,-1105.83 2381.89,-1096.26 2376.92,-1101.19"/>
</g>
<!-- 35&#45;&gt;1 -->
<g id="edge35" class="edge"><title>35&#45;&gt;1</title>
<path fill="none" stroke="grey" stroke-width="2" d="M2265.51,-1531.76C2292.9,-1527.61 2319.97,-1518.1 2340,-1499 2390.58,-1450.78 2406.9,-1229.02 2411.19,-1149.49"/>
<polygon fill="grey" stroke="grey" stroke-width="2" points="2414.69,-1149.41 2411.71,-1139.24 2407.7,-1149.05 2414.69,-1149.41"/>
</g>
<!-- 36&#45;&gt;1 -->
<g id="edge36" class="edge"><title>36&#45;&gt;1</title>
<path fill="none" stroke="grey" stroke-width="2" d="M2264.69,-2002.26C2292.92,-1997.57 2320.61,-1987.05 2340,-1966 2396.51,-1904.64 2409.78,-1289.78 2412.09,-1149.42"/>
<polygon fill="grey" stroke="grey" stroke-width="2" points="2415.59,-1149.14 2412.25,-1139.08 2408.59,-1149.03 2415.59,-1149.14"/>
</g>
<!-- 37&#45;&gt;1 -->
<g id="edge37" class="edge"><title>37&#45;&gt;1</title>
<path fill="none" stroke="grey" stroke-width="2" d="M2267.9,-763.546C2294.76,-767.828 2320.99,-777.578 2340,-797 2386.51,-844.508 2342.55,-1036.55 2376,-1094 2376.9,-1095.55 2377.93,-1097.03 2379.05,-1098.45"/>
<polygon fill="grey" stroke="grey" stroke-width="2" points="2376.85,-1101.2 2386.35,-1105.89 2381.85,-1096.3 2376.85,-1101.2"/>
</g>
<!-- 38 -->
<g id="node39" class="node"><title>38</title>
<path fill="none" stroke="#56d882" stroke-width="2" stroke-dasharray="5,2" d="M2259.5,-144C2259.5,-144 2040.5,-144 2040.5,-144 2034.5,-144 2028.5,-138 2028.5,-132 2028.5,-132 2028.5,-120 2028.5,-120 2028.5,-114 2034.5,-108 2040.5,-108 2040.5,-108 2259.5,-108 2259.5,-108 2265.5,-108 2271.5,-114 2271.5,-120 2271.5,-120 2271.5,-132 2271.5,-132 2271.5,-138 2265.5,-144 2259.5,-144"/>
<text text-anchor="middle" x="2150" y="-123.5" font-family="sans" font-size="10.00">Scripts_Patient_analysis_samples_overview_R</text>
</g>
<!-- 38&#45;&gt;1 -->
<g id="edge38" class="edge"><title>38&#45;&gt;1</title>
<path fill="none" stroke="grey" stroke-width="2" d="M2271.74,-122.313C2297.7,-127.505 2322.54,-138.123 2340,-158 2408.69,-236.194 2327.37,-1001.98 2376,-1094 2376.94,-1095.78 2378.05,-1097.47 2379.3,-1099.07"/>
<polygon fill="grey" stroke="grey" stroke-width="2" points="2376.92,-1101.65 2386.41,-1106.37 2381.94,-1096.77 2376.92,-1101.65"/>
</g>
<!-- 39 -->
<g id="node40" class="node"><title>39</title>
<path fill="none" stroke="#d89556" stroke-width="2" stroke-dasharray="5,2" d="M2251.5,-90C2251.5,-90 2048.5,-90 2048.5,-90 2042.5,-90 2036.5,-84 2036.5,-78 2036.5,-78 2036.5,-66 2036.5,-66 2036.5,-60 2042.5,-54 2048.5,-54 2048.5,-54 2251.5,-54 2251.5,-54 2257.5,-54 2263.5,-60 2263.5,-66 2263.5,-66 2263.5,-78 2263.5,-78 2263.5,-84 2257.5,-90 2251.5,-90"/>
<text text-anchor="middle" x="2150" y="-69.5" font-family="sans" font-size="10.00">Scripts_Supplementary_figures_S_Fig2_a_R</text>
</g>
<!-- 39&#45;&gt;1 -->
<g id="edge39" class="edge"><title>39&#45;&gt;1</title>
<path fill="none" stroke="grey" stroke-width="2" d="M2263.65,-63.6683C2292.39,-67.4603 2320.6,-77.4372 2340,-99 2413.98,-181.25 2324.42,-996.132 2376,-1094 2376.94,-1095.78 2378.05,-1097.47 2379.29,-1099.07"/>
<polygon fill="grey" stroke="grey" stroke-width="2" points="2376.92,-1101.65 2386.4,-1106.37 2381.93,-1096.77 2376.92,-1101.65"/>
</g>
<!-- 40 -->
<g id="node41" class="node"><title>40</title>
<path fill="none" stroke="#56a2d8" stroke-width="2" stroke-dasharray="5,2" d="M1796.5,-2102C1796.5,-2102 1593.5,-2102 1593.5,-2102 1587.5,-2102 1581.5,-2096 1581.5,-2090 1581.5,-2090 1581.5,-2078 1581.5,-2078 1581.5,-2072 1587.5,-2066 1593.5,-2066 1593.5,-2066 1796.5,-2066 1796.5,-2066 1802.5,-2066 1808.5,-2072 1808.5,-2078 1808.5,-2078 1808.5,-2090 1808.5,-2090 1808.5,-2096 1802.5,-2102 1796.5,-2102"/>
<text text-anchor="middle" x="1695" y="-2081.5" font-family="sans" font-size="10.00">Scripts_Supplementary_figures_S_Fig2_b_R</text>
</g>
<!-- 40&#45;&gt;1 -->
<g id="edge40" class="edge"><title>40&#45;&gt;1</title>
<path fill="none" stroke="grey" stroke-width="2" d="M1808.77,-2091.23C1983.16,-2101.21 2302.24,-2114.28 2340,-2079 2409.63,-2013.94 2412.72,-1301.6 2412.58,-1149.48"/>
<polygon fill="grey" stroke="grey" stroke-width="2" points="2416.08,-1149.12 2412.56,-1139.13 2409.08,-1149.13 2416.08,-1149.12"/>
</g>
<!-- 40&#45;&gt;36 -->
<g id="edge96" class="edge"><title>40&#45;&gt;36</title>
<path fill="none" stroke="grey" stroke-width="2" d="M1808.55,-2079.49C1846.32,-2075.05 1887.98,-2066.87 1924,-2052 1942.49,-2044.37 1941.52,-2032.65 1960,-2025 1980.31,-2016.59 2002.79,-2010.72 2024.95,-2006.64"/>
<polygon fill="grey" stroke="grey" stroke-width="2" points="2025.84,-2010.04 2035.1,-2004.9 2024.65,-2003.14 2025.84,-2010.04"/>
</g>
<!-- 41&#45;&gt;1 -->
<g id="edge41" class="edge"><title>41&#45;&gt;1</title>
<path fill="none" stroke="grey" stroke-width="2" d="M2263.23,-708.582C2291.79,-712.431 2320.02,-722.209 2340,-743 2394.33,-799.533 2337.17,-1025.88 2376,-1094 2376.89,-1095.55 2377.9,-1097.04 2379.02,-1098.47"/>
<polygon fill="grey" stroke="grey" stroke-width="2" points="2376.8,-1101.21 2386.28,-1105.93 2381.81,-1096.32 2376.8,-1101.21"/>
</g>
<!-- 42&#45;&gt;1 -->
<g id="edge42" class="edge"><title>42&#45;&gt;1</title>
<path fill="none" stroke="grey" stroke-width="2" d="M2263.96,-323.896C2292.53,-327.738 2320.58,-337.684 2340,-359 2395.07,-419.44 2337.42,-1021.91 2376,-1094 2376.95,-1095.77 2378.07,-1097.46 2379.32,-1099.06"/>
<polygon fill="grey" stroke="grey" stroke-width="2" points="2376.96,-1101.65 2386.45,-1106.35 2381.96,-1096.75 2376.96,-1101.65"/>
</g>
<!-- 43&#45;&gt;1 -->
<g id="edge43" class="edge"><title>43&#45;&gt;1</title>
<path fill="none" stroke="grey" stroke-width="2" d="M1808.53,-1711.29C1972.35,-1725.06 2265.15,-1738.76 2340,-1670 2378.84,-1634.32 2404.37,-1256.34 2410.86,-1149.18"/>
<polygon fill="grey" stroke="grey" stroke-width="2" points="2414.36,-1149.31 2411.47,-1139.12 2407.38,-1148.89 2414.36,-1149.31"/>
</g>
<!-- 44 -->
<g id="node45" class="node"><title>44</title>
<path fill="none" stroke="#70d856" stroke-width="2" stroke-dasharray="5,2" d="M2250,-36C2250,-36 2050,-36 2050,-36 2044,-36 2038,-30 2038,-24 2038,-24 2038,-12 2038,-12 2038,-6 2044,-0 2050,-0 2050,-0 2250,-0 2250,-0 2256,-0 2262,-6 2262,-12 2262,-12 2262,-24 2262,-24 2262,-30 2256,-36 2250,-36"/>
<text text-anchor="middle" x="2150" y="-15.5" font-family="sans" font-size="10.00">Scripts_Supplementary_figures_S_Fig2_f_R</text>
</g>
<!-- 44&#45;&gt;1 -->
<g id="edge44" class="edge"><title>44&#45;&gt;1</title>
<path fill="none" stroke="grey" stroke-width="2" d="M2262.19,-9.45534C2291.44,-13.0977 2320.29,-23.0492 2340,-45 2417.91,-131.781 2321.72,-990.777 2376,-1094 2376.94,-1095.78 2378.05,-1097.47 2379.29,-1099.08"/>
<polygon fill="grey" stroke="grey" stroke-width="2" points="2376.91,-1101.65 2386.39,-1106.38 2381.93,-1096.77 2376.91,-1101.65"/>
</g>
<!-- 45&#45;&gt;1 -->
<g id="edge45" class="edge"><title>45&#45;&gt;1</title>
<path fill="none" stroke="grey" stroke-width="2" d="M2257.99,-653.746C2288.38,-657.055 2318.91,-666.751 2340,-689 2402.17,-754.568 2331.79,-1015.2 2376,-1094 2376.87,-1095.56 2377.88,-1097.05 2378.99,-1098.48"/>
<polygon fill="grey" stroke="grey" stroke-width="2" points="2376.76,-1101.21 2386.23,-1105.96 2381.79,-1096.34 2376.76,-1101.21"/>
</g>
<!-- 46&#45;&gt;1 -->
<g id="edge46" class="edge"><title>46&#45;&gt;1</title>
<path fill="none" stroke="grey" stroke-width="2" d="M2257.64,-599.559C2288.2,-602.811 2318.91,-612.521 2340,-635 2410.01,-709.611 2326.4,-1004.51 2376,-1094 2376.87,-1095.56 2377.87,-1097.06 2378.97,-1098.5"/>
<polygon fill="grey" stroke="grey" stroke-width="2" points="2376.73,-1101.22 2386.19,-1105.98 2381.77,-1096.35 2376.73,-1101.22"/>
</g>
<!-- 47 -->
<g id="node48" class="node"><title>47</title>
<path fill="none" stroke="#d8c356" stroke-width="2" stroke-dasharray="5,2" d="M1790.5,-1664C1790.5,-1664 1599.5,-1664 1599.5,-1664 1593.5,-1664 1587.5,-1658 1587.5,-1652 1587.5,-1652 1587.5,-1640 1587.5,-1640 1587.5,-1634 1593.5,-1628 1599.5,-1628 1599.5,-1628 1790.5,-1628 1790.5,-1628 1796.5,-1628 1802.5,-1634 1802.5,-1640 1802.5,-1640 1802.5,-1652 1802.5,-1652 1802.5,-1658 1796.5,-1664 1790.5,-1664"/>
<text text-anchor="middle" x="1695" y="-1643.5" font-family="sans" font-size="10.00">Scripts_Supplementary_figures_S_Fig5_R</text>
</g>
<!-- 47&#45;&gt;1 -->
<g id="edge47" class="edge"><title>47&#45;&gt;1</title>
<path fill="none" stroke="grey" stroke-width="2" d="M1802.55,-1659.94C1964.79,-1678.62 2263.07,-1702.09 2340,-1634 2412.95,-1569.43 2414.35,-1246.8 2413.06,-1149.09"/>
<polygon fill="grey" stroke="grey" stroke-width="2" points="2416.56,-1149.02 2412.91,-1139.07 2409.56,-1149.12 2416.56,-1149.02"/>
</g>
<!-- 48 -->
<g id="node49" class="node"><title>48</title>
<path fill="none" stroke="#d8a456" stroke-width="2" stroke-dasharray="5,2" d="M1799.5,-516C1799.5,-516 1590.5,-516 1590.5,-516 1584.5,-516 1578.5,-510 1578.5,-504 1578.5,-504 1578.5,-492 1578.5,-492 1578.5,-486 1584.5,-480 1590.5,-480 1590.5,-480 1799.5,-480 1799.5,-480 1805.5,-480 1811.5,-486 1811.5,-492 1811.5,-492 1811.5,-504 1811.5,-504 1811.5,-510 1805.5,-516 1799.5,-516"/>
<text text-anchor="middle" x="1695" y="-495.5" font-family="sans" font-size="10.00">Scripts_Supplementary_figures_S_Fig5_ab_R</text>
</g>
<!-- 48&#45;&gt;1 -->
<g id="edge48" class="edge"><title>48&#45;&gt;1</title>
<path fill="none" stroke="grey" stroke-width="2" d="M1712.59,-479.702C1751.14,-438.709 1851.79,-340.336 1960,-305 2040.27,-278.787 2278.94,-246.665 2340,-305 2403.45,-365.623 2334.72,-1016.56 2376,-1094 2376.95,-1095.77 2378.06,-1097.46 2379.31,-1099.06"/>
<polygon fill="grey" stroke="grey" stroke-width="2" points="2376.95,-1101.65 2386.44,-1106.36 2381.95,-1096.76 2376.95,-1101.65"/>
</g>
<!-- 49 -->
<g id="node50" class="node"><title>49</title>
<path fill="none" stroke="#d89c56" stroke-width="2" stroke-dasharray="5,2" d="M1418,-838C1418,-838 968,-838 968,-838 962,-838 956,-832 956,-826 956,-826 956,-814 956,-814 956,-808 962,-802 968,-802 968,-802 1418,-802 1418,-802 1424,-802 1430,-808 1430,-814 1430,-814 1430,-826 1430,-826 1430,-832 1424,-838 1418,-838"/>
<text text-anchor="middle" x="1193" y="-817.5" font-family="sans" font-size="10.00">Scripts_MultiOmics_Proteomics_Aberrant_Expression_PROTRIDER_detect_outliers_protrider_R</text>
</g>
<!-- 49&#45;&gt;8 -->
<g id="edge53" class="edge"><title>49&#45;&gt;8</title>
<path fill="none" stroke="grey" stroke-width="2" d="M1258.85,-838.029C1351.46,-863.773 1521.17,-910.953 1619.04,-938.161"/>
<polygon fill="grey" stroke="grey" stroke-width="2" points="1618.29,-941.586 1628.86,-940.892 1620.17,-934.842 1618.29,-941.586"/>
</g>
<!-- 49&#45;&gt;11 -->
<g id="edge56" class="edge"><title>49&#45;&gt;11</title>
<path fill="none" stroke="grey" stroke-width="2" d="M1259.37,-801.959C1352.01,-776.389 1521.08,-729.726 1618.81,-702.753"/>
<polygon fill="grey" stroke="grey" stroke-width="2" points="1619.91,-706.08 1628.62,-700.046 1618.05,-699.332 1619.91,-706.08"/>
</g>
<!-- 49&#45;&gt;12 -->
<g id="edge57" class="edge"><title>49&#45;&gt;12</title>
<path fill="none" stroke="grey" stroke-width="2" d="M1216.31,-801.791C1260.72,-766.651 1364.69,-689.88 1466,-655 1472.58,-652.733 1479.33,-650.65 1486.19,-648.736"/>
<polygon fill="grey" stroke="grey" stroke-width="2" points="1487.54,-651.999 1496.31,-646.052 1485.74,-645.233 1487.54,-651.999"/>
</g>
<!-- 49&#45;&gt;14 -->
<g id="edge61" class="edge"><title>49&#45;&gt;14</title>
<path fill="none" stroke="grey" stroke-width="2" d="M1194.4,-838.087C1197.55,-931.35 1225.07,-1361.07 1466,-1556 1471.48,-1560.44 1477.29,-1564.42 1483.36,-1567.99"/>
<polygon fill="grey" stroke="grey" stroke-width="2" points="1481.97,-1571.21 1492.42,-1572.93 1485.32,-1565.07 1481.97,-1571.21"/>
</g>
<!-- 49&#45;&gt;43 -->
<g id="edge103" class="edge"><title>49&#45;&gt;43</title>
<path fill="none" stroke="grey" stroke-width="2" d="M1197.06,-838.059C1216.54,-950.921 1326.94,-1558.23 1466,-1673 1495.01,-1696.95 1533.62,-1706.9 1570.81,-1709.94"/>
<polygon fill="grey" stroke="grey" stroke-width="2" points="1571.04,-1713.46 1581.25,-1710.61 1571.5,-1706.47 1571.04,-1713.46"/>
</g>
<!-- 49&#45;&gt;47 -->
<g id="edge107" class="edge"><title>49&#45;&gt;47</title>
<path fill="none" stroke="grey" stroke-width="2" d="M1193.8,-838.264C1193.83,-936.406 1207.82,-1404.57 1466,-1616 1496.69,-1641.14 1537.91,-1651.28 1576.86,-1654.28"/>
<polygon fill="grey" stroke="grey" stroke-width="2" points="1577.04,-1657.8 1587.24,-1654.92 1577.47,-1650.81 1577.04,-1657.8"/>
</g>
<!-- 49&#45;&gt;48 -->
<g id="edge110" class="edge"><title>49&#45;&gt;48</title>
<path fill="none" stroke="grey" stroke-width="2" d="M1227.82,-801.79C1276.47,-774.462 1367.25,-719.153 1430,-655 1450.17,-634.379 1444,-619.66 1466,-601 1511.16,-562.685 1572.9,-535.964 1620.74,-519.357"/>
<polygon fill="grey" stroke="grey" stroke-width="2" points="1622.08,-522.599 1630.42,-516.068 1619.83,-515.971 1622.08,-522.599"/>
</g>
<!-- 50&#45;&gt;9 -->
<g id="edge55" class="edge"><title>50&#45;&gt;9</title>
<path fill="none" stroke="grey" stroke-width="2" d="M1360.84,-1718.02C1411.03,-1723.44 1466.26,-1729.4 1517.07,-1734.89"/>
<polygon fill="grey" stroke="grey" stroke-width="2" points="1516.86,-1738.39 1527.18,-1735.98 1517.61,-1731.43 1516.86,-1738.39"/>
</g>
<!-- 50&#45;&gt;13 -->
<g id="edge59" class="edge"><title>50&#45;&gt;13</title>
<path fill="none" stroke="grey" stroke-width="2" d="M1222.05,-1681.84C1269.98,-1651.75 1371.6,-1591.89 1466,-1562 1481.86,-1556.98 1498.58,-1552.72 1515.47,-1549.1"/>
<polygon fill="grey" stroke="grey" stroke-width="2" points="1516.34,-1552.5 1525.43,-1547.05 1514.92,-1545.64 1516.34,-1552.5"/>
</g>
<!-- 50&#45;&gt;43 -->
<g id="edge104" class="edge"><title>50&#45;&gt;43</title>
<path fill="none" stroke="grey" stroke-width="2" d="M1412.58,-1700C1466.92,-1700 1523.27,-1700 1571.15,-1700"/>
<polygon fill="grey" stroke="grey" stroke-width="2" points="1571.23,-1703.5 1581.23,-1700 1571.23,-1696.5 1571.23,-1703.5"/>
</g>
<!-- 50&#45;&gt;47 -->
<g id="edge108" class="edge"><title>50&#45;&gt;47</title>
<path fill="none" stroke="grey" stroke-width="2" d="M1360.84,-1681.98C1431.74,-1674.32 1512.7,-1665.58 1577.06,-1658.63"/>
<polygon fill="grey" stroke="grey" stroke-width="2" points="1577.68,-1662.08 1587.25,-1657.53 1576.93,-1655.12 1577.68,-1662.08"/>
</g>
<!-- 51 -->
<g id="node52" class="node"><title>51</title>
<path fill="none" stroke="#5692d8" stroke-width="2" stroke-dasharray="5,2" d="M1381.5,-646C1381.5,-646 1004.5,-646 1004.5,-646 998.5,-646 992.5,-640 992.5,-634 992.5,-634 992.5,-622 992.5,-622 992.5,-616 998.5,-610 1004.5,-610 1004.5,-610 1381.5,-610 1381.5,-610 1387.5,-610 1393.5,-616 1393.5,-622 1393.5,-622 1393.5,-634 1393.5,-634 1393.5,-640 1387.5,-646 1381.5,-646"/>
<text text-anchor="middle" x="1193" y="-625.5" font-family="sans" font-size="10.00">Scripts_MultiOmics_Proteomics_Protein_complexes_get_CORUM_complexes_R</text>
</g>
<!-- 51&#45;&gt;12 -->
<g id="edge58" class="edge"><title>51&#45;&gt;12</title>
<path fill="none" stroke="grey" stroke-width="2" d="M1393.77,-628C1422.97,-628 1453.12,-628 1482.54,-628"/>
<polygon fill="grey" stroke="grey" stroke-width="2" points="1482.92,-631.5 1492.92,-628 1482.92,-624.5 1482.92,-631.5"/>
</g>
<!-- 51&#45;&gt;13 -->
<g id="edge60" class="edge"><title>51&#45;&gt;13</title>
<path fill="none" stroke="grey" stroke-width="2" d="M1242.07,-646.181C1298.26,-670.287 1388.82,-718.653 1430,-793 1468.06,-861.712 1412.72,-1441.29 1466,-1499 1473.01,-1506.59 1480.93,-1512.95 1489.5,-1518.26"/>
<polygon fill="grey" stroke="grey" stroke-width="2" points="1487.86,-1521.35 1498.29,-1523.22 1491.3,-1515.25 1487.86,-1521.35"/>
</g>
<!-- 51&#45;&gt;32 -->
<g id="edge86" class="edge"><title>51&#45;&gt;32</title>
<path fill="none" stroke="grey" stroke-width="2" d="M1374.31,-609.965C1404.91,-606.944 1436.36,-603.862 1466,-601 1567.75,-591.173 1846.23,-624.351 1924,-558 1972.87,-516.3 1912.7,-461.482 1960,-418 1983.65,-396.253 2016.35,-386.358 2047.9,-382.469"/>
<polygon fill="grey" stroke="grey" stroke-width="2" points="2048.51,-385.925 2058.09,-381.409 2047.79,-378.962 2048.51,-385.925"/>
</g>
<!-- 51&#45;&gt;42 -->
<g id="edge101" class="edge"><title>51&#45;&gt;42</title>
<path fill="none" stroke="grey" stroke-width="2" d="M1307.72,-609.944C1347.1,-601.989 1391.1,-591.164 1430,-577 1447,-570.81 1448.61,-562.978 1466,-558 1564.1,-529.92 1846.92,-591.868 1924,-525 1981.02,-475.529 1904.74,-410.435 1960,-359 1978.13,-342.129 2001.77,-332.805 2026.16,-328.061"/>
<polygon fill="grey" stroke="grey" stroke-width="2" points="2027,-331.469 2036.28,-326.353 2025.83,-324.567 2027,-331.469"/>
</g>
<!-- 52 -->
<g id="node53" class="node"><title>52</title>
<path fill="none" stroke="#ced856" stroke-width="2" stroke-dasharray="5,2" d="M829.5,-2056C829.5,-2056 560.5,-2056 560.5,-2056 554.5,-2056 548.5,-2050 548.5,-2044 548.5,-2044 548.5,-2032 548.5,-2032 548.5,-2026 554.5,-2020 560.5,-2020 560.5,-2020 829.5,-2020 829.5,-2020 835.5,-2020 841.5,-2026 841.5,-2032 841.5,-2032 841.5,-2044 841.5,-2044 841.5,-2050 835.5,-2056 829.5,-2056"/>
<text text-anchor="middle" x="695" y="-2035.5" font-family="sans" font-size="10.00">Scripts_MultiOmics_RNA_seq_create_gene_annotation_R</text>
</g>
<!-- 52&#45;&gt;15 -->
<g id="edge62" class="edge"><title>52&#45;&gt;15</title>
<path fill="none" stroke="grey" stroke-width="2" d="M841.749,-2029.88C878.995,-2027.88 918.976,-2025.8 956,-2024 1154.47,-2014.35 1383.03,-2004.66 1532.56,-1998.51"/>
<polygon fill="grey" stroke="grey" stroke-width="2" points="1532.9,-2002 1542.74,-1998.1 1532.61,-1995.01 1532.9,-2002"/>
</g>
<!-- 52&#45;&gt;17 -->
<g id="edge65" class="edge"><title>52&#45;&gt;17</title>
<path fill="none" stroke="grey" stroke-width="2" d="M754.356,-2019.88C846.703,-1991.21 1026.07,-1935.52 1124.06,-1905.09"/>
<polygon fill="grey" stroke="grey" stroke-width="2" points="1125.35,-1908.36 1133.87,-1902.05 1123.28,-1901.67 1125.35,-1908.36"/>
</g>
<!-- 52&#45;&gt;18 -->
<g id="edge66" class="edge"><title>52&#45;&gt;18</title>
<path fill="none" stroke="grey" stroke-width="2" d="M808.744,-2056.02C854.38,-2062.91 907.621,-2070.44 956,-2076 1156.57,-2099.06 1388.73,-2117.16 1538.28,-2127.7"/>
<polygon fill="grey" stroke="grey" stroke-width="2" points="1538.24,-2131.21 1548.46,-2128.42 1538.73,-2124.23 1538.24,-2131.21"/>
</g>
<!-- 52&#45;&gt;36 -->
<g id="edge93" class="edge"><title>52&#45;&gt;36</title>
<path fill="none" stroke="grey" stroke-width="2" d="M841.683,-2039.4C1071.77,-2040.78 1533.32,-2040.22 1924,-2019 1956.84,-2017.22 1992.3,-2014.35 2025.14,-2011.3"/>
<polygon fill="grey" stroke="grey" stroke-width="2" points="2025.61,-2014.77 2035.24,-2010.35 2024.96,-2007.8 2025.61,-2014.77"/>
</g>
<!-- 52&#45;&gt;40 -->
<g id="edge98" class="edge"><title>52&#45;&gt;40</title>
<path fill="none" stroke="grey" stroke-width="2" d="M841.749,-2046.12C878.995,-2048.12 918.976,-2050.2 956,-2052 1172.41,-2062.52 1424.6,-2073.09 1571.09,-2079.06"/>
<polygon fill="grey" stroke="grey" stroke-width="2" points="1571.32,-2082.58 1581.46,-2079.49 1571.61,-2075.58 1571.32,-2082.58"/>
</g>
<!-- 53 -->
<g id="node54" class="node"><title>53</title>
<path fill="none" stroke="#56d87b" stroke-width="2" stroke-dasharray="5,2" d="M908,-698C908,-698 482,-698 482,-698 476,-698 470,-692 470,-686 470,-686 470,-674 470,-674 470,-668 476,-662 482,-662 482,-662 908,-662 908,-662 914,-662 920,-668 920,-674 920,-674 920,-686 920,-686 920,-692 914,-698 908,-698"/>
<text text-anchor="middle" x="695" y="-677.5" font-family="sans" font-size="10.00">Scripts_MultiOmics_Proteomics_Aberrant_Expression_PROTRIDER_protrider_data_prep_R</text>
</g>
<!-- 53&#45;&gt;48 -->
<g id="edge109" class="edge"><title>53&#45;&gt;48</title>
<path fill="none" stroke="grey" stroke-width="2" d="M747.167,-661.855C799.151,-644.038 882.285,-617.239 956,-601 1168.57,-554.172 1420.53,-524.405 1568.26,-509.502"/>
<polygon fill="grey" stroke="grey" stroke-width="2" points="1568.68,-512.978 1578.28,-508.498 1567.98,-506.013 1568.68,-512.978"/>
</g>
<!-- 53&#45;&gt;49 -->
<g id="edge111" class="edge"><title>53&#45;&gt;49</title>
<path fill="none" stroke="grey" stroke-width="2" d="M759.828,-698.016C851.778,-723.969 1021.11,-771.765 1118.28,-799.191"/>
<polygon fill="grey" stroke="grey" stroke-width="2" points="1117.45,-802.594 1128.02,-801.942 1119.35,-795.858 1117.45,-802.594"/>
</g>
<!-- 54 -->
<g id="node55" class="node"><title>54</title>
<path fill="none" stroke="#56d892" stroke-width="2" stroke-dasharray="5,2" d="M422,-698C422,-698 12,-698 12,-698 6,-698 0,-692 0,-686 0,-686 0,-674 0,-674 0,-668 6,-662 12,-662 12,-662 422,-662 422,-662 428,-662 434,-668 434,-674 434,-674 434,-686 434,-686 434,-692 428,-698 422,-698"/>
<text text-anchor="middle" x="217" y="-677.5" font-family="sans" font-size="10.00">Scripts_MultiOmics_Proteomics_Aberrant_Expression_PROTRIDER_data_imputation_R</text>
</g>
<!-- 54&#45;&gt;53 -->
<g id="edge113" class="edge"><title>54&#45;&gt;53</title>
<path fill="none" stroke="grey" stroke-width="2" d="M434.064,-680C442.632,-680 451.238,-680 459.838,-680"/>
<polygon fill="grey" stroke="grey" stroke-width="2" points="459.927,-683.5 469.927,-680 459.927,-676.5 459.927,-683.5"/>
</g>
</g>
</svg>
