<?xml version="1.0" encoding="UTF-8" standalone="no"?>
<!DOCTYPE svg PUBLIC "-//W3C//DTD SVG 1.1//EN"
 "http://www.w3.org/Graphics/SVG/1.1/DTD/svg11.dtd">
<!-- Generated by graphviz version 2.38.0 (20140413.2041)
 -->
<!-- Title: snakemake_dag Pages: 1 -->
<svg width="3052pt" height="1834pt"
 viewBox="0.00 0.00 3052.00 1834.48" xmlns="http://www.w3.org/2000/svg" xmlns:xlink="http://www.w3.org/1999/xlink">
<g id="graph0" class="graph" transform="scale(1 1) rotate(0) translate(4 1830.48)">
<title>snakemake_dag</title>
<polygon fill="white" stroke="none" points="-4,4 -4,-1830.48 3048,-1830.48 3048,4 -4,4"/>
<!-- 0 -->
<g id="node1" class="node"><title>0</title>
<path fill="none" stroke="#d8bc56" stroke-width="2" d="M3032,-866C3032,-866 3002,-866 3002,-866 2996,-866 2990,-860 2990,-854 2990,-854 2990,-842 2990,-842 2990,-836 2996,-830 3002,-830 3002,-830 3032,-830 3032,-830 3038,-830 3044,-836 3044,-842 3044,-842 3044,-854 3044,-854 3044,-860 3038,-866 3032,-866"/>
<text text-anchor="middle" x="3017" y="-845.5" font-family="sans" font-size="10.00">all</text>
</g>
<!-- 1 -->
<g id="node2" class="node"><title>1</title>
<path fill="none" stroke="#56d892" stroke-width="2" d="M2931.5,-893C2931.5,-893 2901.5,-893 2901.5,-893 2895.5,-893 2889.5,-887 2889.5,-881 2889.5,-881 2889.5,-869 2889.5,-869 2889.5,-863 2895.5,-857 2901.5,-857 2901.5,-857 2931.5,-857 2931.5,-857 2937.5,-857 2943.5,-863 2943.5,-869 2943.5,-869 2943.5,-881 2943.5,-881 2943.5,-887 2937.5,-893 2931.5,-893"/>
<text text-anchor="middle" x="2916.5" y="-872.5" font-family="sans" font-size="10.00">Index</text>
</g>
<!-- 1&#45;&gt;0 -->
<g id="edge1" class="edge"><title>1&#45;&gt;0</title>
<path fill="none" stroke="grey" stroke-width="2" d="M2943.64,-867.835C2954.77,-864.784 2967.94,-861.174 2979.97,-857.876"/>
<polygon fill="grey" stroke="grey" stroke-width="2" points="2981.02,-861.217 2989.74,-855.198 2979.17,-854.466 2981.02,-861.217"/>
</g>
<!-- 2 -->
<g id="node3" class="node"><title>2</title>
<path fill="none" stroke="#d86e56" stroke-width="2" stroke-dasharray="5,2" d="M2942,-839C2942,-839 2891,-839 2891,-839 2885,-839 2879,-833 2879,-827 2879,-827 2879,-815 2879,-815 2879,-809 2885,-803 2891,-803 2891,-803 2942,-803 2942,-803 2948,-803 2954,-809 2954,-815 2954,-815 2954,-827 2954,-827 2954,-833 2948,-839 2942,-839"/>
<text text-anchor="middle" x="2916.5" y="-824" font-family="sans" font-size="10.00">markdown</text>
<text text-anchor="middle" x="2916.5" y="-813" font-family="sans" font-size="10.00">file: readme</text>
</g>
<!-- 2&#45;&gt;0 -->
<g id="edge2" class="edge"><title>2&#45;&gt;0</title>
<path fill="none" stroke="grey" stroke-width="2" d="M2954.18,-831.054C2962.58,-833.356 2971.5,-835.802 2979.88,-838.098"/>
<polygon fill="grey" stroke="grey" stroke-width="2" points="2979.18,-841.536 2989.75,-840.804 2981.03,-834.785 2979.18,-841.536"/>
</g>
<!-- 3 -->
<g id="node4" class="node"><title>3</title>
<path fill="none" stroke="#56a9d8" stroke-width="2" stroke-dasharray="5,2" d="M1359.5,-182C1359.5,-182 1026.5,-182 1026.5,-182 1020.5,-182 1014.5,-176 1014.5,-170 1014.5,-170 1014.5,-158 1014.5,-158 1014.5,-152 1020.5,-146 1026.5,-146 1026.5,-146 1359.5,-146 1359.5,-146 1365.5,-146 1371.5,-152 1371.5,-158 1371.5,-158 1371.5,-170 1371.5,-170 1371.5,-176 1365.5,-182 1359.5,-182"/>
<text text-anchor="middle" x="1193" y="-161.5" font-family="sans" font-size="10.00">Scripts_MultiOmics_HPO_phenotype_Compare_HPOmatch_SemSim_R</text>
</g>
<!-- 3&#45;&gt;1 -->
<g id="edge3" class="edge"><title>3&#45;&gt;1</title>
<path fill="none" stroke="grey" stroke-width="2" d="M1371.57,-160.157C1786.89,-152.031 2790.68,-137.725 2843,-188 2895.96,-238.884 2844.16,-783.345 2879,-848 2879.95,-849.769 2881.08,-851.454 2882.33,-853.054"/>
<polygon fill="grey" stroke="grey" stroke-width="2" points="2879.97,-855.645 2889.47,-860.337 2884.97,-850.745 2879.97,-855.645"/>
</g>
<!-- 7 -->
<g id="node8" class="node"><title>7</title>
<path fill="none" stroke="#5692d8" stroke-width="2" d="M1815,-807C1815,-807 1575,-807 1575,-807 1569,-807 1563,-801 1563,-795 1563,-795 1563,-783 1563,-783 1563,-777 1569,-771 1575,-771 1575,-771 1815,-771 1815,-771 1821,-771 1827,-777 1827,-783 1827,-783 1827,-795 1827,-795 1827,-801 1821,-807 1815,-807"/>
<text text-anchor="middle" x="1695" y="-786.5" font-family="sans" font-size="10.00">Scripts_MultiOmics_Integration_integrate_omics_R</text>
</g>
<!-- 3&#45;&gt;7 -->
<g id="edge47" class="edge"><title>3&#45;&gt;7</title>
<path fill="none" stroke="grey" stroke-width="2" d="M1208.02,-182.173C1247.96,-233.889 1365.92,-386.189 1466,-511 1540.93,-604.451 1631.64,-714.009 1672.37,-763.016"/>
<polygon fill="grey" stroke="grey" stroke-width="2" points="1669.84,-765.447 1678.92,-770.899 1675.22,-760.972 1669.84,-765.447"/>
</g>
<!-- 4 -->
<g id="node5" class="node"><title>4</title>
<path fill="none" stroke="#56d8c1" stroke-width="2" stroke-dasharray="5,2" d="M816.5,-209C816.5,-209 573.5,-209 573.5,-209 567.5,-209 561.5,-203 561.5,-197 561.5,-197 561.5,-185 561.5,-185 561.5,-179 567.5,-173 573.5,-173 573.5,-173 816.5,-173 816.5,-173 822.5,-173 828.5,-179 828.5,-185 828.5,-185 828.5,-197 828.5,-197 828.5,-203 822.5,-209 816.5,-209"/>
<text text-anchor="middle" x="695" y="-188.5" font-family="sans" font-size="10.00">Scripts_MultiOmics_HPO_phenotype_HPO_match_R</text>
</g>
<!-- 4&#45;&gt;1 -->
<g id="edge4" class="edge"><title>4&#45;&gt;1</title>
<path fill="none" stroke="grey" stroke-width="2" d="M828.63,-191.347C1293.89,-192.712 2824.72,-198.529 2843,-216 2893.85,-264.597 2845.56,-786.12 2879,-848 2879.96,-849.768 2881.08,-851.452 2882.34,-853.051"/>
<polygon fill="grey" stroke="grey" stroke-width="2" points="2879.98,-855.644 2889.48,-860.332 2884.98,-850.742 2879.98,-855.644"/>
</g>
<!-- 4&#45;&gt;3 -->
<g id="edge43" class="edge"><title>4&#45;&gt;3</title>
<path fill="none" stroke="grey" stroke-width="2" d="M828.593,-183.782C882.441,-180.851 945.631,-177.411 1004.08,-174.229"/>
<polygon fill="grey" stroke="grey" stroke-width="2" points="1004.38,-177.718 1014.18,-173.68 1004,-170.729 1004.38,-177.718"/>
</g>
<!-- 5 -->
<g id="node6" class="node"><title>5</title>
<path fill="none" stroke="#5673d8" stroke-width="2" stroke-dasharray="5,2" d="M2317.5,-872C2317.5,-872 2041.5,-872 2041.5,-872 2035.5,-872 2029.5,-866 2029.5,-860 2029.5,-860 2029.5,-848 2029.5,-848 2029.5,-842 2035.5,-836 2041.5,-836 2041.5,-836 2317.5,-836 2317.5,-836 2323.5,-836 2329.5,-842 2329.5,-848 2329.5,-848 2329.5,-860 2329.5,-860 2329.5,-866 2323.5,-872 2317.5,-872"/>
<text text-anchor="middle" x="2179.5" y="-851.5" font-family="sans" font-size="10.00">Scripts_MultiOmics_HPO_phenotype_Organ_involvment_R</text>
</g>
<!-- 5&#45;&gt;1 -->
<g id="edge5" class="edge"><title>5&#45;&gt;1</title>
<path fill="none" stroke="grey" stroke-width="2" d="M2329.53,-856.571C2463.83,-859.186 2666.68,-863.875 2843,-871 2854.77,-871.475 2867.6,-872.136 2879.15,-872.784"/>
<polygon fill="grey" stroke="grey" stroke-width="2" points="2879.15,-876.29 2889.33,-873.37 2879.55,-869.301 2879.15,-876.29"/>
</g>
<!-- 24 -->
<g id="node25" class="node"><title>24</title>
<path fill="none" stroke="#68d856" stroke-width="2" d="M2718,-970C2718,-970 2560,-970 2560,-970 2554,-970 2548,-964 2548,-958 2548,-958 2548,-946 2548,-946 2548,-940 2554,-934 2560,-934 2560,-934 2718,-934 2718,-934 2724,-934 2730,-940 2730,-946 2730,-946 2730,-958 2730,-958 2730,-964 2724,-970 2718,-970"/>
<text text-anchor="middle" x="2639" y="-949.5" font-family="sans" font-size="10.00">Scripts_Paper_figures_Figure2_f_R</text>
</g>
<!-- 5&#45;&gt;24 -->
<g id="edge69" class="edge"><title>5&#45;&gt;24</title>
<path fill="none" stroke="grey" stroke-width="2" d="M2236.55,-872.078C2287.76,-888.005 2365.8,-910.817 2435,-925 2468.22,-931.809 2504.87,-937.292 2537.78,-941.492"/>
<polygon fill="grey" stroke="grey" stroke-width="2" points="2537.5,-944.985 2547.86,-942.754 2538.37,-938.039 2537.5,-944.985"/>
</g>
<!-- 25 -->
<g id="node26" class="node"><title>25</title>
<path fill="none" stroke="#80d856" stroke-width="2" d="M2719,-916C2719,-916 2559,-916 2559,-916 2553,-916 2547,-910 2547,-904 2547,-904 2547,-892 2547,-892 2547,-886 2553,-880 2559,-880 2559,-880 2719,-880 2719,-880 2725,-880 2731,-886 2731,-892 2731,-892 2731,-904 2731,-904 2731,-910 2725,-916 2719,-916"/>
<text text-anchor="middle" x="2639" y="-895.5" font-family="sans" font-size="10.00">Scripts_Paper_figures_Figure2_g_R</text>
</g>
<!-- 5&#45;&gt;25 -->
<g id="edge71" class="edge"><title>5&#45;&gt;25</title>
<path fill="none" stroke="grey" stroke-width="2" d="M2329.67,-868.346C2397.47,-874.867 2475.93,-882.413 2536.74,-888.261"/>
<polygon fill="grey" stroke="grey" stroke-width="2" points="2536.43,-891.748 2546.72,-889.221 2537.1,-884.78 2536.43,-891.748"/>
</g>
<!-- 26 -->
<g id="node27" class="node"><title>26</title>
<path fill="none" stroke="#56d873" stroke-width="2" d="M2719,-824C2719,-824 2559,-824 2559,-824 2553,-824 2547,-818 2547,-812 2547,-812 2547,-800 2547,-800 2547,-794 2553,-788 2559,-788 2559,-788 2719,-788 2719,-788 2725,-788 2731,-794 2731,-800 2731,-800 2731,-812 2731,-812 2731,-818 2725,-824 2719,-824"/>
<text text-anchor="middle" x="2639" y="-803.5" font-family="sans" font-size="10.00">Scripts_Paper_figures_Figure2_h_R</text>
</g>
<!-- 5&#45;&gt;26 -->
<g id="edge73" class="edge"><title>5&#45;&gt;26</title>
<path fill="none" stroke="grey" stroke-width="2" d="M2329.67,-838.349C2397.47,-831.236 2475.93,-823.004 2536.74,-816.624"/>
<polygon fill="grey" stroke="grey" stroke-width="2" points="2537.14,-820.101 2546.72,-815.577 2536.41,-813.139 2537.14,-820.101"/>
</g>
<!-- 31 -->
<g id="node32" class="node"><title>31</title>
<path fill="none" stroke="#56a2d8" stroke-width="2" d="M2742.5,-770C2742.5,-770 2535.5,-770 2535.5,-770 2529.5,-770 2523.5,-764 2523.5,-758 2523.5,-758 2523.5,-746 2523.5,-746 2523.5,-740 2529.5,-734 2535.5,-734 2535.5,-734 2742.5,-734 2742.5,-734 2748.5,-734 2754.5,-740 2754.5,-746 2754.5,-746 2754.5,-758 2754.5,-758 2754.5,-764 2748.5,-770 2742.5,-770"/>
<text text-anchor="middle" x="2639" y="-749.5" font-family="sans" font-size="10.00">Scripts_Patient_analysis_Patient_analysis_R</text>
</g>
<!-- 5&#45;&gt;31 -->
<g id="edge80" class="edge"><title>5&#45;&gt;31</title>
<path fill="none" stroke="grey" stroke-width="2" d="M2233.02,-835.932C2284.06,-818.994 2364.04,-794.081 2435,-779 2460.21,-773.642 2487.42,-769.154 2513.47,-765.472"/>
<polygon fill="grey" stroke="grey" stroke-width="2" points="2513.97,-768.937 2523.4,-764.101 2513.01,-762.003 2513.97,-768.937"/>
</g>
<!-- 32 -->
<g id="node33" class="node"><title>32</title>
<path fill="none" stroke="#a7d856" stroke-width="2" d="M2769.5,-1024C2769.5,-1024 2508.5,-1024 2508.5,-1024 2502.5,-1024 2496.5,-1018 2496.5,-1012 2496.5,-1012 2496.5,-1000 2496.5,-1000 2496.5,-994 2502.5,-988 2508.5,-988 2508.5,-988 2769.5,-988 2769.5,-988 2775.5,-988 2781.5,-994 2781.5,-1000 2781.5,-1000 2781.5,-1012 2781.5,-1012 2781.5,-1018 2775.5,-1024 2769.5,-1024"/>
<text text-anchor="middle" x="2639" y="-1003.5" font-family="sans" font-size="10.00">Scripts_Patient_analysis_Patient_analysis_validation_R</text>
</g>
<!-- 5&#45;&gt;32 -->
<g id="edge82" class="edge"><title>5&#45;&gt;32</title>
<path fill="none" stroke="grey" stroke-width="2" d="M2216.78,-872.007C2285.71,-906.193 2429.28,-977.266 2435,-979 2451.35,-983.959 2468.72,-988.007 2486.15,-991.312"/>
<polygon fill="grey" stroke="grey" stroke-width="2" points="2485.95,-994.832 2496.41,-993.173 2487.2,-987.945 2485.95,-994.832"/>
</g>
<!-- 6 -->
<g id="node7" class="node"><title>6</title>
<path fill="none" stroke="#61d856" stroke-width="2" stroke-dasharray="5,2" d="M837,-146C837,-146 553,-146 553,-146 547,-146 541,-140 541,-134 541,-134 541,-122 541,-122 541,-116 547,-110 553,-110 553,-110 837,-110 837,-110 843,-110 849,-116 849,-122 849,-122 849,-134 849,-134 849,-140 843,-146 837,-146"/>
<text text-anchor="middle" x="695" y="-125.5" font-family="sans" font-size="10.00">Scripts_MultiOmics_HPO_phenotype_Semantic_similarity_R</text>
</g>
<!-- 6&#45;&gt;1 -->
<g id="edge6" class="edge"><title>6&#45;&gt;1</title>
<path fill="none" stroke="grey" stroke-width="2" d="M849.015,-125.515C1044.87,-122.554 1394.67,-118 1694,-118 1694,-118 1694,-118 2180.5,-118 2254.2,-118 2790.84,-98.9324 2843,-151 2897.88,-205.784 2842.32,-779.678 2879,-848 2879.95,-849.771 2881.07,-851.457 2882.33,-853.057"/>
<polygon fill="grey" stroke="grey" stroke-width="2" points="2879.96,-855.646 2889.46,-860.343 2884.97,-850.749 2879.96,-855.646"/>
</g>
<!-- 6&#45;&gt;3 -->
<g id="edge44" class="edge"><title>6&#45;&gt;3</title>
<path fill="none" stroke="grey" stroke-width="2" d="M849.202,-139.12C898.158,-142.673 952.916,-146.647 1004.05,-150.358"/>
<polygon fill="grey" stroke="grey" stroke-width="2" points="1004,-153.864 1014.23,-151.097 1004.51,-146.882 1004,-153.864"/>
</g>
<!-- 7&#45;&gt;1 -->
<g id="edge7" class="edge"><title>7&#45;&gt;1</title>
<path fill="none" stroke="grey" stroke-width="2" d="M1707.42,-770.774C1739.7,-721.221 1837.29,-584.444 1960,-535 2140.97,-462.077 2204.05,-527.11 2399,-535 2448.45,-537.002 2807.17,-536.858 2843,-571 2932.88,-656.638 2816.07,-740.984 2879,-848 2879.91,-849.541 2880.94,-851.022 2882.07,-852.44"/>
<polygon fill="grey" stroke="grey" stroke-width="2" points="2879.87,-855.2 2889.38,-859.869 2884.86,-850.288 2879.87,-855.2"/>
</g>
<!-- 17 -->
<g id="node18" class="node"><title>17</title>
<path fill="none" stroke="#56d0d8" stroke-width="2" d="M2324.5,-488C2324.5,-488 2034.5,-488 2034.5,-488 2028.5,-488 2022.5,-482 2022.5,-476 2022.5,-476 2022.5,-464 2022.5,-464 2022.5,-458 2028.5,-452 2034.5,-452 2034.5,-452 2324.5,-452 2324.5,-452 2330.5,-452 2336.5,-458 2336.5,-464 2336.5,-464 2336.5,-476 2336.5,-476 2336.5,-482 2330.5,-488 2324.5,-488"/>
<text text-anchor="middle" x="2179.5" y="-467.5" font-family="sans" font-size="10.00">Scripts_MultiOmics_Variant_analysis_enrichment_analysis_R</text>
</g>
<!-- 7&#45;&gt;17 -->
<g id="edge60" class="edge"><title>7&#45;&gt;17</title>
<path fill="none" stroke="grey" stroke-width="2" d="M1706.33,-770.966C1737.18,-719.003 1834.31,-568.441 1960,-502 1976.3,-493.381 1994.2,-486.872 2012.5,-481.983"/>
<polygon fill="grey" stroke="grey" stroke-width="2" points="2013.56,-485.327 2022.41,-479.501 2011.86,-478.537 2013.56,-485.327"/>
</g>
<!-- 18 -->
<g id="node19" class="node"><title>18</title>
<path fill="none" stroke="#56d87b" stroke-width="2" d="M2779.5,-434C2779.5,-434 2498.5,-434 2498.5,-434 2492.5,-434 2486.5,-428 2486.5,-422 2486.5,-422 2486.5,-410 2486.5,-410 2486.5,-404 2492.5,-398 2498.5,-398 2498.5,-398 2779.5,-398 2779.5,-398 2785.5,-398 2791.5,-404 2791.5,-410 2791.5,-410 2791.5,-422 2791.5,-422 2791.5,-428 2785.5,-434 2779.5,-434"/>
<text text-anchor="middle" x="2639" y="-413.5" font-family="sans" font-size="10.00">Scripts_MultiOmics_Variant_analysis_outlier_proportions_R</text>
</g>
<!-- 7&#45;&gt;18 -->
<g id="edge61" class="edge"><title>7&#45;&gt;18</title>
<path fill="none" stroke="grey" stroke-width="2" d="M1713.13,-770.805C1753.09,-727.824 1854.35,-615.729 1924,-511 1942.94,-482.526 1931.06,-461.218 1960,-443 2002.52,-416.232 2289.5,-413.151 2476.22,-414.073"/>
<polygon fill="grey" stroke="grey" stroke-width="2" points="2476.4,-417.574 2486.42,-414.128 2476.44,-410.574 2476.4,-417.574"/>
</g>
<!-- 19 -->
<g id="node20" class="node"><title>19</title>
<path fill="none" stroke="#566bd8" stroke-width="2" d="M2713.5,-380C2713.5,-380 2564.5,-380 2564.5,-380 2558.5,-380 2552.5,-374 2552.5,-368 2552.5,-368 2552.5,-356 2552.5,-356 2552.5,-350 2558.5,-344 2564.5,-344 2564.5,-344 2713.5,-344 2713.5,-344 2719.5,-344 2725.5,-350 2725.5,-356 2725.5,-356 2725.5,-368 2725.5,-368 2725.5,-374 2719.5,-380 2713.5,-380"/>
<text text-anchor="middle" x="2639" y="-359.5" font-family="sans" font-size="10.00">Scripts_Paper_figures_Figure1_R</text>
</g>
<!-- 7&#45;&gt;19 -->
<g id="edge62" class="edge"><title>7&#45;&gt;19</title>
<path fill="none" stroke="grey" stroke-width="2" d="M1714.79,-770.814C1757.36,-728.721 1862.22,-619.843 1924,-511 1947.32,-469.919 1922.36,-439.538 1960,-411 1982.82,-393.703 2360.72,-374.469 2542.2,-366.177"/>
<polygon fill="grey" stroke="grey" stroke-width="2" points="2542.45,-369.67 2552.28,-365.719 2542.13,-362.677 2542.45,-369.67"/>
</g>
<!-- 21 -->
<g id="node22" class="node"><title>21</title>
<path fill="none" stroke="#56c9d8" stroke-width="2" d="M2259.5,-358C2259.5,-358 2099.5,-358 2099.5,-358 2093.5,-358 2087.5,-352 2087.5,-346 2087.5,-346 2087.5,-334 2087.5,-334 2087.5,-328 2093.5,-322 2099.5,-322 2099.5,-322 2259.5,-322 2259.5,-322 2265.5,-322 2271.5,-328 2271.5,-334 2271.5,-334 2271.5,-346 2271.5,-346 2271.5,-352 2265.5,-358 2259.5,-358"/>
<text text-anchor="middle" x="2179.5" y="-337.5" font-family="sans" font-size="10.00">Scripts_Paper_figures_Figure2_b_R</text>
</g>
<!-- 7&#45;&gt;21 -->
<g id="edge65" class="edge"><title>7&#45;&gt;21</title>
<path fill="none" stroke="grey" stroke-width="2" d="M1715.84,-770.889C1760.1,-729.369 1867.44,-622.294 1924,-511 1952.91,-454.108 1912.51,-414.623 1960,-372 1991.5,-343.731 2036.47,-333.892 2077.43,-331.845"/>
<polygon fill="grey" stroke="grey" stroke-width="2" points="2077.6,-335.342 2087.47,-331.492 2077.35,-328.346 2077.6,-335.342"/>
</g>
<!-- 22 -->
<g id="node23" class="node"><title>22</title>
<path fill="none" stroke="#567bd8" stroke-width="2" d="M2259,-304C2259,-304 2100,-304 2100,-304 2094,-304 2088,-298 2088,-292 2088,-292 2088,-280 2088,-280 2088,-274 2094,-268 2100,-268 2100,-268 2259,-268 2259,-268 2265,-268 2271,-274 2271,-280 2271,-280 2271,-292 2271,-292 2271,-298 2265,-304 2259,-304"/>
<text text-anchor="middle" x="2179.5" y="-283.5" font-family="sans" font-size="10.00">Scripts_Paper_figures_Figure2_c_R</text>
</g>
<!-- 7&#45;&gt;22 -->
<g id="edge66" class="edge"><title>7&#45;&gt;22</title>
<path fill="none" stroke="grey" stroke-width="2" d="M1716.77,-770.868C1762.45,-729.716 1871.71,-624.015 1924,-511 1961.56,-429.826 1894.98,-374.421 1960,-313 1990.93,-283.781 2036.28,-274.868 2077.66,-274.126"/>
<polygon fill="grey" stroke="grey" stroke-width="2" points="2077.81,-277.626 2087.8,-274.103 2077.79,-270.626 2077.81,-277.626"/>
</g>
<!-- 23 -->
<g id="node24" class="node"><title>23</title>
<path fill="none" stroke="#56d8b1" stroke-width="2" d="M2259.5,-1202C2259.5,-1202 2099.5,-1202 2099.5,-1202 2093.5,-1202 2087.5,-1196 2087.5,-1190 2087.5,-1190 2087.5,-1178 2087.5,-1178 2087.5,-1172 2093.5,-1166 2099.5,-1166 2099.5,-1166 2259.5,-1166 2259.5,-1166 2265.5,-1166 2271.5,-1172 2271.5,-1178 2271.5,-1178 2271.5,-1190 2271.5,-1190 2271.5,-1196 2265.5,-1202 2259.5,-1202"/>
<text text-anchor="middle" x="2179.5" y="-1181.5" font-family="sans" font-size="10.00">Scripts_Paper_figures_Figure2_d_R</text>
</g>
<!-- 7&#45;&gt;23 -->
<g id="edge67" class="edge"><title>7&#45;&gt;23</title>
<path fill="none" stroke="grey" stroke-width="2" d="M1702.79,-807.222C1726.82,-868.86 1814.29,-1070.51 1960,-1157 1994.77,-1177.64 2038.12,-1185.83 2077.02,-1188.34"/>
<polygon fill="grey" stroke="grey" stroke-width="2" points="2077.16,-1191.85 2087.33,-1188.88 2077.53,-1184.86 2077.16,-1191.85"/>
</g>
<!-- 7&#45;&gt;24 -->
<g id="edge68" class="edge"><title>7&#45;&gt;24</title>
<path fill="none" stroke="grey" stroke-width="2" d="M1725.94,-807.2C1773.53,-835.079 1870.26,-887.486 1960,-910 2160.25,-960.241 2403.68,-961.409 2537.59,-957.126"/>
<polygon fill="grey" stroke="grey" stroke-width="2" points="2537.96,-960.616 2547.83,-956.781 2537.72,-953.62 2537.96,-960.616"/>
</g>
<!-- 7&#45;&gt;25 -->
<g id="edge70" class="edge"><title>7&#45;&gt;25</title>
<path fill="none" stroke="grey" stroke-width="2" d="M1735.65,-807.189C1786.4,-829.439 1877.63,-865.994 1960,-881 2161.95,-917.789 2403.27,-912.356 2536.68,-905.145"/>
<polygon fill="grey" stroke="grey" stroke-width="2" points="2537.1,-908.628 2546.89,-904.579 2536.71,-901.639 2537.1,-908.628"/>
</g>
<!-- 7&#45;&gt;26 -->
<g id="edge72" class="edge"><title>7&#45;&gt;26</title>
<path fill="none" stroke="grey" stroke-width="2" d="M1827.48,-791.373C2017.59,-794.804 2365.22,-801.077 2536.76,-804.173"/>
<polygon fill="grey" stroke="grey" stroke-width="2" points="2536.74,-807.673 2546.8,-804.354 2536.87,-800.674 2536.74,-807.673"/>
</g>
<!-- 27 -->
<g id="node28" class="node"><title>27</title>
<path fill="none" stroke="#56d86b" stroke-width="2" d="M2259.5,-1148C2259.5,-1148 2099.5,-1148 2099.5,-1148 2093.5,-1148 2087.5,-1142 2087.5,-1136 2087.5,-1136 2087.5,-1124 2087.5,-1124 2087.5,-1118 2093.5,-1112 2099.5,-1112 2099.5,-1112 2259.5,-1112 2259.5,-1112 2265.5,-1112 2271.5,-1118 2271.5,-1124 2271.5,-1124 2271.5,-1136 2271.5,-1136 2271.5,-1142 2265.5,-1148 2259.5,-1148"/>
<text text-anchor="middle" x="2179.5" y="-1127.5" font-family="sans" font-size="10.00">Scripts_Paper_figures_Figure3_a_R</text>
</g>
<!-- 7&#45;&gt;27 -->
<g id="edge74" class="edge"><title>7&#45;&gt;27</title>
<path fill="none" stroke="grey" stroke-width="2" d="M1704.96,-807.255C1733.34,-862.901 1827.3,-1030.97 1960,-1103 1995.31,-1122.17 2038.46,-1130.15 2077.05,-1132.89"/>
<polygon fill="grey" stroke="grey" stroke-width="2" points="2077.09,-1136.4 2087.28,-1133.51 2077.51,-1129.41 2077.09,-1136.4"/>
</g>
<!-- 28 -->
<g id="node29" class="node"><title>28</title>
<path fill="none" stroke="#d88556" stroke-width="2" d="M2718.5,-1284C2718.5,-1284 2559.5,-1284 2559.5,-1284 2553.5,-1284 2547.5,-1278 2547.5,-1272 2547.5,-1272 2547.5,-1260 2547.5,-1260 2547.5,-1254 2553.5,-1248 2559.5,-1248 2559.5,-1248 2718.5,-1248 2718.5,-1248 2724.5,-1248 2730.5,-1254 2730.5,-1260 2730.5,-1260 2730.5,-1272 2730.5,-1272 2730.5,-1278 2724.5,-1284 2718.5,-1284"/>
<text text-anchor="middle" x="2639" y="-1263.5" font-family="sans" font-size="10.00">Scripts_Paper_figures_Figure3_c_R</text>
</g>
<!-- 7&#45;&gt;28 -->
<g id="edge75" class="edge"><title>7&#45;&gt;28</title>
<path fill="none" stroke="grey" stroke-width="2" d="M1700.02,-807.208C1716.79,-878.3 1788.47,-1138.29 1960,-1241 2054.47,-1297.57 2372.57,-1284.84 2537.28,-1273.87"/>
<polygon fill="grey" stroke="grey" stroke-width="2" points="2537.68,-1277.35 2547.42,-1273.18 2537.2,-1270.36 2537.68,-1277.35"/>
</g>
<!-- 29 -->
<g id="node30" class="node"><title>29</title>
<path fill="none" stroke="#56d8b9" stroke-width="2" d="M2259.5,-1094C2259.5,-1094 2099.5,-1094 2099.5,-1094 2093.5,-1094 2087.5,-1088 2087.5,-1082 2087.5,-1082 2087.5,-1070 2087.5,-1070 2087.5,-1064 2093.5,-1058 2099.5,-1058 2099.5,-1058 2259.5,-1058 2259.5,-1058 2265.5,-1058 2271.5,-1064 2271.5,-1070 2271.5,-1070 2271.5,-1082 2271.5,-1082 2271.5,-1088 2265.5,-1094 2259.5,-1094"/>
<text text-anchor="middle" x="2179.5" y="-1073.5" font-family="sans" font-size="10.00">Scripts_Paper_figures_Figure3_e_R</text>
</g>
<!-- 7&#45;&gt;29 -->
<g id="edge77" class="edge"><title>7&#45;&gt;29</title>
<path fill="none" stroke="grey" stroke-width="2" d="M1707.9,-807.204C1741.02,-856.168 1839.83,-990.897 1960,-1049 1995.93,-1066.37 2038.9,-1074.07 2077.19,-1077.08"/>
<polygon fill="grey" stroke="grey" stroke-width="2" points="2077.12,-1080.59 2087.34,-1077.79 2077.6,-1073.6 2077.12,-1080.59"/>
</g>
<!-- 30 -->
<g id="node31" class="node"><title>30</title>
<path fill="none" stroke="#56d882" stroke-width="2" d="M2254,-1040C2254,-1040 2105,-1040 2105,-1040 2099,-1040 2093,-1034 2093,-1028 2093,-1028 2093,-1016 2093,-1016 2093,-1010 2099,-1004 2105,-1004 2105,-1004 2254,-1004 2254,-1004 2260,-1004 2266,-1010 2266,-1016 2266,-1016 2266,-1028 2266,-1028 2266,-1034 2260,-1040 2254,-1040"/>
<text text-anchor="middle" x="2179.5" y="-1019.5" font-family="sans" font-size="10.00">Scripts_Paper_figures_Figure4_R</text>
</g>
<!-- 7&#45;&gt;30 -->
<g id="edge78" class="edge"><title>7&#45;&gt;30</title>
<path fill="none" stroke="grey" stroke-width="2" d="M1713.13,-807.235C1752.4,-847.78 1853.8,-945.339 1960,-990 1998.36,-1006.13 2043.48,-1014.34 2082.72,-1018.44"/>
<polygon fill="grey" stroke="grey" stroke-width="2" points="2082.54,-1021.94 2092.83,-1019.42 2083.21,-1014.97 2082.54,-1021.94"/>
</g>
<!-- 7&#45;&gt;31 -->
<g id="edge79" class="edge"><title>7&#45;&gt;31</title>
<path fill="none" stroke="grey" stroke-width="2" d="M1827.48,-783.836C2009.25,-776.696 2335.02,-763.901 2513.19,-756.902"/>
<polygon fill="grey" stroke="grey" stroke-width="2" points="2513.54,-760.391 2523.4,-756.501 2513.27,-753.397 2513.54,-760.391"/>
</g>
<!-- 7&#45;&gt;32 -->
<g id="edge81" class="edge"><title>7&#45;&gt;32</title>
<path fill="none" stroke="grey" stroke-width="2" d="M1717.91,-807.091C1761.09,-841.56 1861.52,-916.051 1960,-948 2008.65,-963.785 2301.78,-984.757 2486.33,-996.674"/>
<polygon fill="grey" stroke="grey" stroke-width="2" points="2486.2,-1000.17 2496.41,-997.323 2486.65,-993.187 2486.2,-1000.17"/>
</g>
<!-- 33 -->
<g id="node34" class="node"><title>33</title>
<path fill="none" stroke="#d85656" stroke-width="2" d="M2285,-742C2285,-742 2074,-742 2074,-742 2068,-742 2062,-736 2062,-730 2062,-730 2062,-718 2062,-718 2062,-712 2068,-706 2074,-706 2074,-706 2285,-706 2285,-706 2291,-706 2297,-712 2297,-718 2297,-718 2297,-730 2297,-730 2297,-736 2291,-742 2285,-742"/>
<text text-anchor="middle" x="2179.5" y="-721.5" font-family="sans" font-size="10.00">Scripts_Patient_analysis_diagnosed_cases_R</text>
</g>
<!-- 7&#45;&gt;33 -->
<g id="edge83" class="edge"><title>7&#45;&gt;33</title>
<path fill="none" stroke="grey" stroke-width="2" d="M1827.21,-771.324C1897.03,-761.919 1982.5,-750.405 2051.65,-741.089"/>
<polygon fill="grey" stroke="grey" stroke-width="2" points="2052.28,-744.535 2061.73,-739.731 2051.35,-737.598 2052.28,-744.535"/>
</g>
<!-- 36 -->
<g id="node37" class="node"><title>36</title>
<path fill="none" stroke="#56d8c9" stroke-width="2" d="M2280.5,-688C2280.5,-688 2078.5,-688 2078.5,-688 2072.5,-688 2066.5,-682 2066.5,-676 2066.5,-676 2066.5,-664 2066.5,-664 2066.5,-658 2072.5,-652 2078.5,-652 2078.5,-652 2280.5,-652 2280.5,-652 2286.5,-652 2292.5,-658 2292.5,-664 2292.5,-664 2292.5,-676 2292.5,-676 2292.5,-682 2286.5,-688 2280.5,-688"/>
<text text-anchor="middle" x="2179.5" y="-667.5" font-family="sans" font-size="10.00">Scripts_Supplementary_figures_S_Fig2_c_R</text>
</g>
<!-- 7&#45;&gt;36 -->
<g id="edge85" class="edge"><title>7&#45;&gt;36</title>
<path fill="none" stroke="grey" stroke-width="2" d="M1738.61,-770.987C1790.12,-749.96 1879.88,-715.686 1960,-697 1990.82,-689.812 2024.55,-684.45 2056.1,-680.484"/>
<polygon fill="grey" stroke="grey" stroke-width="2" points="2056.76,-683.93 2066.26,-679.245 2055.91,-676.981 2056.76,-683.93"/>
</g>
<!-- 37 -->
<g id="node38" class="node"><title>37</title>
<path fill="none" stroke="#56d88a" stroke-width="2" d="M2740.5,-1230C2740.5,-1230 2537.5,-1230 2537.5,-1230 2531.5,-1230 2525.5,-1224 2525.5,-1218 2525.5,-1218 2525.5,-1206 2525.5,-1206 2525.5,-1200 2531.5,-1194 2537.5,-1194 2537.5,-1194 2740.5,-1194 2740.5,-1194 2746.5,-1194 2752.5,-1200 2752.5,-1206 2752.5,-1206 2752.5,-1218 2752.5,-1218 2752.5,-1224 2746.5,-1230 2740.5,-1230"/>
<text text-anchor="middle" x="2639" y="-1209.5" font-family="sans" font-size="10.00">Scripts_Supplementary_figures_S_Fig2_d_R</text>
</g>
<!-- 7&#45;&gt;37 -->
<g id="edge86" class="edge"><title>7&#45;&gt;37</title>
<path fill="none" stroke="grey" stroke-width="2" d="M1700.58,-807.143C1718.96,-875.624 1794.51,-1119.17 1960,-1211 2052.02,-1262.06 2346.28,-1242.28 2515.36,-1225.71"/>
<polygon fill="grey" stroke="grey" stroke-width="2" points="2515.7,-1229.19 2525.31,-1224.72 2515.01,-1222.23 2515.7,-1229.19"/>
</g>
<!-- 41 -->
<g id="node42" class="node"><title>41</title>
<path fill="none" stroke="#56d8a9" stroke-width="2" d="M2275,-634C2275,-634 2084,-634 2084,-634 2078,-634 2072,-628 2072,-622 2072,-622 2072,-610 2072,-610 2072,-604 2078,-598 2084,-598 2084,-598 2275,-598 2275,-598 2281,-598 2287,-604 2287,-610 2287,-610 2287,-622 2287,-622 2287,-628 2281,-634 2275,-634"/>
<text text-anchor="middle" x="2179.5" y="-613.5" font-family="sans" font-size="10.00">Scripts_Supplementary_figures_S_Fig3_R</text>
</g>
<!-- 7&#45;&gt;41 -->
<g id="edge92" class="edge"><title>7&#45;&gt;41</title>
<path fill="none" stroke="grey" stroke-width="2" d="M1721.08,-770.77C1766.3,-738.929 1865.6,-673.661 1960,-643 1992.2,-632.54 2028.28,-626.086 2061.7,-622.118"/>
<polygon fill="grey" stroke="grey" stroke-width="2" points="2062.43,-625.558 2071.98,-620.965 2061.65,-618.602 2062.43,-625.558"/>
</g>
<!-- 42 -->
<g id="node43" class="node"><title>42</title>
<path fill="none" stroke="#afd856" stroke-width="2" d="M2275,-580C2275,-580 2084,-580 2084,-580 2078,-580 2072,-574 2072,-568 2072,-568 2072,-556 2072,-556 2072,-550 2078,-544 2084,-544 2084,-544 2275,-544 2275,-544 2281,-544 2287,-550 2287,-556 2287,-556 2287,-568 2287,-568 2287,-574 2281,-580 2275,-580"/>
<text text-anchor="middle" x="2179.5" y="-559.5" font-family="sans" font-size="10.00">Scripts_Supplementary_figures_S_Fig4_R</text>
</g>
<!-- 7&#45;&gt;42 -->
<g id="edge93" class="edge"><title>7&#45;&gt;42</title>
<path fill="none" stroke="grey" stroke-width="2" d="M1712.78,-770.99C1751.74,-730.485 1853.18,-632.366 1960,-589 1991.61,-576.166 2027.75,-568.999 2061.4,-565.108"/>
<polygon fill="grey" stroke="grey" stroke-width="2" points="2062.19,-568.544 2071.76,-564.003 2061.45,-561.584 2062.19,-568.544"/>
</g>
<!-- 8 -->
<g id="node9" class="node"><title>8</title>
<path fill="none" stroke="#70d856" stroke-width="2" stroke-dasharray="5,2" d="M2831,-1538C2831,-1538 2447,-1538 2447,-1538 2441,-1538 2435,-1532 2435,-1526 2435,-1526 2435,-1514 2435,-1514 2435,-1508 2441,-1502 2447,-1502 2447,-1502 2831,-1502 2831,-1502 2837,-1502 2843,-1508 2843,-1514 2843,-1514 2843,-1526 2843,-1526 2843,-1532 2837,-1538 2831,-1538"/>
<text text-anchor="middle" x="2639" y="-1517.5" font-family="sans" font-size="10.00">Scripts_MultiOmics_Proteomics_Aberrant_Expression_LIMMA_LIMMASummary_R</text>
</g>
<!-- 8&#45;&gt;1 -->
<g id="edge8" class="edge"><title>8&#45;&gt;1</title>
<path fill="none" stroke="grey" stroke-width="2" d="M2833.13,-1501.78C2836.58,-1499.09 2839.88,-1496.17 2843,-1493 2884.99,-1450.36 2908.61,-1018.46 2914.2,-903.166"/>
<polygon fill="grey" stroke="grey" stroke-width="2" points="2917.7,-903.176 2914.68,-893.02 2910.71,-902.841 2917.7,-903.176"/>
</g>
<!-- 9 -->
<g id="node10" class="node"><title>9</title>
<path fill="none" stroke="#59d856" stroke-width="2" stroke-dasharray="5,2" d="M1897.5,-1664C1897.5,-1664 1492.5,-1664 1492.5,-1664 1486.5,-1664 1480.5,-1658 1480.5,-1652 1480.5,-1652 1480.5,-1640 1480.5,-1640 1480.5,-1634 1486.5,-1628 1492.5,-1628 1492.5,-1628 1897.5,-1628 1897.5,-1628 1903.5,-1628 1909.5,-1634 1909.5,-1640 1909.5,-1640 1909.5,-1652 1909.5,-1652 1909.5,-1658 1903.5,-1664 1897.5,-1664"/>
<text text-anchor="middle" x="1695" y="-1643.5" font-family="sans" font-size="10.00">Scripts_MultiOmics_Proteomics_Aberrant_Expression_LIMMA_batch_normalization_R</text>
</g>
<!-- 9&#45;&gt;1 -->
<g id="edge9" class="edge"><title>9&#45;&gt;1</title>
<path fill="none" stroke="grey" stroke-width="2" d="M1909.52,-1648.01C2231.98,-1650.01 2809.46,-1649.18 2843,-1618 2896.32,-1568.43 2911.89,-1033.45 2914.91,-903.38"/>
<polygon fill="grey" stroke="grey" stroke-width="2" points="2918.41,-903.137 2915.14,-893.061 2911.41,-902.98 2918.41,-903.137"/>
</g>
<!-- 13 -->
<g id="node14" class="node"><title>13</title>
<path fill="none" stroke="#d8a456" stroke-width="2" d="M2319.5,-1706C2319.5,-1706 2039.5,-1706 2039.5,-1706 2033.5,-1706 2027.5,-1700 2027.5,-1694 2027.5,-1694 2027.5,-1682 2027.5,-1682 2027.5,-1676 2033.5,-1670 2039.5,-1670 2039.5,-1670 2319.5,-1670 2319.5,-1670 2325.5,-1670 2331.5,-1676 2331.5,-1682 2331.5,-1682 2331.5,-1694 2331.5,-1694 2331.5,-1700 2325.5,-1706 2319.5,-1706"/>
<text text-anchor="middle" x="2179.5" y="-1685.5" font-family="sans" font-size="10.00">Scripts_MultiOmics_Proteomics_disease_gene_coverage_R</text>
</g>
<!-- 9&#45;&gt;13 -->
<g id="edge55" class="edge"><title>9&#45;&gt;13</title>
<path fill="none" stroke="grey" stroke-width="2" d="M1903.07,-1664.03C1941.27,-1667.35 1980.64,-1670.78 2017.23,-1673.96"/>
<polygon fill="grey" stroke="grey" stroke-width="2" points="2017.21,-1677.47 2027.48,-1674.85 2017.82,-1670.5 2017.21,-1677.47"/>
</g>
<!-- 44 -->
<g id="node45" class="node"><title>44</title>
<path fill="none" stroke="#56b9d8" stroke-width="2" stroke-dasharray="5,2" d="M2387,-1538C2387,-1538 1972,-1538 1972,-1538 1966,-1538 1960,-1532 1960,-1526 1960,-1526 1960,-1514 1960,-1514 1960,-1508 1966,-1502 1972,-1502 1972,-1502 2387,-1502 2387,-1502 2393,-1502 2399,-1508 2399,-1514 2399,-1514 2399,-1526 2399,-1526 2399,-1532 2393,-1538 2387,-1538"/>
<text text-anchor="middle" x="2179.5" y="-1517.5" font-family="sans" font-size="10.00">Scripts_MultiOmics_Proteomics_Aberrant_Expression_LIMMA_detect_outliers_limma_R</text>
</g>
<!-- 9&#45;&gt;44 -->
<g id="edge95" class="edge"><title>9&#45;&gt;44</title>
<path fill="none" stroke="grey" stroke-width="2" d="M1765.13,-1627.95C1853.63,-1604.84 2006.61,-1564.89 2099.58,-1540.61"/>
<polygon fill="grey" stroke="grey" stroke-width="2" points="2100.71,-1543.93 2109.5,-1538.02 2098.94,-1537.16 2100.71,-1543.93"/>
</g>
<!-- 10 -->
<g id="node11" class="node"><title>10</title>
<path fill="none" stroke="#56d85b" stroke-width="2" stroke-dasharray="5,2" d="M1912,-502C1912,-502 1478,-502 1478,-502 1472,-502 1466,-496 1466,-490 1466,-490 1466,-478 1466,-478 1466,-472 1472,-466 1478,-466 1478,-466 1912,-466 1912,-466 1918,-466 1924,-472 1924,-478 1924,-478 1924,-490 1924,-490 1924,-496 1918,-502 1912,-502"/>
<text text-anchor="middle" x="1695" y="-481.5" font-family="sans" font-size="10.00">Scripts_MultiOmics_Proteomics_Aberrant_Expression_PROTRIDER_PROTRIDERSummary_R</text>
</g>
<!-- 10&#45;&gt;1 -->
<g id="edge10" class="edge"><title>10&#45;&gt;1</title>
<path fill="none" stroke="grey" stroke-width="2" d="M1709.49,-465.921C1744.64,-420.525 1844.38,-302.278 1960,-259 2051.89,-224.606 2771.56,-186.755 2843,-254 2891.15,-299.318 2847.46,-789.885 2879,-848 2879.96,-849.767 2881.09,-851.449 2882.35,-853.047"/>
<polygon fill="grey" stroke="grey" stroke-width="2" points="2879.99,-855.643 2889.49,-860.325 2884.98,-850.738 2879.99,-855.643"/>
</g>
<!-- 11 -->
<g id="node12" class="node"><title>11</title>
<path fill="none" stroke="#d8c356" stroke-width="2" stroke-dasharray="5,2" d="M2829,-1338C2829,-1338 2449,-1338 2449,-1338 2443,-1338 2437,-1332 2437,-1326 2437,-1326 2437,-1314 2437,-1314 2437,-1308 2443,-1302 2449,-1302 2449,-1302 2829,-1302 2829,-1302 2835,-1302 2841,-1308 2841,-1314 2841,-1314 2841,-1326 2841,-1326 2841,-1332 2835,-1338 2829,-1338"/>
<text text-anchor="middle" x="2639" y="-1317.5" font-family="sans" font-size="10.00">Scripts_MultiOmics_Proteomics_Protein_complexes_AE_complexes_Protrider_R</text>
</g>
<!-- 11&#45;&gt;1 -->
<g id="edge11" class="edge"><title>11&#45;&gt;1</title>
<path fill="none" stroke="grey" stroke-width="2" d="M2832.48,-1301.86C2836.15,-1299.15 2839.67,-1296.2 2843,-1293 2899.21,-1238.97 2912.03,-988.405 2914.79,-903.342"/>
<polygon fill="grey" stroke="grey" stroke-width="2" points="2918.29,-903.241 2915.1,-893.141 2911.3,-903.031 2918.29,-903.241"/>
</g>
<!-- 12 -->
<g id="node13" class="node"><title>12</title>
<path fill="none" stroke="#78d856" stroke-width="2" stroke-dasharray="5,2" d="M2823.5,-1430C2823.5,-1430 2454.5,-1430 2454.5,-1430 2448.5,-1430 2442.5,-1424 2442.5,-1418 2442.5,-1418 2442.5,-1406 2442.5,-1406 2442.5,-1400 2448.5,-1394 2454.5,-1394 2454.5,-1394 2823.5,-1394 2823.5,-1394 2829.5,-1394 2835.5,-1400 2835.5,-1406 2835.5,-1406 2835.5,-1418 2835.5,-1418 2835.5,-1424 2829.5,-1430 2823.5,-1430"/>
<text text-anchor="middle" x="2639" y="-1409.5" font-family="sans" font-size="10.00">Scripts_MultiOmics_Proteomics_Protein_complexes_AE_complexes_limma_R</text>
</g>
<!-- 12&#45;&gt;1 -->
<g id="edge12" class="edge"><title>12&#45;&gt;1</title>
<path fill="none" stroke="grey" stroke-width="2" d="M2826.26,-1393.8C2832.25,-1389.79 2837.86,-1385.21 2843,-1380 2910.15,-1311.92 2915.6,-999.409 2915.66,-903.242"/>
<polygon fill="grey" stroke="grey" stroke-width="2" points="2919.16,-903.109 2915.65,-893.114 2912.16,-903.119 2919.16,-903.109"/>
</g>
<!-- 13&#45;&gt;1 -->
<g id="edge13" class="edge"><title>13&#45;&gt;1</title>
<path fill="none" stroke="grey" stroke-width="2" d="M2331.72,-1690.93C2515.86,-1692.95 2806.93,-1690.5 2843,-1656 2898.45,-1602.95 2912.46,-1037.8 2915.02,-903.511"/>
<polygon fill="grey" stroke="grey" stroke-width="2" points="2918.52,-903.291 2915.21,-893.228 2911.52,-903.162 2918.52,-903.291"/>
</g>
<!-- 20 -->
<g id="node21" class="node"><title>20</title>
<path fill="none" stroke="#bed856" stroke-width="2" d="M2719,-1744C2719,-1744 2559,-1744 2559,-1744 2553,-1744 2547,-1738 2547,-1732 2547,-1732 2547,-1720 2547,-1720 2547,-1714 2553,-1708 2559,-1708 2559,-1708 2719,-1708 2719,-1708 2725,-1708 2731,-1714 2731,-1720 2731,-1720 2731,-1732 2731,-1732 2731,-1738 2725,-1744 2719,-1744"/>
<text text-anchor="middle" x="2639" y="-1723.5" font-family="sans" font-size="10.00">Scripts_Paper_figures_Figure2_a_R</text>
</g>
<!-- 13&#45;&gt;20 -->
<g id="edge63" class="edge"><title>13&#45;&gt;20</title>
<path fill="none" stroke="grey" stroke-width="2" d="M2331.57,-1700.55C2398.86,-1706.14 2476.33,-1712.57 2536.54,-1717.57"/>
<polygon fill="grey" stroke="grey" stroke-width="2" points="2536.55,-1721.09 2546.81,-1718.43 2537.13,-1714.11 2536.55,-1721.09"/>
</g>
<!-- 14 -->
<g id="node15" class="node"><title>14</title>
<path fill="none" stroke="#9fd856" stroke-width="2" d="M1867,-1572C1867,-1572 1523,-1572 1523,-1572 1517,-1572 1511,-1566 1511,-1560 1511,-1560 1511,-1548 1511,-1548 1511,-1542 1517,-1536 1523,-1536 1523,-1536 1867,-1536 1867,-1536 1873,-1536 1879,-1542 1879,-1548 1879,-1548 1879,-1560 1879,-1560 1879,-1566 1873,-1572 1867,-1572"/>
<text text-anchor="middle" x="1695" y="-1551.5" font-family="sans" font-size="10.00">Scripts_MultiOmics_RNA_seq_Aberrant_Expression_OutriderSummary_R</text>
</g>
<!-- 14&#45;&gt;1 -->
<g id="edge14" class="edge"><title>14&#45;&gt;1</title>
<path fill="none" stroke="grey" stroke-width="2" d="M1879.26,-1565.95C2185.18,-1584 2773.41,-1609.87 2843,-1547 2891.55,-1503.14 2910.53,-1025.7 2914.62,-903.403"/>
<polygon fill="grey" stroke="grey" stroke-width="2" points="2918.12,-903.432 2914.95,-893.323 2911.12,-903.203 2918.12,-903.432"/>
</g>
<!-- 15 -->
<g id="node16" class="node"><title>15</title>
<path fill="none" stroke="#d8cb56" stroke-width="2" d="M1380,-1595C1380,-1595 1006,-1595 1006,-1595 1000,-1595 994,-1589 994,-1583 994,-1583 994,-1571 994,-1571 994,-1565 1000,-1559 1006,-1559 1006,-1559 1380,-1559 1380,-1559 1386,-1559 1392,-1565 1392,-1571 1392,-1571 1392,-1583 1392,-1583 1392,-1589 1386,-1595 1380,-1595"/>
<text text-anchor="middle" x="1193" y="-1574.5" font-family="sans" font-size="10.00">Scripts_MultiOmics_RNA_seq_Aberrant_Expression_detect_outliers_outrider_R</text>
</g>
<!-- 15&#45;&gt;1 -->
<g id="edge15" class="edge"><title>15&#45;&gt;1</title>
<path fill="none" stroke="grey" stroke-width="2" d="M1392.25,-1584.46C1819.01,-1599.57 2790.56,-1628.41 2843,-1580 2893.57,-1533.32 2911.13,-1029.69 2914.75,-903.529"/>
<polygon fill="grey" stroke="grey" stroke-width="2" points="2918.25,-903.254 2915.04,-893.16 2911.26,-903.058 2918.25,-903.254"/>
</g>
<!-- 15&#45;&gt;7 -->
<g id="edge45" class="edge"><title>15&#45;&gt;7</title>
<path fill="none" stroke="grey" stroke-width="2" d="M1355.92,-1558.91C1383.01,-1549.94 1409.07,-1536.89 1430,-1518 1486.13,-1467.34 1647.09,-944.054 1685.63,-816.784"/>
<polygon fill="grey" stroke="grey" stroke-width="2" points="1689.05,-817.594 1688.59,-807.009 1682.35,-815.568 1689.05,-817.594"/>
</g>
<!-- 15&#45;&gt;14 -->
<g id="edge56" class="edge"><title>15&#45;&gt;14</title>
<path fill="none" stroke="grey" stroke-width="2" d="M1392.33,-1567.88C1428.09,-1566.23 1465.33,-1564.52 1500.94,-1562.88"/>
<polygon fill="grey" stroke="grey" stroke-width="2" points="1501.11,-1566.38 1510.94,-1562.42 1500.79,-1559.38 1501.11,-1566.38"/>
</g>
<!-- 16 -->
<g id="node17" class="node"><title>16</title>
<path fill="none" stroke="#d86656" stroke-width="2" d="M1829.5,-1756C1829.5,-1756 1560.5,-1756 1560.5,-1756 1554.5,-1756 1548.5,-1750 1548.5,-1744 1548.5,-1744 1548.5,-1732 1548.5,-1732 1548.5,-1726 1554.5,-1720 1560.5,-1720 1560.5,-1720 1829.5,-1720 1829.5,-1720 1835.5,-1720 1841.5,-1726 1841.5,-1732 1841.5,-1732 1841.5,-1744 1841.5,-1744 1841.5,-1750 1835.5,-1756 1829.5,-1756"/>
<text text-anchor="middle" x="1695" y="-1735.5" font-family="sans" font-size="10.00">Scripts_MultiOmics_RNA_seq_disease_gene_coverage_R</text>
</g>
<!-- 15&#45;&gt;16 -->
<g id="edge59" class="edge"><title>15&#45;&gt;16</title>
<path fill="none" stroke="grey" stroke-width="2" d="M1242.34,-1595.08C1296.49,-1615.09 1387.04,-1647.84 1466,-1673 1515.77,-1688.86 1572.22,-1704.97 1616.5,-1717.18"/>
<polygon fill="grey" stroke="grey" stroke-width="2" points="1615.76,-1720.61 1626.33,-1719.88 1617.62,-1713.86 1615.76,-1720.61"/>
</g>
<!-- 38 -->
<g id="node39" class="node"><title>38</title>
<path fill="none" stroke="#565bd8" stroke-width="2" d="M2740.5,-1484C2740.5,-1484 2537.5,-1484 2537.5,-1484 2531.5,-1484 2525.5,-1478 2525.5,-1472 2525.5,-1472 2525.5,-1460 2525.5,-1460 2525.5,-1454 2531.5,-1448 2537.5,-1448 2537.5,-1448 2740.5,-1448 2740.5,-1448 2746.5,-1448 2752.5,-1454 2752.5,-1460 2752.5,-1460 2752.5,-1472 2752.5,-1472 2752.5,-1478 2746.5,-1484 2740.5,-1484"/>
<text text-anchor="middle" x="2639" y="-1463.5" font-family="sans" font-size="10.00">Scripts_Supplementary_figures_S_Fig2_e_R</text>
</g>
<!-- 15&#45;&gt;38 -->
<g id="edge88" class="edge"><title>15&#45;&gt;38</title>
<path fill="none" stroke="grey" stroke-width="2" d="M1278.16,-1558.99C1331.7,-1548.16 1402.64,-1534.98 1466,-1527 1846.57,-1479.08 2301.23,-1468.65 2515.19,-1466.49"/>
<polygon fill="grey" stroke="grey" stroke-width="2" points="2515.23,-1469.99 2525.2,-1466.39 2515.16,-1462.99 2515.23,-1469.99"/>
</g>
<!-- 16&#45;&gt;1 -->
<g id="edge16" class="edge"><title>16&#45;&gt;1</title>
<path fill="none" stroke="grey" stroke-width="2" d="M1796.55,-1756.01C2047.66,-1798.47 2692.84,-1891.27 2843,-1753 2906.94,-1694.12 2914.49,-1047.47 2915.38,-903.359"/>
<polygon fill="grey" stroke="grey" stroke-width="2" points="2918.88,-903.157 2915.44,-893.138 2911.88,-903.118 2918.88,-903.157"/>
</g>
<!-- 16&#45;&gt;20 -->
<g id="edge64" class="edge"><title>16&#45;&gt;20</title>
<path fill="none" stroke="grey" stroke-width="2" d="M1841.64,-1736.14C2034.46,-1733.69 2369.56,-1729.42 2536.88,-1727.29"/>
<polygon fill="grey" stroke="grey" stroke-width="2" points="2536.97,-1730.79 2546.92,-1727.16 2536.88,-1723.79 2536.97,-1730.79"/>
</g>
<!-- 17&#45;&gt;1 -->
<g id="edge17" class="edge"><title>17&#45;&gt;1</title>
<path fill="none" stroke="grey" stroke-width="2" d="M2336.73,-461.912C2520.9,-454.012 2806.69,-447.52 2843,-481 2903.25,-536.546 2838.58,-776.716 2879,-848 2879.88,-849.556 2880.89,-851.047 2882.01,-852.475"/>
<polygon fill="grey" stroke="grey" stroke-width="2" points="2879.79,-855.21 2889.27,-859.937 2884.8,-850.329 2879.79,-855.21"/>
</g>
<!-- 40 -->
<g id="node41" class="node"><title>40</title>
<path fill="none" stroke="#d88d56" stroke-width="2" d="M2740.5,-526C2740.5,-526 2537.5,-526 2537.5,-526 2531.5,-526 2525.5,-520 2525.5,-514 2525.5,-514 2525.5,-502 2525.5,-502 2525.5,-496 2531.5,-490 2537.5,-490 2537.5,-490 2740.5,-490 2740.5,-490 2746.5,-490 2752.5,-496 2752.5,-502 2752.5,-502 2752.5,-514 2752.5,-514 2752.5,-520 2746.5,-526 2740.5,-526"/>
<text text-anchor="middle" x="2639" y="-505.5" font-family="sans" font-size="10.00">Scripts_Supplementary_figures_S_Fig2_g_R</text>
</g>
<!-- 17&#45;&gt;40 -->
<g id="edge91" class="edge"><title>17&#45;&gt;40</title>
<path fill="none" stroke="grey" stroke-width="2" d="M2336.67,-482.971C2395.03,-487.819 2460.43,-493.251 2515.34,-497.812"/>
<polygon fill="grey" stroke="grey" stroke-width="2" points="2515.22,-501.313 2525.47,-498.653 2515.79,-494.337 2515.22,-501.313"/>
</g>
<!-- 18&#45;&gt;1 -->
<g id="edge18" class="edge"><title>18&#45;&gt;1</title>
<path fill="none" stroke="grey" stroke-width="2" d="M2791.6,-416.861C2811.02,-423.153 2828.98,-433.019 2843,-448 2903.97,-513.174 2835.29,-770.189 2879,-848 2879.88,-849.559 2880.88,-851.054 2881.99,-852.484"/>
<polygon fill="grey" stroke="grey" stroke-width="2" points="2879.76,-855.213 2889.24,-859.954 2884.79,-850.339 2879.76,-855.213"/>
</g>
<!-- 19&#45;&gt;1 -->
<g id="edge19" class="edge"><title>19&#45;&gt;1</title>
<path fill="none" stroke="grey" stroke-width="2" d="M2725.65,-350.547C2766.83,-350.096 2813.53,-357.9 2843,-389 2913.37,-463.272 2829.4,-758.512 2879,-848 2879.87,-849.564 2880.87,-851.063 2881.97,-852.496"/>
<polygon fill="grey" stroke="grey" stroke-width="2" points="2879.73,-855.216 2889.19,-859.978 2884.77,-850.353 2879.73,-855.216"/>
</g>
<!-- 20&#45;&gt;1 -->
<g id="edge20" class="edge"><title>20&#45;&gt;1</title>
<path fill="none" stroke="grey" stroke-width="2" d="M2731.16,-1734.87C2770.99,-1733.53 2814.93,-1724.05 2843,-1694 2898.09,-1635.03 2912.42,-1041.23 2915.02,-903.446"/>
<polygon fill="grey" stroke="grey" stroke-width="2" points="2918.52,-903.338 2915.2,-893.275 2911.52,-903.21 2918.52,-903.338"/>
</g>
<!-- 21&#45;&gt;1 -->
<g id="edge21" class="edge"><title>21&#45;&gt;1</title>
<path fill="none" stroke="grey" stroke-width="2" d="M2271.74,-332.518C2443.7,-319.388 2802.25,-297.009 2843,-335 2926.59,-412.929 2824.01,-747.818 2879,-848 2879.86,-849.568 2880.86,-851.069 2881.95,-852.505"/>
<polygon fill="grey" stroke="grey" stroke-width="2" points="2879.71,-855.218 2889.16,-859.995 2884.75,-850.363 2879.71,-855.218"/>
</g>
<!-- 22&#45;&gt;1 -->
<g id="edge22" class="edge"><title>22&#45;&gt;1</title>
<path fill="none" stroke="grey" stroke-width="2" d="M2271.05,-275.124C2433.28,-257.845 2764,-233.378 2843,-310 2929.01,-393.421 2821.52,-742.866 2879,-848 2879.86,-849.569 2880.85,-851.072 2881.95,-852.508"/>
<polygon fill="grey" stroke="grey" stroke-width="2" points="2879.7,-855.219 2889.15,-860.001 2884.74,-850.367 2879.7,-855.219"/>
</g>
<!-- 23&#45;&gt;1 -->
<g id="edge23" class="edge"><title>23&#45;&gt;1</title>
<path fill="none" stroke="grey" stroke-width="2" d="M2271.64,-1182.26C2442.97,-1178.17 2799.83,-1165.45 2843,-1130 2878.4,-1100.93 2902.58,-962.903 2911.59,-902.929"/>
<polygon fill="grey" stroke="grey" stroke-width="2" points="2915.05,-903.414 2913.05,-893.011 2908.13,-902.396 2915.05,-903.414"/>
</g>
<!-- 24&#45;&gt;1 -->
<g id="edge24" class="edge"><title>24&#45;&gt;1</title>
<path fill="none" stroke="grey" stroke-width="2" d="M2730.18,-949.116C2766.22,-945.647 2807.5,-938.685 2843,-925 2858.53,-919.011 2873.97,-909.073 2886.58,-899.628"/>
<polygon fill="grey" stroke="grey" stroke-width="2" points="2889.07,-902.121 2894.82,-893.222 2884.78,-896.593 2889.07,-902.121"/>
</g>
<!-- 25&#45;&gt;1 -->
<g id="edge25" class="edge"><title>25&#45;&gt;1</title>
<path fill="none" stroke="grey" stroke-width="2" d="M2731.35,-890.373C2781.68,-886.172 2841.36,-881.19 2878.83,-878.061"/>
<polygon fill="grey" stroke="grey" stroke-width="2" points="2879.58,-881.511 2889.25,-877.191 2878.99,-874.536 2879.58,-881.511"/>
</g>
<!-- 26&#45;&gt;1 -->
<g id="edge26" class="edge"><title>26&#45;&gt;1</title>
<path fill="none" stroke="grey" stroke-width="2" d="M2731.12,-814.151C2766.63,-818.926 2807.29,-826.397 2843,-838 2855.62,-842.1 2868.74,-848.17 2880.29,-854.213"/>
<polygon fill="grey" stroke="grey" stroke-width="2" points="2878.71,-857.341 2889.17,-859.016 2882.04,-851.183 2878.71,-857.341"/>
</g>
<!-- 27&#45;&gt;1 -->
<g id="edge27" class="edge"><title>27&#45;&gt;1</title>
<path fill="none" stroke="grey" stroke-width="2" d="M2271.61,-1136.6C2431.96,-1146.28 2755.88,-1156.63 2843,-1090 2901.64,-1045.15 2913.28,-950.751 2915.3,-903.379"/>
<polygon fill="grey" stroke="grey" stroke-width="2" points="2918.81,-903.315 2915.62,-893.211 2911.81,-903.097 2918.81,-903.315"/>
</g>
<!-- 28&#45;&gt;1 -->
<g id="edge28" class="edge"><title>28&#45;&gt;1</title>
<path fill="none" stroke="grey" stroke-width="2" d="M2730.54,-1275.89C2769.75,-1275.15 2813.37,-1266.78 2843,-1239 2891.95,-1193.11 2909.24,-980.99 2913.98,-903.469"/>
<polygon fill="grey" stroke="grey" stroke-width="2" points="2917.5,-903.232 2914.59,-893.044 2910.51,-902.822 2917.5,-903.232"/>
</g>
<!-- 29&#45;&gt;1 -->
<g id="edge29" class="edge"><title>29&#45;&gt;1</title>
<path fill="none" stroke="grey" stroke-width="2" d="M2271.71,-1084.82C2431.43,-1098.37 2753.31,-1116.63 2843,-1054 2892.71,-1019.29 2908.37,-944.294 2913.28,-903.251"/>
<polygon fill="grey" stroke="grey" stroke-width="2" points="2916.78,-903.428 2914.35,-893.115 2909.82,-902.69 2916.78,-903.428"/>
</g>
<!-- 30&#45;&gt;1 -->
<g id="edge30" class="edge"><title>30&#45;&gt;1</title>
<path fill="none" stroke="grey" stroke-width="2" d="M2266.09,-1028.64C2434.27,-1040.93 2795.68,-1063.35 2843,-1033 2887.74,-1004.3 2905.24,-940.313 2911.8,-903.171"/>
<polygon fill="grey" stroke="grey" stroke-width="2" points="2915.3,-903.446 2913.44,-893.016 2908.39,-902.331 2915.3,-903.446"/>
</g>
<!-- 31&#45;&gt;1 -->
<g id="edge31" class="edge"><title>31&#45;&gt;1</title>
<path fill="none" stroke="grey" stroke-width="2" d="M2754.69,-748.463C2785.56,-752.299 2817.45,-761.1 2843,-779 2871.33,-798.846 2856.52,-821.71 2879,-848 2879.96,-849.123 2880.98,-850.227 2882.03,-851.308"/>
<polygon fill="grey" stroke="grey" stroke-width="2" points="2879.73,-853.94 2889.48,-858.075 2884.43,-848.759 2879.73,-853.94"/>
</g>
<!-- 32&#45;&gt;1 -->
<g id="edge32" class="edge"><title>32&#45;&gt;1</title>
<path fill="none" stroke="grey" stroke-width="2" d="M2781.68,-1002.51C2803.26,-997.721 2824.48,-990.283 2843,-979 2872.21,-961.209 2892.67,-926.704 2904.24,-902.327"/>
<polygon fill="grey" stroke="grey" stroke-width="2" points="2907.43,-903.769 2908.38,-893.217 2901.05,-900.874 2907.43,-903.769"/>
</g>
<!-- 33&#45;&gt;1 -->
<g id="edge33" class="edge"><title>33&#45;&gt;1</title>
<path fill="none" stroke="grey" stroke-width="2" d="M2297.02,-708.036C2463.86,-687.822 2759.86,-662.608 2843,-725 2888.56,-759.189 2846.4,-801.291 2879,-848 2879.87,-849.252 2880.82,-850.47 2881.84,-851.65"/>
<polygon fill="grey" stroke="grey" stroke-width="2" points="2879.62,-854.378 2889.2,-858.888 2884.52,-849.384 2879.62,-854.378"/>
</g>
<!-- 34 -->
<g id="node35" class="node"><title>34</title>
<path fill="none" stroke="#d87d56" stroke-width="2" stroke-dasharray="5,2" d="M2740.5,-90C2740.5,-90 2537.5,-90 2537.5,-90 2531.5,-90 2525.5,-84 2525.5,-78 2525.5,-78 2525.5,-66 2525.5,-66 2525.5,-60 2531.5,-54 2537.5,-54 2537.5,-54 2740.5,-54 2740.5,-54 2746.5,-54 2752.5,-60 2752.5,-66 2752.5,-66 2752.5,-78 2752.5,-78 2752.5,-84 2746.5,-90 2740.5,-90"/>
<text text-anchor="middle" x="2639" y="-69.5" font-family="sans" font-size="10.00">Scripts_Supplementary_figures_S_Fig2_a_R</text>
</g>
<!-- 34&#45;&gt;1 -->
<g id="edge34" class="edge"><title>34&#45;&gt;1</title>
<path fill="none" stroke="grey" stroke-width="2" d="M2752.76,-64.0891C2786.39,-67.8069 2820.3,-78.7081 2843,-104 2898.28,-165.596 2839.97,-775.019 2879,-848 2879.95,-849.772 2881.07,-851.46 2882.32,-853.061"/>
<polygon fill="grey" stroke="grey" stroke-width="2" points="2879.95,-855.647 2889.45,-860.35 2884.96,-850.753 2879.95,-855.647"/>
</g>
<!-- 35 -->
<g id="node36" class="node"><title>35</title>
<path fill="none" stroke="#d89556" stroke-width="2" d="M1294.5,-1509C1294.5,-1509 1091.5,-1509 1091.5,-1509 1085.5,-1509 1079.5,-1503 1079.5,-1497 1079.5,-1497 1079.5,-1485 1079.5,-1485 1079.5,-1479 1085.5,-1473 1091.5,-1473 1091.5,-1473 1294.5,-1473 1294.5,-1473 1300.5,-1473 1306.5,-1479 1306.5,-1485 1306.5,-1485 1306.5,-1497 1306.5,-1497 1306.5,-1503 1300.5,-1509 1294.5,-1509"/>
<text text-anchor="middle" x="1193" y="-1488.5" font-family="sans" font-size="10.00">Scripts_Supplementary_figures_S_Fig2_b_R</text>
</g>
<!-- 35&#45;&gt;1 -->
<g id="edge35" class="edge"><title>35&#45;&gt;1</title>
<path fill="none" stroke="grey" stroke-width="2" d="M1306.75,-1481.38C1678.1,-1449.68 2839.48,-1350.3 2843,-1347 2907.9,-1286.2 2914.94,-995.84 2915.52,-903.36"/>
<polygon fill="grey" stroke="grey" stroke-width="2" points="2919.02,-903.106 2915.56,-893.092 2912.02,-903.077 2919.02,-903.106"/>
</g>
<!-- 36&#45;&gt;1 -->
<g id="edge36" class="edge"><title>36&#45;&gt;1</title>
<path fill="none" stroke="grey" stroke-width="2" d="M2292.74,-664.585C2470.67,-657.097 2801.67,-648.047 2843,-682 2901.34,-729.918 2838.02,-784.595 2879,-848 2879.94,-849.456 2880.99,-850.862 2882.12,-852.214"/>
<polygon fill="grey" stroke="grey" stroke-width="2" points="2879.76,-854.804 2889.32,-859.368 2884.7,-849.838 2879.76,-854.804"/>
</g>
<!-- 37&#45;&gt;1 -->
<g id="edge37" class="edge"><title>37&#45;&gt;1</title>
<path fill="none" stroke="grey" stroke-width="2" d="M2752.74,-1216.98C2785.38,-1212.87 2818.72,-1202.48 2843,-1180 2883.66,-1142.36 2905.5,-971.659 2912.74,-903.366"/>
<polygon fill="grey" stroke="grey" stroke-width="2" points="2916.23,-903.627 2913.78,-893.321 2909.27,-902.908 2916.23,-903.627"/>
</g>
<!-- 38&#45;&gt;1 -->
<g id="edge38" class="edge"><title>38&#45;&gt;1</title>
<path fill="none" stroke="grey" stroke-width="2" d="M2752.66,-1475.7C2785.79,-1472.61 2819.42,-1462.68 2843,-1439 2881.26,-1400.57 2907.25,-1012.69 2913.85,-903.479"/>
<polygon fill="grey" stroke="grey" stroke-width="2" points="2917.36,-903.429 2914.46,-893.238 2910.37,-903.012 2917.36,-903.429"/>
</g>
<!-- 39 -->
<g id="node40" class="node"><title>39</title>
<path fill="none" stroke="#568ad8" stroke-width="2" stroke-dasharray="5,2" d="M2739,-36C2739,-36 2539,-36 2539,-36 2533,-36 2527,-30 2527,-24 2527,-24 2527,-12 2527,-12 2527,-6 2533,-0 2539,-0 2539,-0 2739,-0 2739,-0 2745,-0 2751,-6 2751,-12 2751,-12 2751,-24 2751,-24 2751,-30 2745,-36 2739,-36"/>
<text text-anchor="middle" x="2639" y="-15.5" font-family="sans" font-size="10.00">Scripts_Supplementary_figures_S_Fig2_f_R</text>
</g>
<!-- 39&#45;&gt;1 -->
<g id="edge39" class="edge"><title>39&#45;&gt;1</title>
<path fill="none" stroke="grey" stroke-width="2" d="M2751.22,-6.9227C2785.27,-9.64086 2819.82,-19.7029 2843,-45 2903.33,-110.852 2837.02,-769.17 2879,-848 2879.94,-849.774 2881.06,-851.463 2882.31,-853.065"/>
<polygon fill="grey" stroke="grey" stroke-width="2" points="2879.94,-855.648 2889.43,-860.357 2884.95,-850.758 2879.94,-855.648"/>
</g>
<!-- 40&#45;&gt;1 -->
<g id="edge40" class="edge"><title>40&#45;&gt;1</title>
<path fill="none" stroke="grey" stroke-width="2" d="M2752.55,-501.11C2785.87,-504.964 2819.64,-515.687 2843,-540 2890.74,-589.692 2844.45,-788.375 2879,-848 2879.9,-849.547 2880.92,-851.032 2882.04,-852.454"/>
<polygon fill="grey" stroke="grey" stroke-width="2" points="2879.84,-855.205 2889.34,-859.897 2884.84,-850.305 2879.84,-855.205"/>
</g>
<!-- 41&#45;&gt;1 -->
<g id="edge41" class="edge"><title>41&#45;&gt;1</title>
<path fill="none" stroke="grey" stroke-width="2" d="M2287.3,-615.042C2464.13,-614.489 2802.37,-618.203 2843,-654 2908.8,-711.976 2832.52,-773.64 2879,-848 2879.92,-849.47 2880.95,-850.887 2882.07,-852.25"/>
<polygon fill="grey" stroke="grey" stroke-width="2" points="2879.68,-854.815 2889.22,-859.437 2884.64,-849.879 2879.68,-854.815"/>
</g>
<!-- 42&#45;&gt;1 -->
<g id="edge42" class="edge"><title>42&#45;&gt;1</title>
<path fill="none" stroke="grey" stroke-width="2" d="M2287.33,-566.775C2469.58,-575.401 2822.97,-594.418 2843,-613 2920.47,-684.854 2824.41,-757.533 2879,-848 2879.92,-849.531 2880.97,-851.003 2882.11,-852.414"/>
<polygon fill="grey" stroke="grey" stroke-width="2" points="2879.94,-855.192 2889.47,-859.819 2884.9,-850.258 2879.94,-855.192"/>
</g>
<!-- 43 -->
<g id="node44" class="node"><title>43</title>
<path fill="none" stroke="#d8ac56" stroke-width="2" stroke-dasharray="5,2" d="M1418,-1093C1418,-1093 968,-1093 968,-1093 962,-1093 956,-1087 956,-1081 956,-1081 956,-1069 956,-1069 956,-1063 962,-1057 968,-1057 968,-1057 1418,-1057 1418,-1057 1424,-1057 1430,-1063 1430,-1069 1430,-1069 1430,-1081 1430,-1081 1430,-1087 1424,-1093 1418,-1093"/>
<text text-anchor="middle" x="1193" y="-1072.5" font-family="sans" font-size="10.00">Scripts_MultiOmics_Proteomics_Aberrant_Expression_PROTRIDER_detect_outliers_protrider_R</text>
</g>
<!-- 43&#45;&gt;7 -->
<g id="edge46" class="edge"><title>43&#45;&gt;7</title>
<path fill="none" stroke="grey" stroke-width="2" d="M1225.66,-1056.89C1312.9,-1006.99 1556.71,-867.532 1653.58,-812.122"/>
<polygon fill="grey" stroke="grey" stroke-width="2" points="1655.54,-815.032 1662.48,-807.028 1652.06,-808.955 1655.54,-815.032"/>
</g>
<!-- 43&#45;&gt;10 -->
<g id="edge49" class="edge"><title>43&#45;&gt;10</title>
<path fill="none" stroke="grey" stroke-width="2" d="M1209.24,-1056.99C1281.19,-971.941 1587,-610.474 1672,-510.003"/>
<polygon fill="grey" stroke="grey" stroke-width="2" points="1674.85,-512.055 1678.64,-502.16 1669.51,-507.534 1674.85,-512.055"/>
</g>
<!-- 43&#45;&gt;11 -->
<g id="edge50" class="edge"><title>43&#45;&gt;11</title>
<path fill="none" stroke="grey" stroke-width="2" d="M1231.46,-1093.1C1340.57,-1144.68 1668.84,-1291.88 1960,-1341 2152.39,-1373.45 2204.08,-1349.55 2399,-1341 2412.56,-1340.41 2426.54,-1339.62 2440.62,-1338.71"/>
<polygon fill="grey" stroke="grey" stroke-width="2" points="2441.14,-1342.18 2450.88,-1338.02 2440.67,-1335.2 2441.14,-1342.18"/>
</g>
<!-- 43&#45;&gt;38 -->
<g id="edge89" class="edge"><title>43&#45;&gt;38</title>
<path fill="none" stroke="grey" stroke-width="2" d="M1211.81,-1093.21C1252.61,-1133.75 1357.72,-1231.48 1466,-1278 1825.02,-1432.24 2295.17,-1461.13 2514.87,-1465.75"/>
<polygon fill="grey" stroke="grey" stroke-width="2" points="2515.07,-1469.25 2525.14,-1465.95 2515.21,-1462.25 2515.07,-1469.25"/>
</g>
<!-- 44&#45;&gt;8 -->
<g id="edge48" class="edge"><title>44&#45;&gt;8</title>
<path fill="none" stroke="grey" stroke-width="2" d="M2399.2,-1520C2407.61,-1520 2416.04,-1520 2424.44,-1520"/>
<polygon fill="grey" stroke="grey" stroke-width="2" points="2424.68,-1523.5 2434.68,-1520 2424.68,-1516.5 2424.68,-1523.5"/>
</g>
<!-- 44&#45;&gt;12 -->
<g id="edge52" class="edge"><title>44&#45;&gt;12</title>
<path fill="none" stroke="grey" stroke-width="2" d="M2236.82,-1501.94C2310.25,-1478.41 2429.99,-1440.12 2435,-1439 2446.77,-1436.37 2458.99,-1433.95 2471.33,-1431.76"/>
<polygon fill="grey" stroke="grey" stroke-width="2" points="2471.99,-1435.19 2481.24,-1430.04 2470.79,-1428.3 2471.99,-1435.19"/>
</g>
<!-- 44&#45;&gt;38 -->
<g id="edge90" class="edge"><title>44&#45;&gt;38</title>
<path fill="none" stroke="grey" stroke-width="2" d="M2333.16,-1501.98C2392.36,-1494.99 2459.23,-1487.1 2515.23,-1480.49"/>
<polygon fill="grey" stroke="grey" stroke-width="2" points="2515.67,-1483.96 2525.19,-1479.32 2514.85,-1477.01 2515.67,-1483.96"/>
</g>
<!-- 45 -->
<g id="node46" class="node"><title>45</title>
<path fill="none" stroke="#d8d356" stroke-width="2" stroke-dasharray="5,2" d="M2368,-1332C2368,-1332 1991,-1332 1991,-1332 1985,-1332 1979,-1326 1979,-1320 1979,-1320 1979,-1308 1979,-1308 1979,-1302 1985,-1296 1991,-1296 1991,-1296 2368,-1296 2368,-1296 2374,-1296 2380,-1302 2380,-1308 2380,-1308 2380,-1320 2380,-1320 2380,-1326 2374,-1332 2368,-1332"/>
<text text-anchor="middle" x="2179.5" y="-1311.5" font-family="sans" font-size="10.00">Scripts_MultiOmics_Proteomics_Protein_complexes_get_CORUM_complexes_R</text>
</g>
<!-- 45&#45;&gt;11 -->
<g id="edge51" class="edge"><title>45&#45;&gt;11</title>
<path fill="none" stroke="grey" stroke-width="2" d="M2380.17,-1316.62C2395.56,-1316.82 2411.14,-1317.02 2426.61,-1317.23"/>
<polygon fill="grey" stroke="grey" stroke-width="2" points="2426.71,-1320.73 2436.75,-1317.36 2426.8,-1313.73 2426.71,-1320.73"/>
</g>
<!-- 45&#45;&gt;12 -->
<g id="edge53" class="edge"><title>45&#45;&gt;12</title>
<path fill="none" stroke="grey" stroke-width="2" d="M2264.68,-1332.03C2343.79,-1348.98 2461.99,-1374.3 2544.12,-1391.89"/>
<polygon fill="grey" stroke="grey" stroke-width="2" points="2543.44,-1395.32 2553.95,-1394 2544.9,-1388.48 2543.44,-1395.32"/>
</g>
<!-- 45&#45;&gt;28 -->
<g id="edge76" class="edge"><title>45&#45;&gt;28</title>
<path fill="none" stroke="grey" stroke-width="2" d="M2352.16,-1295.99C2414.58,-1289.44 2483.05,-1282.26 2537.33,-1276.56"/>
<polygon fill="grey" stroke="grey" stroke-width="2" points="2537.72,-1280.04 2547.3,-1275.52 2536.99,-1273.08 2537.72,-1280.04"/>
</g>
<!-- 45&#45;&gt;37 -->
<g id="edge87" class="edge"><title>45&#45;&gt;37</title>
<path fill="none" stroke="grey" stroke-width="2" d="M2233.02,-1295.93C2284.06,-1278.99 2364.04,-1254.08 2435,-1239 2460.75,-1233.53 2488.58,-1228.96 2515.15,-1225.24"/>
<polygon fill="grey" stroke="grey" stroke-width="2" points="2515.82,-1228.68 2525.26,-1223.85 2514.87,-1221.74 2515.82,-1228.68"/>
</g>
<!-- 46 -->
<g id="node47" class="node"><title>46</title>
<path fill="none" stroke="#d85e56" stroke-width="2" d="M829.5,-1652C829.5,-1652 560.5,-1652 560.5,-1652 554.5,-1652 548.5,-1646 548.5,-1640 548.5,-1640 548.5,-1628 548.5,-1628 548.5,-1622 554.5,-1616 560.5,-1616 560.5,-1616 829.5,-1616 829.5,-1616 835.5,-1616 841.5,-1622 841.5,-1628 841.5,-1628 841.5,-1640 841.5,-1640 841.5,-1646 835.5,-1652 829.5,-1652"/>
<text text-anchor="middle" x="695" y="-1631.5" font-family="sans" font-size="10.00">Scripts_MultiOmics_RNA_seq_create_gene_annotation_R</text>
</g>
<!-- 46&#45;&gt;13 -->
<g id="edge54" class="edge"><title>46&#45;&gt;13</title>
<path fill="none" stroke="grey" stroke-width="2" d="M841.769,-1642.67C996.577,-1651.57 1248.46,-1665.2 1466,-1673 1655.12,-1679.78 1872.6,-1683.81 2017.04,-1685.96"/>
<polygon fill="grey" stroke="grey" stroke-width="2" points="2017.26,-1689.46 2027.31,-1686.11 2017.36,-1682.46 2017.26,-1689.46"/>
</g>
<!-- 46&#45;&gt;15 -->
<g id="edge57" class="edge"><title>46&#45;&gt;15</title>
<path fill="none" stroke="grey" stroke-width="2" d="M841.799,-1617.24C899.211,-1610.65 965.48,-1603.03 1024.82,-1596.21"/>
<polygon fill="grey" stroke="grey" stroke-width="2" points="1025.51,-1599.66 1035.04,-1595.04 1024.71,-1592.7 1025.51,-1599.66"/>
</g>
<!-- 46&#45;&gt;16 -->
<g id="edge58" class="edge"><title>46&#45;&gt;16</title>
<path fill="none" stroke="grey" stroke-width="2" d="M747.525,-1652.01C799.44,-1669.26 882.21,-1694.34 956,-1706 1155.21,-1737.48 1388.17,-1742.36 1538.23,-1741.44"/>
<polygon fill="grey" stroke="grey" stroke-width="2" points="1538.47,-1744.94 1548.44,-1741.37 1538.42,-1737.94 1538.47,-1744.94"/>
</g>
<!-- 46&#45;&gt;35 -->
<g id="edge84" class="edge"><title>46&#45;&gt;35</title>
<path fill="none" stroke="grey" stroke-width="2" d="M748.465,-1615.9C800.752,-1598.13 883.487,-1570.75 956,-1550 1004.79,-1536.04 1059.77,-1522.18 1104.39,-1511.41"/>
<polygon fill="grey" stroke="grey" stroke-width="2" points="1105.42,-1514.76 1114.32,-1509.02 1103.78,-1507.96 1105.42,-1514.76"/>
</g>
<!-- 47 -->
<g id="node48" class="node"><title>47</title>
<path fill="none" stroke="#ced856" stroke-width="2" stroke-dasharray="5,2" d="M908,-1093C908,-1093 482,-1093 482,-1093 476,-1093 470,-1087 470,-1081 470,-1081 470,-1069 470,-1069 470,-1063 476,-1057 482,-1057 482,-1057 908,-1057 908,-1057 914,-1057 920,-1063 920,-1069 920,-1069 920,-1081 920,-1081 920,-1087 914,-1093 908,-1093"/>
<text text-anchor="middle" x="695" y="-1072.5" font-family="sans" font-size="10.00">Scripts_MultiOmics_Proteomics_Aberrant_Expression_PROTRIDER_protrider_data_prep_R</text>
</g>
<!-- 47&#45;&gt;43 -->
<g id="edge94" class="edge"><title>47&#45;&gt;43</title>
<path fill="none" stroke="grey" stroke-width="2" d="M920.057,-1075C928.637,-1075 937.256,-1075 945.872,-1075"/>
<polygon fill="grey" stroke="grey" stroke-width="2" points="945.982,-1078.5 955.982,-1075 945.982,-1071.5 945.982,-1078.5"/>
</g>
<!-- 48 -->
<g id="node49" class="node"><title>48</title>
<path fill="none" stroke="#56b1d8" stroke-width="2" stroke-dasharray="5,2" d="M422,-1093C422,-1093 12,-1093 12,-1093 6,-1093 0,-1087 0,-1081 0,-1081 0,-1069 0,-1069 0,-1063 6,-1057 12,-1057 12,-1057 422,-1057 422,-1057 428,-1057 434,-1063 434,-1069 434,-1069 434,-1081 434,-1081 434,-1087 428,-1093 422,-1093"/>
<text text-anchor="middle" x="217" y="-1072.5" font-family="sans" font-size="10.00">Scripts_MultiOmics_Proteomics_Aberrant_Expression_PROTRIDER_data_imputation_R</text>
</g>
<!-- 48&#45;&gt;47 -->
<g id="edge96" class="edge"><title>48&#45;&gt;47</title>
<path fill="none" stroke="grey" stroke-width="2" d="M434.064,-1075C442.632,-1075 451.238,-1075 459.838,-1075"/>
<polygon fill="grey" stroke="grey" stroke-width="2" points="459.927,-1078.5 469.927,-1075 459.927,-1071.5 459.927,-1078.5"/>
</g>
</g>
</svg>
